<?xml version="1.0" encoding="UTF-8" standalone="no"?>
<!-- Created with Inkscape (http://www.inkscape.org/) -->

<svg
   xmlns:dc="http://purl.org/dc/elements/1.1/"
   xmlns:cc="http://creativecommons.org/ns#"
   xmlns:rdf="http://www.w3.org/1999/02/22-rdf-syntax-ns#"
   xmlns:svg="http://www.w3.org/2000/svg"
   xmlns="http://www.w3.org/2000/svg"
   xmlns:sodipodi="http://sodipodi.sourceforge.net/DTD/sodipodi-0.dtd"
   xmlns:inkscape="http://www.inkscape.org/namespaces/inkscape"
   width="210mm"
   height="297mm"
   viewBox="0 0 210 297"
   version="1.1"
   id="svg8"
   inkscape:version="0.92.1 r15371"
   sodipodi:docname="CygnarLogo.svg">
  <defs
     id="defs2" />
  <sodipodi:namedview
     id="base"
     pagecolor="#ffffff"
     bordercolor="#666666"
     borderopacity="1.0"
     inkscape:pageopacity="0.0"
     inkscape:pageshadow="2"
     inkscape:zoom="0.175"
     inkscape:cx="1371.9623"
     inkscape:cy="-797.57003"
     inkscape:document-units="mm"
     inkscape:current-layer="layer1"
     showgrid="false"
     inkscape:window-width="2048"
     inkscape:window-height="1089"
     inkscape:window-x="-8"
     inkscape:window-y="-8"
     inkscape:window-maximized="1" />
  <metadata
     id="metadata5">
    <rdf:RDF>
      <cc:Work
         rdf:about="">
        <dc:format>image/svg+xml</dc:format>
        <dc:type
           rdf:resource="http://purl.org/dc/dcmitype/StillImage" />
        <dc:title></dc:title>
      </cc:Work>
    </rdf:RDF>
  </metadata>
  <g
     inkscape:label="Layer 1"
     inkscape:groupmode="layer"
     id="layer1">
    <path
       style="fill:#070000;fill-opacity:1;stroke-width:0.26458335"
       d="m 105.76447,208.39523 c -0.58172,-1.12491 -2.66088,-3.33895 -4.19582,-4.468 -0.75186,-0.55304 -2.43326,-1.55759 -3.73645,-2.23233 l -2.36943,-1.22681 0.9047,-0.45979 c 2.41341,-1.22655 4.29905,-3.42419 5.15867,-6.01226 0.69195,-2.08327 0.18824,-2.14946 -1.88691,-0.24796 -1.88962,1.73149 -6.54556,4.28158 -7.81402,4.2798 -1.01501,-0.001 -6.65295,-2.93365 -9.28547,-4.82925 -2.51083,-1.80798 -5.24379,-4.0916 -5.24331,-4.38124 1.7e-4,-0.10075 1.16102,-0.57914 2.57969,-1.06308 11.12921,-3.79645 16.41424,-9.7077 13.77228,-15.40417 -0.84993,-1.83258 -2.32666,-3.31132 -4.18144,-4.18714 -1.97008,-0.93026 -5.48264,-0.96475 -7.63689,-0.075 -3.7957,1.56773 -7.8685,5.59093 -11.1359,11.00028 -0.75408,1.24842 -1.52565,2.26986 -1.7146,2.26986 -0.63725,0 -6.08967,-5.9339 -7.78019,-8.46722 -4.82445,-7.22965 -8.24492,-18.07768 -8.24492,-26.14879 0.0954,-1.05994 -0.47617,-1.8379 0.72761,-1.46215 0.40018,0.12491 2.03729,0.21908 3.63802,0.20925 2.97248,-0.0183 5.26838,-0.44887 5.0992,-0.95639 -0.0519,-0.15576 -0.82431,-0.54749 -1.71642,-0.87051 -4.47763,-1.62131 -6.91249,-4.4306 -7.16285,-8.26436 -0.37506,-5.74307 2.53278,-18.29726 5.78495,-24.97569 1.44015,-2.95739 3.33864,-6.05789 3.70936,-6.05789 0.12547,0 0.4599,0.44648 0.74318,0.99218 1.07421,2.06931 3.07789,3.61677 4.47421,3.45547 0.57696,-0.0667 0.69993,-0.206 0.65614,-0.74349 -0.0296,-0.3638 -0.13512,-1.56518 -0.23439,-2.66973 -0.80287,-8.932658 7.83905,-18.666839 24.06459,-27.106154 4.16143,-2.164464 7.55483,-3.6718 7.77361,-3.453014 0.079,0.07897 -0.63613,0.970127 -1.58912,1.980346 -6.67024,7.070807 -12.28991,16.849214 -14.47944,25.194722 -1.0934,4.16753 -1.42223,7.2882 -1.24648,11.82929 0.21089,5.44909 1.14156,9.24254 3.49999,14.26612 1.72466,3.67362 6.18032,10.26309 6.80001,10.05652 0.1299,-0.0433 0.49676,-0.85292 0.81523,-1.79916 1.64641,-4.89167 7.56059,-10.18265 17.88341,-15.99899 4.20935,-2.37173 4.81347,-3.23254 3.3837,-4.82142 -0.76453,-0.8496 -1.91019,-0.96892 -4.55134,-0.47401 -2.39763,0.44928 -2.68751,0.54737 -7.80233,2.64024 -3.5482,1.45185 -8.8046,2.95558 -11.17382,3.19657 l -1.65848,0.1687 1.5875,-1.39847 c 3.45973,-3.04777 5.37369,-5.48613 6.3346,-8.07015 1.02586,-2.75869 2.88877,-3.80599 6.77,-3.80599 1.95202,0 2.48436,0.10084 3.56459,0.6752 1.82913,0.97256 3.69737,1.39015 7.07851,1.58222 1.63637,0.093 3.39194,0.29263 3.90126,0.44374 1.50024,0.44511 2.65762,1.49397 3.37314,3.05686 0.54506,1.19058 0.6389,1.71884 0.52618,2.96197 -0.0755,0.83212 -0.3437,1.91231 -0.59611,2.40041 -0.83411,1.61299 -3.10758,3.71882 -5.59701,5.18429 -3.83379,2.25687 -5.59874,4.24063 -6.72001,7.55313 -0.48664,1.43763 -0.55032,2.10484 -0.45024,4.71718 0.0759,1.98038 0.26562,3.38912 0.54347,4.0349 0.37519,0.87196 0.53738,0.99219 1.33859,0.99219 0.50142,0 1.72788,-0.2501 2.72548,-0.55577 7.20191,-2.20673 11.96141,-9.65275 13.45553,-21.05054 1.25351,-9.56233 -0.49364,-19.39014 -5.11941,-28.796818 -2.60289,-5.293082 -5.45786,-9.524711 -9.50551,-14.089065 -1.06464,-1.200547 -1.77081,-2.182813 -1.56926,-2.182813 0.20154,0 2.97517,1.300583 6.16361,2.890187 15.05946,7.50791 23.59761,15.609971 25.40417,24.106619 0.40444,1.90217 0.38064,4.76329 -0.0555,6.67142 -0.14774,0.64636 -0.0913,0.72761 0.50543,0.72761 0.97849,0 2.80727,-1.5046 4.00346,-3.29379 l 1.04163,-1.55801 0.98495,1.14361 c 4.62833,5.37389 9.17527,21.06363 8.65049,29.84948 -0.15006,2.51223 -0.71305,3.68451 -2.64869,5.51515 -1.62105,1.53312 -2.84279,2.22651 -5.05748,2.87034 -0.89275,0.25953 -1.48701,0.57206 -1.42969,0.75191 0.21242,0.66649 2.91717,1.33146 5.48695,1.34897 1.38245,0.009 2.75166,-0.0424 3.04271,-0.11516 0.50829,-0.12707 0.52629,-0.0175 0.45637,2.77812 -0.21694,8.67319 -3.21306,17.97176 -8.09667,25.12834 -1.54969,2.27095 -6.10192,7.30806 -7.07543,7.82907 -0.39482,0.2113 -0.6677,-0.11603 -1.83351,-2.19937 -3.4354,-6.13918 -7.39536,-10.09626 -11.32603,-11.31777 -2.15308,-0.6691 -3.76878,-0.66065 -6.00954,0.0315 -1.48144,0.45757 -2.0539,0.81451 -3.28862,2.05052 -3.44291,3.44651 -3.15475,7.71113 0.78446,11.60932 2.49624,2.47025 7.14206,4.9611 12.26543,6.5761 0.82591,0.26035 1.50166,0.59597 1.50166,0.74583 0,0.14986 -0.32742,0.5481 -0.7276,0.88497 -1.70099,1.43189 -4.81039,3.75625 -6.28386,4.69733 -2.15587,1.37694 -6.74107,3.56511 -7.48029,3.56979 -1.47489,0.009 -6.67903,-2.96849 -8.51276,-4.87102 -0.50148,-0.52031 -1.02318,-0.94601 -1.15931,-0.94601 -0.39625,0 -0.0141,2.0257 0.60691,3.21714 1.14269,3.17737 7.11405,4.3466 3.61447,5.98871 -3.64285,1.7047 -6.58022,4.0309 -8.1201,6.4306 -0.45771,0.71328 -0.9358,1.29688 -1.06241,1.29688 -0.12662,0 -0.40338,-0.33488 -0.61504,-0.74418 z"
       id="path4496"
       inkscape:connector-curvature="0"
       sodipodi:nodetypes="ccccsscccccsccsssccccccssccccscscssccccscccscsccccccccccscsssssscsscsccsccccccsscsscsccccsccsscc" />
  </g>
</svg>
