<?xml version="1.0" encoding="UTF-8" standalone="no"?>
<!-- Created with Inkscape (http://www.inkscape.org/) -->

<svg
   xmlns:dc="http://purl.org/dc/elements/1.1/"
   xmlns:cc="http://creativecommons.org/ns#"
   xmlns:rdf="http://www.w3.org/1999/02/22-rdf-syntax-ns#"
   xmlns:svg="http://www.w3.org/2000/svg"
   xmlns="http://www.w3.org/2000/svg"
   xmlns:sodipodi="http://sodipodi.sourceforge.net/DTD/sodipodi-0.dtd"
   xmlns:inkscape="http://www.inkscape.org/namespaces/inkscape"
   width="81.000603mm"
   height="54.000401mm"
   viewBox="0 0 81.000603 54.000401"
   version="1.1"
   id="svg8"
   inkscape:version="0.92.1 r15371"
   sodipodi:docname="HordesGroupShot.svg">
  <defs
     id="defs2" />
  <sodipodi:namedview
     id="base"
     pagecolor="#ffffff"
     bordercolor="#666666"
     borderopacity="1.0"
     inkscape:pageopacity="0.0"
     inkscape:pageshadow="2"
     inkscape:zoom="1.979899"
     inkscape:cx="-36.644564"
     inkscape:cy="76.012302"
     inkscape:document-units="mm"
     inkscape:current-layer="layer1"
     showgrid="false"
     inkscape:snap-bbox="true"
     inkscape:bbox-nodes="true"
     inkscape:object-paths="true"
     inkscape:snap-intersection-paths="true"
     inkscape:snap-smooth-nodes="true"
     inkscape:snap-midpoints="true"
     inkscape:snap-nodes="false"
     inkscape:window-width="1920"
     inkscape:window-height="1017"
     inkscape:window-x="-8"
     inkscape:window-y="-8"
     inkscape:window-maximized="1" />
  <metadata
     id="metadata5">
    <rdf:RDF>
      <cc:Work
         rdf:about="">
        <dc:format>image/svg+xml</dc:format>
        <dc:type
           rdf:resource="http://purl.org/dc/dcmitype/StillImage" />
        <dc:title />
      </cc:Work>
    </rdf:RDF>
  </metadata>
  <g
     inkscape:label="Layer 1"
     inkscape:groupmode="layer"
     id="layer1"
     transform="translate(-17.58315,-19.329046)">
    <g
       id="g4726">
      <g
         transform="translate(17.583149,19.329053)"
         id="g4515">
        <g
           inkscape:label="Layer 1"
           id="layer1-4"
           transform="translate(234.91099,-179.09532)">
          <circle
             inkscape:export-ydpi="300"
             inkscape:export-xdpi="300"
             r="13.5001"
             cy="192.59541"
             cx="-221.41089"
             id="path4500"
             style="opacity:1;fill:#ecb323;fill-opacity:1;stroke:none;stroke-width:3.60207725;stroke-linejoin:miter;stroke-miterlimit:4;stroke-dasharray:none;stroke-opacity:1" />
          <path
             style="fill:#ffd978;fill-opacity:1;stroke-width:0.0243549"
             d="m -221.11709,202.81935 c -0.7846,-0.11851 -0.85551,-0.14353 -1.92403,-0.67912 -0.67219,-0.33693 -0.71152,-0.36068 -1.24513,-0.75213 -0.51178,-0.37544 -0.58698,-0.44085 -1.05641,-0.91886 l -0.50541,-0.51464 -0.42682,-0.64814 c -0.3269,-0.4964 -0.88633,-1.38411 -0.97117,-1.54108 -0.005,-0.009 0.0299,-0.18312 0.0771,-0.38717 0.0472,-0.20405 0.0809,-0.37594 0.0749,-0.38196 -0.007,-0.007 -0.13501,-0.0221 -0.28664,-0.036 -0.24525,-0.0222 -0.3029,-0.0194 -0.52188,0.0253 -0.23741,0.0485 -0.26018,0.0591 -0.63944,0.29828 -0.34669,0.21862 -0.4196,0.27655 -0.61567,0.48921 -0.12233,0.13269 -0.2268,0.23684 -0.23217,0.23147 -0.0162,-0.0162 0.31011,-0.69189 0.4711,-0.97544 0.17637,-0.31065 0.42846,-0.60984 0.75212,-0.89263 0.12659,-0.11061 0.23015,-0.20776 0.23015,-0.21592 0,-0.008 -0.10601,-0.0476 -0.2356,-0.0877 l -0.23561,-0.0728 -0.21683,-0.51145 c -0.20335,-0.47964 -0.22287,-0.541 -0.31384,-0.98638 -0.0635,-0.31093 -0.11647,-0.67254 -0.15341,-1.0473 -0.0518,-0.52598 -0.0539,-0.60001 -0.0257,-0.9133 0.032,-0.3554 0.10238,-0.71225 0.13367,-0.67764 0.01,0.0111 0.10259,0.23898 0.20579,0.50651 0.16036,0.41568 0.23059,0.55912 0.48295,0.98637 0.33938,0.57455 0.54923,0.83133 0.90966,1.11309 0.30752,0.24039 0.52147,0.34479 0.83718,0.40855 0.23668,0.0478 0.27749,0.0494 0.54798,0.0219 0.19542,-0.0199 0.42364,-0.066 0.68873,-0.13924 0.34892,-0.0964 0.43588,-0.13142 0.72494,-0.29213 0.44384,-0.24677 0.95895,-0.65284 1.33986,-1.05623 0.33883,-0.35883 0.55623,-0.69688 0.87323,-1.35775 l 0.18666,-0.38917 0.10696,-0.60938 c 0.0996,-0.56745 0.10801,-0.64963 0.12233,-1.19391 l 0.0154,-0.58452 -0.0972,-0.27473 c -0.13288,-0.37542 -0.2624,-0.54082 -0.50176,-0.64075 -0.13823,-0.0578 -0.20508,-0.0709 -0.35977,-0.0709 -0.17289,0 -0.20693,0.009 -0.37821,0.0957 -0.15435,0.0784 -0.22608,0.13678 -0.3987,0.32418 -0.17151,0.18618 -0.24554,0.2935 -0.39954,0.5793 -0.16984,0.31513 -0.20362,0.40159 -0.33261,0.85094 -0.17603,0.61322 -0.28042,1.23402 -0.31345,1.86404 -0.0127,0.24112 -0.0256,0.46578 -0.0288,0.49928 -0.005,0.0507 -0.10576,-0.0578 -0.60055,-0.6454 -0.53197,-0.63182 -0.6466,-0.75329 -1.08714,-1.15189 -1.50052,-1.35764 -2.5593,-1.86438 -3.93832,-1.88491 l -0.18899,-0.002 0.0768,-0.13634 c 0.1802,-0.32002 0.56064,-0.76812 0.84297,-0.99288 0.12661,-0.10079 0.51772,-0.37254 0.86915,-0.60389 0.61992,-0.40808 0.65806,-0.42906 1.27997,-0.70378 0.6325,-0.2794 0.65043,-0.28555 1.34967,-0.46367 0.78602,-0.20024 0.56892,-0.17278 2.03599,-0.25752 0.22102,-0.0127 0.59585,-0.025 0.83298,-0.0271 l 0.43113,-0.004 0.2712,0.25265 c 0.14915,0.13895 0.2804,0.25264 0.29167,0.25264 0.0198,0 0.0684,-0.0622 0.24685,-0.31662 0.0483,-0.0689 0.12204,-0.23274 0.16976,-0.37749 l 0.0843,-0.25573 -0.0188,-0.45056 c -0.0147,-0.35123 -0.0303,-0.48815 -0.071,-0.62106 -0.0919,-0.30034 -0.14036,-0.47492 -0.13184,-0.47492 0.0228,0 0.46336,0.65643 0.60471,0.90113 0.1853,0.32079 0.32078,0.69395 0.40673,1.12033 0.031,0.15405 0.0597,0.28421 0.0636,0.28924 0.004,0.005 0.0883,-0.0635 0.1875,-0.15221 0.12588,-0.11267 0.19972,-0.16139 0.24462,-0.16139 0.0354,0 0.28705,0.0273 0.55927,0.0607 0.47624,0.0583 0.51378,0.067 0.99239,0.22965 0.66186,0.22484 1.38254,0.55607 1.72331,0.79206 0.2477,0.17153 0.57673,0.44755 0.55701,0.46727 -0.005,0.005 -0.2604,-0.0301 -0.56731,-0.0781 l -0.55802,-0.0874 -0.57234,0.0156 c -0.68464,0.0186 -0.95255,0.0631 -1.35974,0.22582 -0.746,0.29814 -1.05561,0.69397 -1.30844,1.67276 l -0.11278,0.43662 0.0103,0.44016 c 0.01,0.42403 0.014,0.45446 0.11327,0.82985 0.0567,0.21432 0.15852,0.55955 0.22629,0.76717 0.15926,0.48787 0.45394,1.07439 0.66482,1.32323 0.0814,0.096 0.301,0.36091 0.48802,0.58863 0.54475,0.6633 0.86791,0.97789 1.44813,1.40975 l 0.49998,0.37214 0.26804,0.0772 c 0.19935,0.0574 0.31713,0.0772 0.45959,0.0772 0.18657,0 0.1963,-0.002 0.37358,-0.11531 0.15256,-0.0966 0.19727,-0.141 0.27612,-0.274 0.14314,-0.24141 0.16566,-0.43301 0.0957,-0.81397 -0.0494,-0.26906 -0.0708,-0.32798 -0.24691,-0.68081 -0.17583,-0.35232 -0.22353,-0.42403 -0.54278,-0.8159 -0.40809,-0.50093 -0.87583,-0.95506 -1.39436,-1.35386 -0.19017,-0.14623 -0.3412,-0.27324 -0.33564,-0.28224 0.006,-0.009 0.11182,-0.0239 0.23614,-0.0331 0.12432,-0.009 0.53287,-0.0445 0.90788,-0.0783 0.62778,-0.0567 0.73203,-0.0731 1.31516,-0.20656 0.79842,-0.1828 1.62254,-0.45077 2.06413,-0.67117 0.63318,-0.31601 1.14949,-0.73073 1.581,-1.26992 0.13177,-0.16465 0.23958,-0.30987 0.23958,-0.32271 0,-0.12416 0.15039,0.18735 0.25331,0.52467 0.18874,0.61867 0.17349,0.47341 0.16758,1.59525 l -0.006,1.01073 -0.14713,0.73064 c -0.14579,0.72401 -0.14938,0.73663 -0.39529,1.38823 l -0.24816,0.65759 -0.38474,0.62627 c -0.28941,0.4711 -0.95143,1.50595 -1.00599,1.57254 -0.003,0.003 -0.17074,0.0423 -0.37254,0.0856 -0.20179,0.0432 -0.37438,0.0862 -0.38354,0.0953 -0.009,0.009 0.0249,0.13116 0.0756,0.27114 0.0717,0.19758 0.1281,0.30234 0.25241,0.46841 0.15178,0.20274 0.17983,0.22656 0.53764,0.45663 0.32983,0.21209 0.41902,0.2569 0.70629,0.35486 l 0.3288,0.11212 -0.29227,0.008 c -0.16074,0.004 -0.47228,-0.006 -0.69231,-0.0216 -0.47275,-0.0351 -0.79846,-0.11649 -1.25348,-0.31308 -0.15931,-0.0688 -0.2922,-0.12216 -0.2953,-0.1185 -0.003,0.003 0.009,0.11626 0.0262,0.25021 0.0314,0.24033 0.0312,0.24436 -0.0231,0.30443 -0.0302,0.0335 -0.19914,0.22145 -0.37525,0.4177 -0.27887,0.31075 -0.37138,0.3945 -0.71663,0.6488 -0.55701,0.41028 -1.26809,0.82763 -1.65198,0.96957 -0.29486,0.10904 -0.71355,0.216 -0.69978,0.17876 0.003,-0.0103 0.17199,-0.19231 0.37373,-0.40441 0.29503,-0.31022 0.42929,-0.47654 0.68641,-0.85033 0.37141,-0.53999 0.51005,-0.82475 0.61576,-1.26478 0.18812,-0.78309 0.0468,-1.26426 -0.59353,-2.02004 -0.25677,-0.30311 -0.32504,-0.36712 -0.59856,-0.56132 -0.42626,-0.30263 -0.94308,-0.56323 -1.47266,-0.74257 -0.37846,-0.12816 -0.46517,-0.14838 -0.77462,-0.18059 -0.19166,-0.0199 -0.57314,-0.0432 -0.84774,-0.0518 -0.45636,-0.0143 -0.54009,-0.0101 -0.97419,0.0489 -0.59891,0.0814 -0.73287,0.12795 -1.41816,0.49285 l -0.52918,0.28179 -0.19226,0.22185 c -0.13656,0.15757 -0.21413,0.27328 -0.26777,0.39941 -0.0741,0.17435 -0.0751,0.18123 -0.0494,0.37751 0.0354,0.27177 0.14926,0.45285 0.38154,0.60675 0.13479,0.0893 0.2185,0.12204 0.47729,0.1866 0.31019,0.0774 0.31853,0.0781 0.71847,0.0622 0.37398,-0.0149 0.44154,-0.0252 0.89174,-0.13639 0.61729,-0.15241 1.2377,-0.38665 1.83552,-0.69299 0.24602,-0.12606 0.4422,-0.21526 0.43596,-0.19821 -0.57417,1.56979 -0.6245,1.72631 -0.76189,2.36908 -0.0956,0.44712 -0.15559,0.8086 -0.20424,1.22992 -0.0622,0.53854 -0.0671,0.63824 -0.0503,1.02291 0.0219,0.50365 0.0769,0.81833 0.21889,1.25428 0.0966,0.29662 0.3813,0.91483 0.43716,0.94935 0.068,0.0421 0.007,0.0611 -0.18796,0.0581 -0.11721,-0.002 -0.24051,-0.007 -0.274,-0.0126 z"
             id="path4521"
             inkscape:connector-curvature="0" />
        </g>
        <g
           id="layer2"
           inkscape:label="Layer 2"
           style="display:none"
           transform="translate(234.91099,-179.09532)">
          <ellipse
             style="display:inline;opacity:1;fill:none;fill-opacity:1;stroke:#000000;stroke-width:0.24939837;stroke-linecap:square;stroke-linejoin:miter;stroke-miterlimit:4;stroke-dasharray:none;stroke-opacity:1;paint-order:markers stroke fill"
             id="path4573"
             cx="-221.41089"
             cy="192.83611"
             rx="11.781551"
             ry="11.78155" />
        </g>
      </g>
      <g
         transform="translate(44.583349,19.329053)"
         id="g4549">
        <g
           inkscape:label="Layer 1"
           id="layer1-7"
           transform="translate(234.91099,-179.09532)">
          <circle
             inkscape:export-ydpi="300"
             inkscape:export-xdpi="300"
             r="13.5001"
             cy="192.59541"
             cx="-221.41089"
             id="path4500-7"
             style="opacity:1;fill:#7c963f;fill-opacity:1;stroke:none;stroke-width:3.60207725;stroke-linejoin:miter;stroke-miterlimit:4;stroke-dasharray:none;stroke-opacity:1" />
          <g
             id="layer1-8"
             inkscape:label="Layer 1"
             transform="matrix(0.44585146,0.01194605,-0.01194605,0.44585146,-294.62625,85.150803)"
             style="fill:#9db663;fill-opacity:1">
            <path
               inkscape:connector-curvature="0"
               id="path4491"
               d="m 162.10816,218.32236 c 0,0 -1.62855,1.83041 -1.50326,3.62613 -1.53681,0.0334 -3.95819,0.71194 -5.72885,2.37402 0,0 -1.44283,-0.20693 -2.54042,-1.28985 -0.14543,0.88825 1.08831,2.90163 1.08831,2.90163 -0.6097,0.92709 -1.51676,2.58956 -1.76734,4.74442 0,0 -1.83788,0.46924 -3.19928,1.8557 0,0 2.22543,-0.59816 3.17758,-0.26407 -0.008,0.45102 0.21289,2.43853 1.13998,4.09226 0,0 -2.28959,1.41363 -2.87424,4.1615 0,0 1.9935,-2.19181 3.91449,-2.37556 0.43014,0.54706 0.7654,1.00931 1.83865,1.77353 -0.21715,0.73499 -0.19922,1.53079 0.0765,2.08204 0.21716,-0.90203 0.32066,-1.31595 0.70487,-1.70015 0.39763,0.41135 0.63649,0.52914 1.16685,0.78807 l -0.25735,-3.03238 c -2.22168,-1.45328 -3.72451,-4.2798 -2.94401,-7.57111 0.63699,-2.68613 3.215,-4.99252 5.99344,-5.56659 1.94128,-0.4011 3.63577,-0.23646 5.91591,0.9245 0,0 1.117,-0.62279 2.78743,-0.61444 0,0 0.28181,-0.41614 0.57413,-0.65836 0,0 -1.71993,-1.379 -2.88923,-1.7632 0,0 -0.0175,-1.69373 -0.64389,-2.48718 0.10858,0.50948 -0.17417,1.71716 -0.58343,2.18488 -0.65147,-0.25057 -1.6936,-0.51431 -3.32228,-0.65629 0,0 -0.52544,-1.95094 -0.12454,-3.5295 z m 18.18701,0.59066 c 0,0 -0.76532,0.59186 -0.99219,1.00407 -0.20263,0.36816 -0.39016,1.01544 -0.39016,1.01544 -2.008,-0.0354 -3.46069,0.5082 -4.68912,1.03973 0,0 -0.97413,-0.34664 -1.39371,-0.6382 -0.25606,-0.17794 -0.76791,-1.00407 -0.76791,-1.00407 0,1.09849 0.81493,2.32699 0.81493,2.32699 -2.2206,1.44102 -3.69809,4.05885 -4.20491,5.13612 -0.8365,1.778 -1.02113,6.85684 -0.35295,8.46046 0.73499,-0.80181 2.15637,-2.4786 2.42363,-2.92127 0.0501,-3.56638 -0.19486,-4.38398 1.80092,-6.82594 2.13715,-2.61495 6.30885,-3.31291 9.31054,-2.43189 2.85318,0.83743 5.0528,3.44896 5.29167,7.18147 0.29938,4.67789 -2.18644,6.30206 -3.1657,6.98097 -2.24747,1.55815 -7.91373,1.07487 -7.91373,1.07487 l 3.20084,3.05925 c 2.40959,-0.2008 4.16985,-0.75624 5.58726,-1.45314 0.29529,0.0591 1.07487,0.9924 1.48828,1.77198 0.24805,-0.48428 0.25147,-0.9237 0.21239,-1.36994 -0.0439,-0.50131 -0.41341,-1.41749 -0.41341,-1.41749 0.33073,-0.16536 1.61813,-1.46465 1.88981,-1.90169 1.23766,0.35194 1.48469,0.55284 1.92546,1.03921 0.34254,0.37797 1.02732,1.72445 1.02732,1.72445 0,0 -0.0647,-1.43736 -0.40152,-2.22054 -0.31488,-0.73216 -1.54719,-1.91358 -1.54719,-1.91358 1.32292,-2.64584 1.02755,-4.25216 0.89762,-5.94124 0,0 0.97724,-0.82464 1.32291,-1.51153 0.1791,-0.3559 0.39001,-0.80371 0.44907,-1.24075 -0.27167,0.37798 -1.44111,0.9924 -1.99626,1.02784 -0.53153,-1.77176 -1.7598,-3.56686 -2.20865,-4.00389 0,0 1.09073,-1.62475 1.42886,-2.56315 0.19931,-0.5532 0.37826,-1.92546 0.37826,-1.92546 -0.53152,1.12212 -1.71291,2.16147 -2.92953,2.88199 -0.89769,-0.73233 -2.09915,-1.34922 -3.29541,-1.8309 -0.87898,-0.35393 -2.07909,-0.53153 -2.68149,-0.57877 0,0 -0.32766,-0.77246 -0.33073,-1.18132 -0.002,-0.29318 0.2248,-0.85008 0.2248,-0.85008 z m -11.76363,7.24297 c -4.02778,0.26203 -8.19745,3.40616 -9.67331,7.11687 -1.53795,3.86682 -0.73478,9.54656 2.08825,12.28608 0.29233,-1.06074 1.50342,-2.63944 1.79575,-2.86494 -1.20272,-1.77067 -1.76332,-5.45337 -0.84387,-7.98453 0.83625,-2.30211 2.89002,-4.25941 5.27875,-5.16144 0.25985,-1.55915 0.96464,-2.82507 1.35443,-3.39204 z m 5.57796,0.27285 c -0.62602,0.24805 -1.88036,1.46171 -2.10478,2.50114 1.97256,0.24805 4.83502,1.582 6.34741,3.45767 1.32938,1.6487 2.07097,3.78168 1.78749,6.09678 1.16936,-0.0945 2.27849,-0.4532 2.70371,-0.70125 0.0476,-3.07334 -0.6773,-5.56042 -2.36936,-7.63416 -1.55884,-1.91047 -4.66948,-3.3363 -6.36447,-3.72018 z m -2.4629,3.34708 c 0,0 -0.23492,2.7531 -0.11679,3.70985 -0.64965,1.32292 -3.93243,5.14099 -5.06636,5.67252 0.73233,-0.0118 4.03955,0.047 4.03955,0.047 0,0 2.08999,-3.19141 2.58692,-4.5713 0.61606,-1.71066 0.60255,-4.61832 0.60255,-4.61832 -0.75595,-0.18898 -1.54405,-0.25075 -2.04587,-0.23978 z m 1.34359,7.2223 c -0.0668,0.23386 -0.7933,1.54489 -1.71204,2.59726 0.35914,0.86026 4.3094,4.35987 5.06945,4.77748 0.9772,-0.67653 1.85453,-1.77926 1.92133,-1.9296 -1.21106,-0.87141 -4.2946,-3.85371 -5.27874,-5.44514 z m -10.46552,2.78949 c 0.16704,1.08578 0.68501,2.155 1.16944,2.81482 l 9.35447,0.0997 c -0.74334,-0.56794 -2.28001,-2.43863 -2.43034,-2.84789 z m 19.61018,2.88251 c -0.86862,0.23386 -2.16304,0.42465 -3.25717,0.23255 0,0 -2.22506,2.89852 -5.5516,3.70882 -4.39509,1.07058 -7.53597,-1.15756 -7.53597,-1.15756 -0.69323,0.91039 -0.9394,2.57366 -0.94775,3.22513 1.08578,0.68488 6.27922,2.00822 10.23555,0.50695 5.4862,-2.0818 6.58922,-5.74749 7.05694,-6.51589 z m -18.87224,0.6103 c -0.4343,0.43431 -1.71039,1.79491 -2.02778,3.83284 0,0 -1.62563,0.40821 -2.51096,0.30799 0.23386,0.26727 1.6382,1.24373 2.50683,1.41077 0.0167,0.3675 0.28875,1.65549 0.50591,2.0898 -0.25057,0.11693 -1.05969,0.68704 -1.37976,1.14928 -0.36454,0.52647 -0.64335,1.32493 -0.54312,1.79265 0,0 1.31344,-1.35379 2.61638,-1.52083 0.0501,0.33409 1.42918,1.96602 2.01383,2.30012 -0.0668,0.25057 -0.0753,0.86833 0.047,1.27589 0.13021,0.43397 0.67231,1.21181 0.67231,1.21181 0.13363,-0.7517 0.20356,-1.15731 0.67128,-1.54151 0,0 1.85638,0.65457 2.76986,0.70487 1.19419,0.0658 3.19248,-0.19488 3.50986,-0.39533 -3.49121,-0.53454 -6.42503,-2.21167 -7.56491,-4.97437 -0.99075,-2.40124 0.0958,-5.60913 1.66605,-7.59695 z m 18.07229,2.51871 c -0.40925,0.59301 -1.10361,1.30492 -2.66547,2.32389 0.025,2.47224 -1.88157,4.3653 -3.34089,4.77749 0,0 -0.32585,-0.31735 -0.30075,-0.5178 -2.18731,0.72143 -3.42315,-0.26529 -4.63538,0.35915 -0.88042,0.53161 -0.008,1.76217 -0.008,1.76217 0,0 0.82917,-1.44732 3.89433,0.51935 -0.12993,0.2126 -0.0971,2.15933 -2.94969,2.3306 -0.0236,0.16536 0.26847,1.35288 0.88419,1.40767 0.76016,0.0677 3.72284,-1.97286 5.47098,-3.27216 0,0 -0.75004,-0.0233 -0.86817,-0.2005 0.79729,-0.48428 1.51907,-1.17549 2.02107,-1.93735 0,0 1.0982,0.15126 1.85415,1.20251 0.0236,-1.06306 -0.62152,-2.3216 -0.92863,-2.53421 0.39571,-0.44885 0.91926,-1.46902 1.03147,-1.98283 0,0 2.17927,0.12654 3.22461,-0.83612 0,0 -2.07142,0.0932 -2.89233,-0.86351 0.0472,-0.0827 0.18665,-0.9882 0.11575,-1.21853 0.32482,-0.23623 0.9422,-0.42366 1.29656,-0.41187 -0.12993,-0.14173 -0.70797,-0.49131 -1.16272,-0.43821 z m -6.43217,7.49153 c -0.24214,0.46066 -0.99219,0.8568 -0.99219,0.8568 -0.36026,-0.0591 -1.26344,-0.67962 -1.29294,-0.77411 0.36026,0.0472 1.81857,-0.0236 2.28513,-0.0827 z"
               style="fill:#9db663;fill-opacity:1;fill-rule:evenodd;stroke:none;stroke-width:0.1;stroke-linecap:butt;stroke-linejoin:miter;stroke-miterlimit:4;stroke-dasharray:none;stroke-opacity:1" />
          </g>
        </g>
      </g>
      <g
         transform="translate(71.583549,19.329053)"
         id="g4581">
        <g
           inkscape:label="Layer 1"
           id="layer1-1"
           transform="translate(234.91099,-179.09532)">
          <circle
             inkscape:export-ydpi="300"
             inkscape:export-xdpi="300"
             r="13.5001"
             cy="192.59541"
             cx="-221.41089"
             id="path4500-72"
             style="opacity:1;fill:#a0a6cb;fill-opacity:1;stroke:none;stroke-width:3.60207725;stroke-linejoin:miter;stroke-miterlimit:4;stroke-dasharray:none;stroke-opacity:1" />
          <path
             style="display:inline;fill:#cfd2e6;fill-opacity:1;stroke-width:0.04406279"
             d="m -221.93732,203.36688 c -0.0222,-0.0585 -0.0936,-0.69124 -0.15881,-1.40616 -0.18681,-2.04806 -0.30192,-2.796 -0.55938,-3.6345 -0.28559,-0.93007 -0.60883,-1.3446 -1.0485,-1.3446 -0.38314,0 -0.50312,0.18247 -0.50702,0.7711 -0.001,0.21811 0.013,0.50066 0.032,0.6279 0.0198,0.13296 0.0177,0.23133 -0.005,0.23133 -0.0632,0 -0.25683,-0.47824 -0.33363,-0.82386 -0.0488,-0.21971 -0.0705,-0.53905 -0.0705,-1.03945 0,-0.5807 -0.0175,-0.79059 -0.089,-1.07069 -0.19491,-0.76206 -0.73782,-1.23436 -1.47513,-1.28323 -0.49758,-0.033 -0.7711,0.1464 -0.7711,0.50576 0,0.17102 0.1184,0.55838 0.25022,0.81871 0.19696,0.38895 0.0411,0.31579 -0.27707,-0.13 -0.22551,-0.31603 -0.4226,-0.73038 -0.51412,-1.08081 -0.0637,-0.24373 -0.063,-0.24819 0.13395,-0.92374 0.16835,-0.57745 0.19871,-0.74133 0.20332,-1.09742 0.005,-0.37537 -0.007,-0.44454 -0.11795,-0.66981 -0.1469,-0.29916 -0.42151,-0.52019 -0.7769,-0.62534 -0.34434,-0.1019 -0.46222,-0.0905 -0.63515,0.0613 -0.1748,0.15347 -0.24913,0.38936 -0.24913,0.79064 0,0.34324 -0.0704,0.34534 -0.11004,0.004 -0.068,-0.58681 0.12007,-1.26468 0.50832,-1.83114 l 0.12202,-0.17802 -0.023,-0.63714 c -0.0601,-1.6636 0.36389,-3.31728 1.16842,-4.55686 0.27402,-0.4222 1.09266,-1.23649 1.52889,-1.52075 0.46013,-0.29983 1.04335,-0.57652 1.56423,-0.74207 0.41344,-0.13141 1.27931,-0.31769 1.46733,-0.31568 0.0564,5.1e-4 -0.10603,0.10732 -0.38779,0.25492 -1.46017,0.76483 -2.45205,1.70858 -3.0026,2.85689 -0.25668,0.53537 -0.3685,0.98422 -0.39908,1.60188 -0.0395,0.79866 0.15327,1.44505 0.54133,1.8149 0.15003,0.14299 0.19455,0.21735 0.19455,0.32495 0,0.0768 0.0419,0.19273 0.0931,0.25776 0.0826,0.10497 0.11841,0.11676 0.31904,0.10509 0.26781,-0.0156 0.30763,-0.0915 0.15572,-0.29696 -0.0544,-0.0736 -0.0873,-0.14524 -0.0732,-0.15935 0.0493,-0.0493 0.37211,0.15197 0.53785,0.33544 0.24499,0.27116 0.33939,0.51708 0.34259,0.89238 0.004,0.35329 -0.0775,0.5979 -0.25893,0.78738 -0.11723,0.1224 -0.35211,0.24209 -0.39363,0.20059 -0.0131,-0.0131 0.007,-0.11559 0.0455,-0.2278 0.0381,-0.11216 0.0692,-0.30212 0.0692,-0.42207 0,-0.17629 -0.0232,-0.24356 -0.12117,-0.35108 -0.17173,-0.18847 -0.37021,-0.21821 -0.51175,-0.0767 -0.33361,0.3336 -0.24889,1.41091 0.19473,2.47655 0.34372,0.82565 1.27037,1.90852 1.91513,2.238 0.20418,0.10438 0.58626,0.50215 0.80072,0.83367 0.37977,0.58708 0.6173,1.33424 0.71172,2.23885 0.13116,1.25665 0.17882,5.35385 0.0636,5.46886 -0.0419,0.0418 -0.0622,0.0303 -0.0936,-0.053 z m 0.94575,-0.0897 c -0.0472,-0.23567 -0.0274,-2.32553 0.0372,-3.91608 0.0476,-1.17689 0.0828,-1.62861 0.15554,-2.0004 0.23834,-1.21814 0.73137,-2.03311 1.55341,-2.56775 0.3843,-0.24994 1.05127,-0.90364 1.30102,-1.27511 0.66648,-0.99134 1.0221,-2.28077 0.84321,-3.05742 -0.0783,-0.3401 -0.31755,-0.48711 -0.5715,-0.3512 -0.20811,0.11134 -0.27865,0.52035 -0.15178,0.87995 0.0893,0.2529 0.085,0.26935 -0.0551,0.21642 -0.48252,-0.18229 -0.70703,-0.90613 -0.45662,-1.47221 0.11523,-0.26061 0.3572,-0.524 0.59308,-0.64571 0.20601,-0.10627 0.24599,-0.0811 0.12193,0.0765 -0.1718,0.21842 -0.10815,0.32685 0.19198,0.32685 0.19963,0 0.32886,-0.11811 0.3616,-0.33047 0.0178,-0.11558 0.0822,-0.23694 0.18703,-0.3525 0.33574,-0.37016 0.51859,-0.84293 0.56238,-1.45407 0.13435,-1.87549 -1.18656,-3.75074 -3.44893,-4.89636 -0.22721,-0.11511 -0.40548,-0.21684 -0.39615,-0.22617 0.0268,-0.0268 0.80713,0.11464 1.17112,0.21232 2.08879,0.56032 3.52251,1.912 4.20334,3.96286 0.30215,0.91015 0.45348,2.02931 0.40917,3.02602 -0.0232,0.5214 -0.0175,0.59109 0.0556,0.68401 0.16199,0.20594 0.39626,0.6799 0.46305,0.93683 0.0735,0.28273 0.0962,1.21349 0.0297,1.21349 -0.0212,0 -0.0474,-0.16359 -0.0584,-0.36352 -0.0228,-0.41794 -0.10462,-0.61196 -0.31284,-0.74176 -0.17617,-0.1098 -0.435,-0.0846 -0.7674,0.0748 -0.32746,0.15698 -0.55782,0.43607 -0.65438,0.79276 -0.10013,0.36995 -0.0538,0.75566 0.19428,1.61512 0.19115,0.66237 0.19113,0.66528 -0.0121,1.22096 -0.14517,0.39691 -0.67336,1.13028 -0.75517,1.04849 -0.0143,-0.0143 0.005,-0.0723 0.0414,-0.12898 0.12229,-0.18669 0.29209,-0.69663 0.29209,-0.87726 0,-0.39181 -0.20908,-0.54879 -0.72703,-0.54582 -0.3678,0.002 -0.71937,0.15046 -1.02571,0.43284 -0.4449,0.41008 -0.58338,0.88199 -0.5749,1.95912 0.005,0.62987 -0.008,0.78764 -0.0919,1.10544 -0.0537,0.2039 -0.13645,0.44678 -0.18388,0.53977 -0.0942,0.18469 -0.19995,0.23207 -0.15599,0.0699 0.063,-0.23224 0.0805,-0.81824 0.0315,-1.04718 -0.0701,-0.3264 -0.22252,-0.484 -0.46837,-0.484 -0.83457,0 -1.35354,1.61845 -1.65186,5.15154 -0.0919,1.0876 -0.12999,1.32568 -0.21248,1.32568 -0.0218,0 -0.052,-0.0619 -0.0672,-0.13769 z m -1.83411,-3.21805 c -0.10909,-0.0229 -0.38664,-0.10213 -0.61688,-0.17617 -2.75157,-0.8847 -4.62494,-3.44548 -4.62633,-6.32395 -4.9e-4,-0.81962 0.19196,-1.9721 0.33855,-2.02835 0.0387,-0.0149 0.12114,0.0303 0.20094,0.11016 l 0.13529,0.1353 -0.0731,0.3446 c -0.12118,0.57143 -0.15724,0.92923 -0.16349,1.62243 -0.006,0.65107 -0.004,0.67032 0.17517,1.28857 0.35767,1.2393 0.79129,2.01724 1.58816,2.84919 0.81476,0.85064 1.84246,1.44604 2.97473,1.72344 0.41739,0.10226 0.44679,0.12829 0.45912,0.40673 0.005,0.11146 -0.055,0.11885 -0.39218,0.0481 z m 2.47062,-0.0702 c 0.006,-0.25142 0.0459,-0.28306 0.48448,-0.38888 0.76793,-0.18525 1.59411,-0.58337 2.27897,-1.09819 0.37758,-0.28383 1.10051,-1.05165 1.37117,-1.45633 0.43365,-0.64833 0.6874,-1.25884 1.00633,-2.42125 0.0761,-0.27707 0.0814,-0.39356 0.0521,-1.14563 -0.0202,-0.52077 -0.0611,-0.96209 -0.10827,-1.16766 -0.13264,-0.57849 -0.13329,-0.55864 0.0231,-0.70472 0.078,-0.0729 0.15877,-0.13247 0.17951,-0.13247 0.0449,0 0.13502,0.29207 0.24635,0.79848 0.0642,0.29201 0.0812,0.55798 0.0812,1.27247 0,0.78471 -0.0135,0.96333 -0.10238,1.36068 -0.29853,1.33333 -0.86737,2.36713 -1.83438,3.33376 -0.90251,0.90214 -1.86905,1.45895 -3.05865,1.76201 -0.56211,0.14321 -0.6234,0.14199 -0.61946,-0.0123 z m -1.0959,-3.21115 c -0.11381,-0.60024 -0.52158,-1.40251 -0.97243,-1.91349 l -0.23664,-0.26818 0.10862,-0.1181 c 0.0597,-0.065 0.23561,-0.33423 0.39086,-0.59837 0.23214,-0.39497 0.35389,-0.54648 0.68557,-0.85308 0.42512,-0.39297 0.8238,-0.84716 0.94979,-1.08199 0.10968,-0.20439 0.0985,-0.53719 -0.0271,-0.80686 -0.0579,-0.12426 -0.12681,-0.23929 -0.15323,-0.25561 -0.0264,-0.0163 -0.16513,-0.0164 -0.30825,-2e-4 -0.21628,0.0245 -0.26827,0.0472 -0.30797,0.13426 -0.0657,0.14429 -0.004,0.28414 0.19921,0.4517 0.12987,0.10709 0.14864,0.13817 0.0833,0.13817 -0.0463,0 -0.12524,0.0369 -0.17527,0.0821 -0.05,0.0452 -0.18755,0.10544 -0.30558,0.13417 -0.53897,0.13087 -1.14502,0.49912 -1.6532,1.00451 -0.17909,0.17812 -0.33422,0.31524 -0.34474,0.30472 -0.0106,-0.0106 0.0132,-0.0815 0.0526,-0.15777 0.11205,-0.21666 0.13697,-0.55045 0.051,-0.68177 -0.0396,-0.0605 -0.0721,-0.11771 -0.0721,-0.12723 0,-0.009 0.12394,-0.0291 0.2754,-0.0436 0.15147,-0.0145 0.36946,-0.0589 0.48443,-0.0986 0.29629,-0.10214 0.63648,-0.42373 0.78913,-0.74596 l 0.12571,-0.26535 -0.24537,-0.0133 c -0.28113,-0.0152 -0.66052,0.0823 -0.92688,0.23847 -0.2543,0.0877 -0.68171,0.61263 -0.81569,0.80564 -0.0374,-0.13353 -0.0152,-0.27338 0.0742,-0.53554 0.0774,-0.22688 0.064,-0.2364 0.1361,-0.36033 0.0125,0.12519 0.2238,0.0951 0.24229,-0.0323 0.0106,-0.0724 -0.0874,-0.25187 -0.18324,-0.25288 0.17121,-0.15077 0.32851,-0.23621 0.69298,-0.41803 0.43985,-0.21943 0.9381,-0.41582 1.35585,-0.53442 0.19389,-0.0551 0.38625,-0.11381 0.42749,-0.13047 0.11712,-0.0474 0.18137,-0.30782 0.14826,-0.60054 -0.018,-0.15939 -0.0127,-0.25925 0.0137,-0.25925 0.13673,0 0.53414,0.75156 0.53414,1.01011 0,0.0981 0.312,0.31178 0.45521,0.31178 0.17832,0 0.39628,-0.18204 0.51417,-0.42946 0.0606,-0.12714 0.12413,-0.23125 0.14121,-0.23133 0.055,-2.5e-4 0.0912,0.30958 0.0672,0.57444 -0.0129,0.14159 -0.0731,0.36621 -0.13402,0.49916 l -0.11063,0.24174 0.0816,0.23452 c 0.0449,0.12899 0.0936,0.30888 0.10827,0.39976 0.0249,0.15426 0.0368,0.16524 0.18028,0.16524 0.0845,0 0.22482,-0.0297 0.31183,-0.0661 0.22092,-0.0923 0.2498,-0.0849 0.21486,0.0551 -0.0696,0.27904 -0.36735,0.54392 -0.71092,0.63254 -0.14501,0.0374 -0.19584,0.0787 -0.2566,0.20826 -0.0416,0.0889 -0.12721,0.2369 -0.19009,0.3289 -0.10697,0.15652 -0.10957,0.17202 -0.0405,0.24116 0.0409,0.0409 0.17684,0.085 0.30482,0.0988 l 0.23094,0.025 -0.18692,0.17845 c -0.20917,0.19965 -0.45911,0.2933 -0.73053,0.27371 -0.15784,-0.0118 -0.1905,0.002 -0.24782,0.10449 -0.0546,0.0973 -0.0567,0.14341 -0.0121,0.26655 0.0296,0.0819 0.0539,0.18171 0.0539,0.22178 0,0.0401 0.0609,0.10426 0.13524,0.14278 l 0.13522,0.0699 -0.31705,0.33376 c -0.24923,0.26237 -0.36257,0.4291 -0.52982,0.77941 -0.19579,0.41011 -0.35193,0.9046 -0.41549,1.31589 -0.014,0.0909 -0.04,0.16524 -0.0576,0.16524 -0.0176,0 -0.057,-0.1314 -0.0874,-0.29199 z m -0.74549,-6.2977 c 0,0 0.17618,0.0118 0.26209,0.0236 0.0783,0.0106 0.22868,0.0445 0.22868,0.0445 m 0,0 c 0.17299,-0.19435 0.3515,-0.28264 0.59601,-0.39951 0,0 -0.46159,0.0545 -0.60824,0.11264 -0.27961,0.1111 -0.47854,0.21881 -0.47854,0.21881 m -3.59796,-1.73243 -0.12114,-0.12645 0.23407,-0.1992 c 1.66213,-1.41449 4.03466,-1.90959 6.17644,-1.28893 0.81627,0.23654 1.8335,0.78345 2.42081,1.3015 l 0.21159,0.18663 -0.0974,0.10367 c -0.167,0.17778 -0.23478,0.17053 -0.51086,-0.0546 -1.04854,-0.85502 -2.29634,-1.31706 -3.69244,-1.36727 -1.51558,-0.0545 -2.94329,0.41139 -4.08446,1.33283 -0.1623,0.13104 -0.32217,0.23825 -0.35529,0.23825 -0.0331,0 -0.11476,-0.0568 -0.18133,-0.12643 z"
             id="path4511"
             inkscape:connector-curvature="0"
             sodipodi:nodetypes="cssscsscsccsccsscccsssccccsccccscsccccccccsscccsccccccssccccsssccsccccccccccsccccccccscccccssssscccccccccscsccccccsccscscscccccccccscsccccssccccccssccccccccsccsccssscccccccscccccccccccssccsccscccscccsccccscccsscsc" />
        </g>
        <g
           id="layer2-8"
           inkscape:label="Layer 2"
           style="display:none"
           transform="translate(234.91099,-179.09532)">
          <ellipse
             style="display:inline;opacity:1;fill:none;fill-opacity:1;stroke:#000000;stroke-width:0.24939837;stroke-linecap:square;stroke-linejoin:miter;stroke-miterlimit:4;stroke-dasharray:none;stroke-opacity:1;paint-order:markers stroke fill"
             id="path4573-04"
             cx="-221.41089"
             cy="192.83611"
             rx="11.781551"
             ry="11.78155" />
        </g>
      </g>
    </g>
    <g
       id="g4738"
       transform="translate(-19.169743,-5.2916667)">
      <g
         transform="translate(36.752892,51.62092)"
         id="g4615">
        <g
           inkscape:label="Layer 1"
           id="layer1-5"
           transform="translate(234.91099,-179.09532)">
          <circle
             inkscape:export-ydpi="300"
             inkscape:export-xdpi="300"
             r="13.5001"
             cy="192.59541"
             cx="-221.41089"
             id="path4500-0"
             style="opacity:1;fill:#d71922;fill-opacity:1;stroke:none;stroke-width:3.60207725;stroke-linejoin:miter;stroke-miterlimit:4;stroke-dasharray:none;stroke-opacity:1" />
          <g
             transform="matrix(0.41361949,0,0,0.41361949,-385.77332,88.43823)"
             id="layer1-7-4"
             inkscape:label="Layer 1"
             style="opacity:0.98999999">
            <path
               sodipodi:nodetypes="ccscccsccccccccccccsccccccccccccccscccscccsczssccsccscccccccccccccssccsccccccccsccccscscccccscczc"
               inkscape:connector-curvature="0"
               id="path4496"
               d="m 397.99366,262.06766 c -0.22278,-5.40835 -4.25862,-9.3193 -6.53968,-11.40468 0.0556,-0.0415 1.31507,-0.24476 1.95315,-0.48372 1.9609,-0.73424 3.19218,-1.68309 2.29762,-2.90647 -0.56232,-0.76902 -1.37858,-0.42548 -1.33488,0.56181 0.0149,0.33797 0.0246,0.55931 0.16699,0.8818 -0.29027,0.0477 -0.5099,0.10145 -0.7848,0.11149 -0.7496,0.0274 -1.33492,0.0585 -3.04373,-0.70356 -1.16998,-0.52175 -1.32188,-0.44937 -1.32188,-0.44937 0,0 -1.30183,0.79386 -1.74693,1.03342 0.0427,-0.43847 0.19544,-1.66668 0.30214,-2.25018 -0.75124,-1.00501 -0.96518,-0.94044 -1.58046,-1.60878 -1.47954,-1.29897 -1.58488,-1.30286 -1.58488,-1.30286 0,0 -1.79708,0.07 -2.13828,0.13299 0.17914,-0.23519 1.64479,-1.86725 1.64479,-1.86725 0,0 -0.13261,0.12265 -0.62515,-1.81702 -0.46142,-1.81695 -0.79758,-2.45178 -0.79758,-2.45178 l -1.75605,-0.5619 1.70382,-0.48939 c 0,0 0.23955,-0.33072 0.47852,-1.2122 0.50602,-1.86653 2.57206,-3.42311 2.99214,-3.63943 -0.0937,0.40341 -0.38996,0.72618 -0.74917,1.45206 -1.27976,2.58593 -1.05122,4.99353 0.6911,7.28042 1.90652,2.5024 5.45903,4.2598 7.55008,3.73498 0.89143,-0.22373 2.17707,-1.43798 1.85192,-1.74908 -0.127,-0.12151 -0.94529,-0.50625 -1.81841,-0.85497 -1.13242,-0.45227 -2.39176,-0.81778 -2.39176,-0.81778 0,0 -0.63813,0.31912 -0.9893,0.39228 0.0347,-0.3361 0.1359,-1.03889 0.1359,-1.03889 0,0 -0.2018,-0.58249 -0.52384,-1.04576 -0.28243,-0.40627 -0.67788,-1.12007 -0.87877,-1.58622 -0.27251,-0.63232 -0.6469,-1.01699 -0.6469,-1.01699 l -1.24077,0.0125 1.0695,-1.19063 c 0,0 -0.0228,-1.55474 0.0837,-2.32184 0.11187,-0.80604 0.48884,-2.28877 0.48884,-2.28877 0,0 -0.63459,-0.67812 -0.78394,-0.85474 0.55965,-0.0547 1.42857,0.0248 1.42857,0.0248 0,0 1.75066,-1.39097 2.35645,-1.67202 1.12138,-0.52025 2.35021,-0.8478 2.35021,-0.8478 0,0 -0.96172,0.83801 -1.54827,1.24449 -1.1327,0.78496 -2.16149,2.10534 -2.64858,3.40299 -0.65072,1.73359 0.3041,4.74441 1.95003,5.8536 0.91392,0.61589 4.07463,0.72274 4.07463,0.72274 -0.0579,0.58704 -0.0367,0.018 -0.0367,0.80243 0,0.78438 0.089,1.12505 0.81781,1.37046 0.50922,0.17148 0.823,0.18608 1.32291,-0.0342 0.34366,-0.15143 0.57125,-1.6497 0.57125,-2.04622 0.87644,0.11954 0.43757,0.10114 1.49663,0.0342 1.95414,-0.14134 3.2588,-0.96853 4.0344,-2.5579 1.38404,-2.8362 0.30615,-5.89882 -2.76116,-7.84529 -0.40472,-0.25683 -1.10331,-0.79523 -1.10331,-0.79523 0,0 1.40632,0.21995 2.65077,1.07415 0.64955,0.44586 1.59521,1.28536 2.00063,1.49207 0.36137,0 1.00258,-0.0129 1.3577,-0.0327 -0.24898,0.35929 -0.63023,0.95954 -0.63023,0.95954 l 0.45903,2.21086 0.15502,2.23425 c 0,0 0.43683,0.63044 0.95525,1.30951 -0.54644,0.029 -0.83056,0.0655 -1.29734,0.0655 -0.25816,0.48613 -0.62674,1.24086 -1.03502,1.93729 -0.5817,0.98657 -0.5174,0.96276 -0.86251,1.50685 0.0845,0.33665 0.12219,0.55721 0.24798,1.10269 -0.3703,-0.14907 -0.87574,-0.40315 -1.39794,-0.48665 -0.70131,0.30459 -0.94586,0.41085 -1.99003,0.83127 -1.76632,0.71128 -1.90887,0.83449 -1.70576,1.47445 0.38416,1.21036 3.38784,1.52784 5.3712,0.56771 1.64004,-0.79393 3.80872,-2.8691 4.57059,-4.37352 0.90852,-1.79397 0.88182,-4.0203 -0.0713,-5.9462 -0.38292,-0.77376 -0.91226,-1.64683 -0.91226,-1.64683 0,0 1.56413,0.635 2.56659,2.24849 0.66614,1.07216 1.0443,2.65525 1.0443,2.65525 l 1.73959,0.49577 -1.85485,0.83385 c 0,0 -0.27372,0.50204 -0.53764,1.79532 -0.16305,0.79891 -0.37773,1.70048 -0.47707,2.00349 -0.12489,0.38091 -0.0921,0.60055 -0.0921,0.60055 0,0 0.88624,1.02197 1.18718,1.28493 -0.55265,0.0174 -1.36751,0.0537 -1.89454,0.0537 -0.52859,0.42095 -0.44313,0.28452 -1.6466,1.41245 -1.44132,1.35086 -1.29404,1.48676 -1.29404,1.48676 0,0 -0.0103,1.87647 0.0353,2.33835 -0.28184,-0.18709 -1.78624,-1.04931 -1.78624,-1.04931 0,0 -0.11346,0.0634 -1.30686,0.57677 -0.70323,0.30252 -1.81909,0.55003 -2.4797,0.55003 -0.58751,0 -1.05034,-0.0246 -1.21985,-0.0492 0.14414,-0.37685 0.16901,-0.31156 0.16722,-0.69319 -0.002,-0.5217 0.01,-0.85763 -0.30152,-1.1159 -0.39599,-0.32864 -0.50989,-0.29952 -0.94885,0.24257 -0.27436,0.33883 -0.49884,0.83684 -0.49884,1.10669 0.6803,1.78629 2.83187,2.33096 4.36623,2.99911 -0.11823,0.31618 -0.43399,0.49809 -0.51622,0.8337 -0.62057,2.71634 0.32285,5.54786 0.22311,8.05334 -0.11486,2.8851 -0.10885,2.82574 -0.95581,5.00532 -3.32495,6.93195 -7.47428,9.34865 -11.94134,12.19612 4.91526,-4.43913 8.34163,-10.07343 8.11885,-15.48178 z"
               style="fill:#fb7178;fill-opacity:1;stroke-width:0.26458335" />
          </g>
        </g>
      </g>
      <g
         transform="translate(63.753092,51.62092)"
         id="g4649">
        <g
           inkscape:label="Layer 1"
           id="layer1-73"
           transform="translate(234.91099,-179.09532)">
          <circle
             inkscape:export-ydpi="300"
             inkscape:export-xdpi="300"
             r="13.5001"
             cy="192.59541"
             cx="-221.41089"
             id="path4500-1"
             style="opacity:1;fill:#10a393;fill-opacity:1;stroke:none;stroke-width:3.60207725;stroke-linejoin:miter;stroke-miterlimit:4;stroke-dasharray:none;stroke-opacity:1" />
          <g
             transform="matrix(0.12445289,0,0,0.12445289,-254.67607,147.06504)"
             id="layer1-7-2"
             inkscape:label="Layer 1"
             style="fill:#56c3b8;fill-opacity:1">
            <path
               sodipodi:nodetypes="cccccssssscccccccscssscscscccscccccsccccsscscccccccccscccccscccscsscccscccccscscccscscccccsccscccsccccssccscscccccccssccccccsccssccscccccccccccccssccsccccccscscccccsccscccsscsccccccscsscccsccccccccccccccccc"
               inkscape:connector-curvature="0"
               id="path4524"
               d="m 214.88959,423.22624 c -0.36096,-0.43492 -0.27359,-1.15776 0.9819,-8.12364 l 0.41923,-2.32597 2.68249,-2.15922 c 4.68643,-4.12753 10.05409,-7.19399 12.8958,-10.10624 6.97091,-7.15452 12.51043,-12.95359 14.1092,-14.77027 1.36134,-1.54689 1.68781,-1.78211 2.47355,-1.78211 1.77424,0 3.49873,1.39442 3.49873,2.82907 0,0.27415 -1.16601,1.69084 -2.59113,3.1482 -1.42512,1.45736 -3.80912,4.19124 -5.29778,6.0753 -1.48866,1.88406 -3.18955,3.96134 -3.77976,4.61618 -4.92231,4.82694 -7.64006,11.74091 -10.77319,16.40325 -1.52186,2.25608 -2.8568,4.20232 -2.96653,4.32497 -0.23765,0.26566 -9.6079,2.2878 -10.60869,2.28941 -0.38236,5.3e-4 -0.85208,-0.1879 -1.04382,-0.41893 z m 93.25387,-1.6871 c -0.18297,-0.0562 -1.80966,-2.81354 -2.924,-4.95637 -0.77165,-1.48384 -1.94174,-3.60914 -2.6002,-4.72288 -1.61955,-2.73936 -6.33813,-9.20553 -7.80627,-10.69743 -0.65484,-0.66545 -2.44078,-2.80645 -3.96875,-4.75779 -1.52797,-1.95134 -3.99851,-4.80353 -5.4901,-6.33819 -1.49159,-1.53466 -2.71198,-3.01232 -2.71198,-3.28369 0,-1.42464 1.73189,-2.82813 3.47957,-2.81975 0.80011,0.004 1.24534,0.39108 4.59022,3.99232 2.03729,2.19343 4.06135,4.39955 4.49792,4.90247 0.43656,0.50293 2.77535,2.91857 5.1973,5.3681 3.55062,3.59105 5.34429,5.15029 9.26042,8.05017 2.67127,1.97807 5.70579,4.24444 6.74338,5.03638 l 1.88651,1.43991 c 0.84169,7.48692 1.36278,11.18325 1.36278,11.18325 -0.31838,0.88665 -4.07278,0.10519 -11.5168,-2.3965 z m -45.30163,-0.14467 c -0.73293,-0.80194 -1.7487,-2.28979 -2.25725,-3.30634 -1.07704,-2.15288 -1.88404,-5.44458 -1.64594,-6.71373 0.19849,-1.05807 -0.44396,-7.44335 -1.16903,-11.61893 -1.5784,-9.08971 -3.7426,-14.12518 -7.18214,-16.71073 -2.15047,-1.61654 -3.193,-1.64772 -4.82404,-0.14428 -1.38093,1.2729 -2.13581,1.34191 -4.08015,0.373 -2.50924,-1.2504 -3.86486,-3.77144 -3.70375,-6.88785 l 0.0803,-1.5541 1.45521,-0.72263 c 2.97861,-1.47912 4.46979,-4.17084 4.09578,-7.39329 -0.13034,-1.123 -0.34351,-1.72667 -0.71783,-2.03281 -1.908,-1.56042 -1.95489,-2.15122 -0.28537,-3.59558 4.1607,-3.59956 5.13919,-5.09229 6.2749,-9.57263 1.46552,-5.78146 3.52718,-10.75267 4.84562,-11.68409 1.15307,-0.81461 4.32983,-2.34927 5.91208,-2.85608 1.92227,-0.71075 4.02751,-1.74697 5.1934,-3.28581 1.07863,-1.44478 1.54258,-1.67224 3.14199,-1.5404 0.92461,0.0762 1.13932,0.24764 2.17722,1.73821 1.26666,1.82854 3.51109,2.55503 5.38215,3.23887 1.21679,0.44156 3.09609,1.30731 4.17623,1.92391 1.79349,1.0238 2.04047,1.27029 2.84651,2.84086 0.9586,1.86785 2.63596,6.78696 3.48995,10.23481 0.93575,3.77795 2.2751,5.8505 5.25682,8.1346 1.5151,1.16061 1.80208,1.50937 1.87637,2.28031 0.0747,0.77562 -0.0563,1.03107 -0.88686,1.72834 -0.90227,0.7575 -0.98505,0.94866 -1.11571,2.57643 -0.0853,1.06308 -0.007,2.2365 0.19756,2.96793 0.45447,1.62321 2.25859,3.5969 3.9549,4.32663 1.54154,0.66315 1.75721,1.15486 1.49291,3.40366 -0.41196,3.50513 -2.52196,5.90527 -5.55713,6.32129 -1.11637,0.15301 -1.22552,0.10711 -2.21256,-0.93048 -0.87748,-0.92243 -1.20145,-1.09143 -2.09219,-1.09143 -1.26022,0 -3.05205,1.09305 -4.48838,2.73802 -1.32672,1.51942 -3.08502,5.31377 -4.03778,8.7134 -1.43918,5.13526 -2.73008,14.24021 -2.61534,18.44649 0.10046,3.68281 -1.22934,6.59054 -4.824,10.54818 -0.80638,0.88779 -1.31091,0.3721 -0.8105,-0.82844 0.19629,-0.4709 0.41286,-1.30268 0.48128,-1.84838 0.10323,-0.82343 0.0438,-0.99219 -0.34937,-0.99219 -0.26057,0 -0.74518,-0.25499 -1.07692,-0.56664 l -0.60316,-0.56664 -0.47223,0.82955 c -0.59244,1.04075 -1.00712,1.05136 -1.53055,0.0391 -0.47948,-0.92722 -0.79811,-0.99802 -1.19063,-0.26459 -0.15576,0.29105 -0.5044,0.52917 -0.77475,0.52917 -0.94925,0 -1.10628,1.67214 -0.25826,2.75022 0.5289,0.67239 0.53411,1.48311 0.01,1.48311 -0.13549,0 -0.84601,-0.65613 -1.57894,-1.45807 z m 6.35136,-14.44914 c 0.25864,-0.78265 0.97284,-2.46207 1.58712,-3.73206 l 1.11687,-2.30907 -0.51449,-1.24085 c -0.28297,-0.68247 -0.65147,-1.28647 -0.81888,-1.34222 -0.185,-0.0616 -0.74225,1.22701 -1.4207,3.28533 -1.15041,3.4902 -1.62918,4.3716 -2.11223,3.88856 -0.14807,-0.14807 -0.78209,-1.80262 -1.40893,-3.67677 -0.62683,-1.87415 -1.26273,-3.44856 -1.4131,-3.49868 -0.29375,-0.0979 -1.14586,1.88505 -1.14586,2.66658 0,0.26026 0.31476,1.01031 0.69947,1.66677 0.38471,0.65645 1.01739,2.11167 1.40596,3.23382 0.38856,1.12215 0.77668,2.15406 0.86248,2.29314 0.0858,0.13908 0.72661,0.23838 1.42402,0.22066 l 1.26802,-0.0322 z m -12.21561,-32.00525 c 0,-0.6098 -3.88765,-5.92183 -4.84185,-6.61583 -1.47415,-1.07217 -4.94513,-2.46556 -5.28791,-2.12278 -0.35234,0.35233 0.74764,2.99641 2.27736,5.47426 1.09616,1.77556 1.11896,1.79348 2.69302,2.11687 0.87313,0.17939 2.18281,0.56346 2.91042,0.85349 1.52609,0.60831 2.24896,0.7028 2.24896,0.29399 z m 23.00295,-0.3503 c 0.97241,-0.35076 2.33107,-0.72219 3.01924,-0.82539 1.49566,-0.22429 1.96538,-0.75531 3.73384,-4.2211 1.78772,-3.50354 1.63665,-3.97279 -0.94173,-2.92511 -2.98221,1.21179 -3.97639,2.04007 -6.02049,5.01587 -2.7648,4.02499 -2.76456,4.0284 0.20914,2.95573 z m -61.71116,21.73828 c -0.65207,-0.48488 -1.9154,-4.19218 -2.40516,-7.05808 -0.23442,-1.37171 -0.4264,-3.93155 -0.42663,-5.68854 -0.0313,-2.25827 0.58322,-3.49913 1.16447,-5.70806 0.81755,-3.11754 2.82011,-5.89049 4.38319,-8.33438 1.64882,-2.63506 4.49609,-5.45711 7.21384,-7.14995 1.27052,-0.79138 2.52067,-1.62883 2.77812,-1.86099 0.25745,-0.23216 1.87064,-1.2167 3.58487,-2.18787 4.01998,-2.27746 7.43799,-4.71418 10.02082,-7.14391 1.22378,-1.15123 2.18484,-1.86182 2.36636,-1.74964 0.56231,0.34753 0.095,3.06632 -0.88753,5.16356 -1.1761,2.51043 -2.33899,4.07905 -3.43257,4.63018 -1.11302,0.56092 -2.52107,1.88836 -3.02589,2.85264 -0.53108,1.01446 -0.27881,1.85655 0.98699,3.29457 2.76417,3.14026 1.67334,5.82677 -2.97221,7.32 -1.2122,0.38964 -3.3351,1.31369 -4.71755,2.05343 -1.38245,0.73975 -3.00654,1.60678 -3.6091,1.92675 -1.65688,0.87982 -3.38226,2.41084 -5.37648,4.7708 -3.21256,3.80175 -3.99531,6.10425 -3.77469,11.10346 0.12225,2.7702 0.0934,3.00531 -0.43355,3.53225 -0.65477,0.65478 -0.83232,0.68366 -1.4373,0.23378 z m 97.47874,-2.63658 c -0.5548,-4.89607 -1.38749,-7.3913 -3.61636,-10.83678 -1.39221,-2.15213 -4.08048,-4.93583 -5.28022,-5.46765 -0.98147,-0.43507 -2.22632,-1.07097 -5.29166,-2.70312 -1.30969,-0.69734 -3.33668,-1.57492 -4.50442,-1.95017 -4.69811,-1.50971 -5.81818,-4.20481 -3.05305,-7.34617 1.2658,-1.43802 1.51807,-2.28011 0.98699,-3.29457 -0.50482,-0.96428 -1.91287,-2.29172 -3.02589,-2.85264 -1.09358,-0.55113 -2.25647,-2.11975 -3.43257,-4.63018 -0.98253,-2.09724 -1.44984,-4.81603 -0.88753,-5.16356 0.18149,-0.11217 1.14387,0.5986 2.36901,1.74964 2.40764,2.26201 5.75981,4.70129 9.2985,6.76626 1.38245,0.80671 2.75166,1.67335 3.04271,1.92586 0.29104,0.25251 1.54119,1.08503 2.77812,1.85005 6.35199,3.92858 8.96693,7.37922 12.68169,16.73457 1.2739,3.20822 1.2243,3.51809 1.34123,5.84036 0.0681,1.35271 -0.19082,3.58489 -0.42403,4.9566 -0.44693,2.62867 -1.8864,6.88837 -2.38184,7.04833 -0.18794,0.0607 -0.40243,-0.8773 -0.60068,-2.62683 z m -82.53544,-38.8773 c -0.62867,-0.28874 -1.99414,-0.70244 -3.03438,-0.91933 -2.43813,-0.50837 -2.67996,-0.70496 -2.14343,-1.74249 1.84021,-5.29905 -1.31478,-8.03285 -5.90085,-6.63963 -1.37198,0.43248 -1.43711,0.43023 -1.9151,-0.0661 -0.55223,-0.57347 -19.43096,-30.97245 -20.08208,-32.33662 -0.39112,-0.81947 -0.38334,-0.89678 0.14334,-1.42346 0.46989,-0.46989 0.67445,-0.51375 1.30894,-0.28066 0.4136,0.15194 8.25295,4.24851 17.42076,9.10347 15.19592,8.04725 16.67599,8.88932 16.75077,9.53014 0.0451,0.38662 -0.095,1.04521 -0.31129,1.46354 -0.8693,2.52493 -0.67313,5.18215 1.68537,6.41874 0.93411,0.47654 1.26725,0.51658 2.45806,0.29537 1.96624,-0.36525 2.63404,-0.66703 3.58881,-1.62179 1.36016,-1.36017 1.62515,-0.99971 1.62515,2.21063 0,1.51434 0.0744,3.12542 0.16537,3.58018 l 0.16536,0.82682 h -1.70674 c -1.48299,0 -1.78904,0.0876 -2.33444,0.66815 l -0.6277,0.66815 2.16908,2.018 c 1.27253,1.18389 2.16907,2.22952 2.16907,2.52975 0,0.65799 -3.1074,3.90553 -3.737,3.90553 -0.26297,0 -1.48274,-0.65484 -2.71061,-1.45521 -1.22787,-0.80036 -2.39878,-1.4552 -2.60202,-1.4552 -1.02529,0 -1.27828,1.38755 -0.6398,3.50905 0.26085,0.86675 0.28346,1.29317 0.0794,1.49726 -0.37581,0.37581 -0.62452,0.34018 -1.98401,-0.28421 z m 66.19205,0.16781 c -0.0848,-0.22097 -0.0215,-0.92854 0.14059,-1.57237 0.53571,-2.12749 0.2811,-3.31754 -0.70977,-3.31754 -0.20324,0 -1.37415,0.65484 -2.60202,1.4552 -1.22787,0.80037 -2.44764,1.45521 -2.71061,1.45521 -0.6296,0 -3.737,-3.24754 -3.737,-3.90553 0,-0.30023 0.89654,-1.34586 2.16907,-2.52975 l 2.16908,-2.018 -0.6277,-0.66815 c -0.54518,-0.58032 -0.85166,-0.66815 -2.33139,-0.66815 h -1.70371 l 0.18003,-0.8599 c 0.099,-0.47294 0.16157,-2.07999 0.139,-3.57123 0.0724,-5.76848 4.03053,0.34732 7.67659,-1.02292 2.13453,-0.85407 2.66511,-2.55319 1.83366,-5.87206 -0.3351,-1.33757 -0.46131,-2.32097 -0.31647,-2.4658 0.36914,-0.36914 33.70416,-17.95549 34.33469,-18.11375 0.35573,-0.0893 0.73121,0.0576 1.05111,0.41104 0.4615,0.50995 0.46807,0.61205 0.0903,1.40405 -0.52901,1.10901 -18.67031,30.37941 -19.10929,30.83223 -0.21001,0.21662 -1.58782,0.43968 -3.70648,0.60004 -4.02476,0.30465 -4.6982,0.58611 -5.32416,2.22514 -0.54337,1.42281 -0.42718,4.06778 0.23494,5.34819 0.55142,1.06632 0.22554,1.35844 -1.85858,1.66603 -1.71443,0.25302 -3.1265,0.69841 -3.91319,1.23428 -0.68531,0.46681 -1.17818,0.45015 -1.36867,-0.0463 z"
               style="fill:#56c3b8;fill-opacity:1;stroke-width:0.26458332" />
          </g>
        </g>
      </g>
    </g>
    <flowRoot
       transform="matrix(0.26458333,0,0,0.26458333,-81.55346,42.46313)"
       style="font-style:normal;font-variant:normal;font-weight:normal;font-stretch:normal;font-size:18.66666603px;line-height:125%;font-family:Impact;-inkscape-font-specification:Impact;letter-spacing:0px;word-spacing:0px;fill:#000000;fill-opacity:1;stroke:none;stroke-width:1px;stroke-linecap:butt;stroke-linejoin:miter;stroke-opacity:1"
       id="flowRoot4514"
       xml:space="preserve"><flowRegion
         id="flowRegion4516"><rect
           y="37.170952"
           x="-61.518291"
           height="27.046835"
           width="12.727922"
           id="rect4518" /></flowRegion><flowPara
         id="flowPara4520" /></flowRoot>    <g
       id="g4585"
       transform="translate(153.13701,3.866124)">
      <circle
         inkscape:export-ydpi="300"
         inkscape:export-xdpi="300"
         r="13.5001"
         cy="55.963223"
         cx="-68.05336"
         id="path4500-9"
         style="opacity:1;fill:#a66fa6;fill-opacity:1;stroke:none;stroke-width:3.60207725;stroke-linejoin:miter;stroke-miterlimit:4;stroke-dasharray:none;stroke-opacity:1" />
      <path
         style="fill:#6f256f;fill-opacity:1;stroke-width:0.03542302"
         d="m -68.33645,45.50709 c -0.60039,0 -0.62614,0.0114 -0.63276,0.2813 -0.006,0.23293 -0.0417,0.31367 -0.1527,0.34336 -0.0555,0.0148 -0.13877,0.0626 -0.18494,0.10586 -0.0826,0.0777 -0.0839,0.0893 -0.0836,0.75454 1.4e-4,0.37164 0.0233,1.11409 0.0513,1.64986 0.0282,0.53578 0.0617,1.27701 0.0746,1.64717 0.0246,0.70638 0.0682,0.73998 0.19005,0.73711 0.0756,-0.003 0.25046,0.18363 0.25046,0.28642 0,0.0777 -0.20235,0.16315 -0.38612,0.16315 -0.11304,0 -0.15366,-0.0189 -0.20853,-0.0974 -0.2359,-0.4185 -0.15814,-0.96824 -0.16983,-1.57463 -0.90107,0.22194 -1.71384,0.51252 -2.36604,0.95328 -1.73757,1.17427 -2.82457,2.88428 -3.06885,4.82784 -0.0803,0.63881 -0.0243,1.83485 0.12169,2.59757 1.03679,3.67471 3.62059,4.59271 5.37301,5.06895 -0.10437,-0.31526 -0.36823,-1.26043 -0.45505,-1.64017 -1.82877,-0.89779 -2.82893,-2.70407 -2.78885,-4.55256 0.0753,-3.47067 3.1287,-4.62635 4.86956,-4.70587 -0.007,-0.56875 0.0189,-0.67886 -0.008,-1.07998 l 0.0836,-0.17899 c 0.11595,-0.0363 0.25242,-0.0992 0.31562,-0.14051 0.0829,0 0.062,-0.26475 0.0949,-0.85901 0.0189,-0.34095 0.0318,-0.74742 0.0287,-0.90328 -0.003,-0.15587 0.007,-0.37322 0.0232,-0.48299 0.0159,-0.10976 0.0356,-0.71139 0.0441,-1.33694 0.0151,-1.13236 0.0147,-1.13758 -0.0612,-1.19076 -0.0419,-0.0294 -0.11213,-0.0535 -0.15601,-0.0535 -0.0601,0 -0.0975,-0.039 -0.15151,-0.15747 -0.0799,-0.17524 -0.09,-0.27058 -0.0348,-0.32579 0.0255,-0.0255 0.0184,-0.0522 -0.0232,-0.0868 -0.0459,-0.038 -0.18638,-0.0499 -0.58884,-0.0499 z m 0.45116,7.47729 c -1.04166,-0.004 -1.53047,0.0925 -2.19526,0.43366 -0.51489,0.26424 -0.90578,0.70776 -1.11381,1.26382 -0.0964,0.25776 -0.15117,0.35643 -0.37257,0.67179 -0.25891,0.36877 -0.31121,0.53018 -0.33092,1.02103 l -0.0168,0.41775 0.16771,0.15401 c 0.15992,0.14683 0.16688,0.1611 0.15047,0.30835 -0.009,0.0849 -0.0463,0.22616 -0.0817,0.31382 -0.0913,0.22558 -0.0838,0.64612 0.015,0.83978 0.0405,0.0794 0.31677,0.39467 0.61396,0.70079 0.50985,0.52517 0.70137,0.7733 0.82973,1.07506 0.05,0.11762 0.26429,0.81969 0.38551,1.2632 0.0266,0.0974 0.0954,0.34449 0.15283,0.54906 0.0574,0.20456 0.14049,0.52337 0.18452,0.70845 0.10933,0.45965 0.55501,1.76927 0.62251,1.94726 0.19553,0.51576 0.41036,1.0422 0.70246,1.51493 0.0724,0.11251 0.21776,0.30452 0.21776,0.23908 1.12269,-1.85175 1.48959,-4.05123 1.93552,-5.49013 0.2513,-0.81094 0.45769,-1.16419 0.96326,-1.64897 0.52566,-0.50405 0.76693,-0.88119 0.79252,-1.23897 0.0246,-0.34444 -0.0134,-0.53845 -0.13533,-0.69199 -0.0575,-0.0723 -0.10446,-0.15413 -0.10446,-0.18182 0,-0.0277 0.0717,-0.11566 0.15953,-0.19553 0.38642,-0.43617 0.25157,-0.90753 0.11244,-1.27648 -0.18034,-0.47491 -0.40177,-0.62822 -0.53668,-1.00747 -0.12679,-0.35577 -0.31392,-0.64642 -0.59291,-0.92072 -0.31103,-0.30579 -0.65831,-0.44998 -1.25324,-0.63693 -0.42427,-0.1333 -0.83582,-0.1311 -1.27204,-0.13283 z m 2.00091,2.70183 c 0.24467,-0.007 0.47961,0.0998 0.69643,0.31895 0.17931,0.18128 0.42733,0.55828 0.3911,0.59451 -0.0114,0.0115 -0.12927,-0.074 -0.26173,-0.18991 -0.36373,-0.31846 -0.45616,-0.36433 -0.73385,-0.36433 -0.2663,0 -0.37662,0.0448 -0.53757,0.21834 -0.23349,0.2518 -0.28006,0.37202 -0.28006,0.72237 0,0.30043 0.0158,0.32853 0.10088,0.44279 0.18438,0.24766 0.37773,0.28292 0.64828,0.26093 0.43392,-0.0352 0.30237,-0.13713 0.0854,-0.37965 -0.16195,-0.18099 -0.12024,-0.41463 0.14449,-0.41463 0.17693,0 0.23532,0.0584 0.35463,0.35547 0.12975,0.3229 0.14842,0.62629 0.0501,0.81349 -0.11792,0.22468 -0.51566,0.70485 -0.67414,0.81389 -0.0856,0.059 -0.17504,0.10711 -0.19878,0.10711 -0.0237,0 -0.16463,-0.12354 -0.31299,-0.27454 -0.29989,-0.30519 -0.49528,-0.65277 -0.56898,-1.01197 -0.0765,-0.37296 0.048,-1.03103 0.2692,-1.42335 0.16029,-0.28422 0.29266,-0.422 0.48871,-0.50872 0.11446,-0.0506 0.22767,-0.0775 0.33888,-0.0807 z m -4.18572,0.0328 c 0.10533,-0.003 0.21087,0.011 0.29846,0.0399 0.16996,0.0561 0.42007,0.33124 0.55314,0.60849 0.17878,0.37243 0.22622,0.62222 0.21067,1.10925 -0.012,0.37718 -0.025,0.45199 -0.10958,0.62627 -0.12545,0.2588 -0.4423,0.68336 -0.59299,0.79452 -0.0656,0.0483 -0.14665,0.0879 -0.18016,0.0879 -0.0812,0 -0.56531,-0.4827 -0.72425,-0.72208 -0.28271,-0.42582 -0.28027,-0.75897 0.009,-1.16094 0.13635,-0.18974 0.27735,-0.25719 0.40513,-0.19386 0.0571,0.0283 0.0876,0.0777 0.0951,0.1538 0.009,0.0909 0.0174,0.15676 -0.0966,0.28174 -0.26765,0.2375 -0.15222,0.3314 0.26948,0.34627 0.18507,0.007 0.54221,-0.13706 0.56532,-0.41276 0.009,-0.11263 0.0125,-0.13023 0.0122,-0.30352 -2.5e-4,-0.37791 -0.0545,-0.48463 -0.3069,-0.74727 -0.20925,-0.21777 -0.20281,-0.22759 -0.48388,-0.20936 -0.31539,0.0206 -0.43055,0.0792 -0.71669,0.3653 -0.12428,0.12429 -0.23494,0.2114 -0.24595,0.19358 -0.0111,-0.0177 0.0196,-0.11092 0.0684,-0.20686 0.0974,-0.19233 0.37247,-0.45256 0.60421,-0.57175 0.0959,-0.0493 0.23091,-0.0764 0.36633,-0.0788 z m 6.9645,0.39055 c -0.034,0.11955 -0.0499,0.25805 -0.0504,0.57342 -4.6e-4,0.35184 -0.0933,1.13983 -0.18307,1.5566 -0.18609,0.86357 -0.5948,1.6677 -1.15602,2.27434 -0.26021,0.28126 -0.74849,0.65806 -1.17574,0.90729 -0.18538,0.10816 -0.34237,0.20079 -0.34884,0.20584 -0.14455,0.58251 -0.2368,0.87839 -0.3473,1.47438 1.34803,-0.42761 2.41511,-1.22483 3.014,-2.46879 0.65106,-1.35232 0.69553,-2.73965 0.44604,-4.05843 -0.0377,-0.19997 -0.16198,-0.4883 -0.1987,-0.46465 z m -4.01601,3.16157 c 0.13901,-0.003 0.28499,0.21981 0.30897,0.58698 0.0194,0.29698 -0.065,0.60422 -0.26422,0.9605 -0.068,0.12177 -0.13086,0.22139 -0.13954,0.22139 -0.1036,0 -0.20068,-1.21683 -0.12004,-1.50485 0.0504,-0.1803 0.13141,-0.26258 0.21483,-0.26402 z m -1.68233,0.009 c 0.15345,0.003 0.21014,0.33517 0.17476,1.01012 -0.014,0.26592 -0.0355,0.54464 -0.0481,0.61933 l -0.0228,0.13582 -0.0728,-0.0827 c -0.26743,-0.30384 -0.40542,-0.68182 -0.40542,-1.11035 0,-0.23866 0.0728,-0.38953 0.25252,-0.52257 0.0459,-0.0339 0.0864,-0.0505 0.12176,-0.0496 z"
         id="path38"
         inkscape:connector-curvature="0"
         sodipodi:nodetypes="sssccsssssccsscccsccccsssscssccssssscccssssscsssccssssscccsssccccssssssssccsscssccsccssscscccsscsssccscccsscccscccsscscccccsccc" />
    </g>
  </g>
</svg>
