<?xml version="1.0" encoding="UTF-8" standalone="no"?>
<!-- Created with Inkscape (http://www.inkscape.org/) -->

<svg
   xmlns:dc="http://purl.org/dc/elements/1.1/"
   xmlns:cc="http://creativecommons.org/ns#"
   xmlns:rdf="http://www.w3.org/1999/02/22-rdf-syntax-ns#"
   xmlns:svg="http://www.w3.org/2000/svg"
   xmlns="http://www.w3.org/2000/svg"
   xmlns:sodipodi="http://sodipodi.sourceforge.net/DTD/sodipodi-0.dtd"
   xmlns:inkscape="http://www.inkscape.org/namespaces/inkscape"
   width="16.662399mm"
   height="16.662399mm"
   viewBox="0 0 16.662399 16.662399"
   version="1.1"
   id="svg8683"
   inkscape:version="0.92.1 r15371"
   sodipodi:docname="Blessed.svg">
  <defs
     id="defs8677">
    <clipPath
       clipPathUnits="userSpaceOnUse"
       id="clipPath5249">
      <path
         d="m 54,539.857 h 9.939 v 9.937 H 54 Z"
         id="path5247"
         inkscape:connector-curvature="0" />
    </clipPath>
    <clipPath
       clipPathUnits="userSpaceOnUse"
       id="clipPath5225">
      <path
         d="m 60.595769,554.48995 8.038761,-11.29117 -11.291281,-8.03884 -8.038761,11.29117 z"
         id="path5223"
         inkscape:connector-curvature="0" />
    </clipPath>
    <linearGradient
       x1="0"
       y1="0"
       x2="1"
       y2="0"
       gradientUnits="userSpaceOnUse"
       gradientTransform="matrix(7.0837119,-9.9497201,-9.9497201,-7.0837119,55.480614,549.72369)"
       spreadMethod="pad"
       id="linearGradient5239">
      <stop
         style="stop-opacity:1;stop-color:#000000"
         offset="0"
         id="stop5227" />
      <stop
         style="stop-opacity:1;stop-color:#000000"
         offset="0.0467615"
         id="stop5229" />
      <stop
         style="stop-opacity:1;stop-color:#e1e2e3"
         offset="0.390871"
         id="stop5231" />
      <stop
         style="stop-opacity:1;stop-color:#ffffff"
         offset="0.630703"
         id="stop5233" />
      <stop
         style="stop-opacity:1;stop-color:#000000"
         offset="0.943597"
         id="stop5235" />
      <stop
         style="stop-opacity:1;stop-color:#000000"
         offset="1"
         id="stop5237" />
    </linearGradient>
  </defs>
  <sodipodi:namedview
     id="base"
     pagecolor="#ffffff"
     bordercolor="#666666"
     borderopacity="1.0"
     inkscape:pageopacity="0.0"
     inkscape:pageshadow="2"
     inkscape:zoom="11.2"
     inkscape:cx="18.535705"
     inkscape:cy="38.148485"
     inkscape:document-units="mm"
     inkscape:current-layer="layer1"
     showgrid="false"
     inkscape:snap-bbox="true"
     inkscape:snap-bbox-midpoints="true"
     inkscape:window-width="2048"
     inkscape:window-height="1089"
     inkscape:window-x="1912"
     inkscape:window-y="411"
     inkscape:window-maximized="1" />
  <metadata
     id="metadata8680">
    <rdf:RDF>
      <cc:Work
         rdf:about="">
        <dc:format>image/svg+xml</dc:format>
        <dc:type
           rdf:resource="http://purl.org/dc/dcmitype/StillImage" />
        <dc:title></dc:title>
      </cc:Work>
    </rdf:RDF>
  </metadata>
  <g
     inkscape:label="Layer 1"
     inkscape:groupmode="layer"
     id="layer1"
     transform="translate(21.452038,-236.02143)">
    <circle
       style="opacity:1;fill:#000000;fill-opacity:1;stroke:none;stroke-width:0;stroke-linejoin:miter;stroke-miterlimit:4;stroke-dasharray:none;stroke-opacity:1"
       id="path9298"
       cx="-13.120838"
       cy="244.35263"
       r="8.3311996" />
    <g
       transform="matrix(1.5154643,0,0,-1.5157693,-102.48701,1070.1824)"
       id="g5209">
      <g
         id="g5211">
        <g
           id="g5217">
          <g
             id="g5219">
            <g
               id="g5221"
               clip-path="url(#clipPath5225)">
              <path
                 d="m 54,544.823 c 0,-2.71 2.18,-4.918 4.876,-4.966 v 0 h 0.18 c 2.7,0.048 4.883,2.256 4.883,4.966 v 0 c 0,2.741 -2.231,4.971 -4.973,4.971 v 0 c -2.738,0 -4.966,-2.23 -4.966,-4.971"
                 style="fill:url(#linearGradient5239);stroke:none"
                 id="path5241"
                 inkscape:connector-curvature="0" />
            </g>
          </g>
        </g>
      </g>
    </g>
    <g
       transform="matrix(1.5154643,0,0,-1.5157693,-102.48701,1070.1824)"
       id="g5243">
      <g
         id="g5245"
         clip-path="url(#clipPath5249)">
        <g
           id="g5251"
           transform="translate(58.9673,548.4449)">
          <path
             d="m 0,0 c -1.994,0 -3.617,-1.624 -3.617,-3.619 0,-1.997 1.623,-3.621 3.617,-3.621 1.999,0 3.623,1.624 3.623,3.621 C 3.623,-1.624 1.999,0 0,0 m 0,-8.209 c -2.53,0 -4.588,2.058 -4.588,4.59 0,2.53 2.058,4.589 4.588,4.589 2.532,0 4.591,-2.059 4.591,-4.589 0,-2.532 -2.059,-4.59 -4.591,-4.59"
             style="fill:#000000;fill-opacity:1;fill-rule:nonzero;stroke:none"
             id="path5253"
             inkscape:connector-curvature="0" />
        </g>
        <g
           id="g5255"
           transform="translate(63.0744,544.8253)">
          <path
             d="m 0,0 c 0,-2.266 -1.837,-4.105 -4.107,-4.105 -2.264,0 -4.103,1.839 -4.103,4.105 0,2.266 1.839,4.105 4.103,4.105 C -1.837,4.105 0,2.266 0,0"
             style="fill:#ffffff;fill-opacity:1;fill-rule:nonzero;stroke:none"
             id="path5257"
             inkscape:connector-curvature="0" />
        </g>
        <g
           id="g5259"
           transform="translate(55.7831,544.5894)">
          <path
             d="M 0,0 0.057,0.842 0.592,0.189 1.411,0.394 0.953,-0.317 1.402,-1.033 0.584,-0.818 0.044,-1.463 -0.005,-0.621 -0.788,-0.306 Z"
             style="fill:#000000;fill-opacity:1;fill-rule:nonzero;stroke:none"
             id="path5261"
             inkscape:connector-curvature="0" />
        </g>
        <g
           id="g5263"
           transform="translate(56.5244,547.0753)">
          <path
             d="m 0,0 0.289,0.488 0.124,-0.553 0.553,-0.122 -0.487,-0.29 0.055,-0.563 -0.425,0.375 -0.52,-0.227 0.224,0.52 -0.375,0.424 z"
             style="fill:#000000;fill-opacity:1;fill-rule:nonzero;stroke:none"
             id="path5265"
             inkscape:connector-curvature="0" />
        </g>
        <g
           id="g5267"
           transform="translate(59.0724,540.7838)">
          <path
             d="m 0,0 -0.223,-0.012 -0.011,4.945 0.131,0.692 0.094,-0.684 z M 1.266,0.188 1.231,4.207 c 0,0 -0.162,0.465 -0.432,1.016 C 0.781,5.262 0.762,5.299 0.742,5.338 0.699,5.424 0.654,5.509 0.605,5.596 0.602,5.603 0.597,5.61 0.593,5.617 0.394,5.974 0.16,6.33 -0.106,6.595 c 0,0 -0.01,-0.012 -0.013,-0.015 C -0.122,6.583 -0.133,6.595 -0.133,6.595 -0.398,6.33 -0.632,5.974 -0.831,5.617 -0.835,5.61 -0.839,5.603 -0.843,5.596 -0.892,5.509 -0.937,5.424 -0.981,5.338 -1,5.299 -1.019,5.262 -1.038,5.223 -1.307,4.672 -1.469,4.207 -1.469,4.207 L -1.505,-0.1 C -0.87,-0.836 1.174,-0.158 1.174,-0.158 L 1.257,-0.187 C 1.288,-0.161 1.24,0.158 1.266,0.188"
             style="fill:#000000;fill-opacity:1;fill-rule:nonzero;stroke:none"
             id="path5269"
             inkscape:connector-curvature="0" />
        </g>
        <g
           id="g5271"
           transform="translate(62.1237,544.5894)">
          <path
             d="m 0,0 -0.057,0.842 -0.535,-0.653 -0.819,0.205 0.458,-0.711 -0.45,-0.716 0.819,0.215 0.54,-0.645 0.049,0.842 0.783,0.315 z"
             style="fill:#000000;fill-opacity:1;fill-rule:nonzero;stroke:none"
             id="path5273"
             inkscape:connector-curvature="0" />
        </g>
        <g
           id="g5275"
           transform="translate(61.3825,547.0753)">
          <path
             d="m 0,0 -0.289,0.488 -0.124,-0.553 -0.553,-0.122 0.487,-0.29 -0.055,-0.563 0.425,0.375 0.52,-0.227 -0.224,0.52 0.375,0.424 z"
             style="fill:#000000;fill-opacity:1;fill-rule:nonzero;stroke:none"
             id="path5277"
             inkscape:connector-curvature="0" />
        </g>
      </g>
    </g>
  </g>
</svg>
