<?xml version="1.0" encoding="UTF-8" standalone="no"?>
<!-- Created with Inkscape (http://www.inkscape.org/) -->

<svg
   xmlns:dc="http://purl.org/dc/elements/1.1/"
   xmlns:cc="http://creativecommons.org/ns#"
   xmlns:rdf="http://www.w3.org/1999/02/22-rdf-syntax-ns#"
   xmlns:svg="http://www.w3.org/2000/svg"
   xmlns="http://www.w3.org/2000/svg"
   xmlns:sodipodi="http://sodipodi.sourceforge.net/DTD/sodipodi-0.dtd"
   xmlns:inkscape="http://www.inkscape.org/namespaces/inkscape"
   width="16.662399mm"
   height="16.662399mm"
   viewBox="0 0 16.662399 16.662399"
   version="1.1"
   id="svg7973"
   inkscape:version="0.92.1 r15371"
   sodipodi:docname="Disruption.svg">
  <defs
     id="defs7967">
    <clipPath
       clipPathUnits="userSpaceOnUse"
       id="clipPath4679">
      <path
         d="m 312.48,726.062 h 9.939 V 736 h -9.939 z"
         id="path4677"
         inkscape:connector-curvature="0" />
    </clipPath>
    <clipPath
       clipPathUnits="userSpaceOnUse"
       id="clipPath4655">
      <path
         d="m 319.07579,740.69584 8.03841,-11.29068 -11.29094,-8.03859 -8.03841,11.29068 z"
         id="path4653"
         inkscape:connector-curvature="0" />
    </clipPath>
    <linearGradient
       x1="0"
       y1="0"
       x2="1"
       y2="0"
       gradientUnits="userSpaceOnUse"
       gradientTransform="matrix(7.0842506,-9.9504769,-9.9504769,-7.0842506,313.96081,735.93076)"
       spreadMethod="pad"
       id="linearGradient4669">
      <stop
         style="stop-opacity:1;stop-color:#000000"
         offset="0"
         id="stop4657" />
      <stop
         style="stop-opacity:1;stop-color:#000000"
         offset="0.0467615"
         id="stop4659" />
      <stop
         style="stop-opacity:1;stop-color:#e1e2e3"
         offset="0.390871"
         id="stop4661" />
      <stop
         style="stop-opacity:1;stop-color:#ffffff"
         offset="0.630703"
         id="stop4663" />
      <stop
         style="stop-opacity:1;stop-color:#000000"
         offset="0.943597"
         id="stop4665" />
      <stop
         style="stop-opacity:1;stop-color:#000000"
         offset="1"
         id="stop4667" />
    </linearGradient>
    <clipPath
       clipPathUnits="userSpaceOnUse"
       id="clipPath4621">
      <path
         d="m 326.2136,733.14929 -6.12747,-11.11833 -11.32419,6.24092 6.12747,11.11834 z"
         id="path4619"
         inkscape:connector-curvature="0" />
    </clipPath>
    <linearGradient
       x1="0"
       y1="0"
       x2="1"
       y2="0"
       gradientUnits="userSpaceOnUse"
       gradientTransform="matrix(-5.0634659,-9.187688,-9.187688,5.0634659,319.98031,735.53449)"
       spreadMethod="pad"
       id="linearGradient4635">
      <stop
         style="stop-opacity:1;stop-color:#000000"
         offset="0"
         id="stop4623" />
      <stop
         style="stop-opacity:1;stop-color:#000000"
         offset="0.0467615"
         id="stop4625" />
      <stop
         style="stop-opacity:1;stop-color:#e1e2e3"
         offset="0.390871"
         id="stop4627" />
      <stop
         style="stop-opacity:1;stop-color:#ffffff"
         offset="0.630703"
         id="stop4629" />
      <stop
         style="stop-opacity:1;stop-color:#000000"
         offset="0.943597"
         id="stop4631" />
      <stop
         style="stop-opacity:1;stop-color:#000000"
         offset="1"
         id="stop4633" />
    </linearGradient>
  </defs>
  <sodipodi:namedview
     id="base"
     pagecolor="#ffffff"
     bordercolor="#666666"
     borderopacity="1.0"
     inkscape:pageopacity="0.0"
     inkscape:pageshadow="2"
     inkscape:zoom="11.2"
     inkscape:cx="-2.7027816"
     inkscape:cy="30.953043"
     inkscape:document-units="mm"
     inkscape:current-layer="layer1"
     showgrid="false"
     showguides="false"
     inkscape:snap-bbox="true"
     inkscape:snap-bbox-midpoints="true"
     inkscape:window-width="2048"
     inkscape:window-height="1089"
     inkscape:window-x="1912"
     inkscape:window-y="411"
     inkscape:window-maximized="1" />
  <metadata
     id="metadata7970">
    <rdf:RDF>
      <cc:Work
         rdf:about="">
        <dc:format>image/svg+xml</dc:format>
        <dc:type
           rdf:resource="http://purl.org/dc/dcmitype/StillImage" />
        <dc:title />
      </cc:Work>
    </rdf:RDF>
  </metadata>
  <g
     inkscape:label="Layer 1"
     inkscape:groupmode="layer"
     id="layer1"
     transform="translate(23.662463,-121.90514)">
    <circle
       style="opacity:1;fill:#000000;fill-opacity:1;stroke:none;stroke-width:0;stroke-linejoin:miter;stroke-miterlimit:4;stroke-dasharray:none;stroke-opacity:1"
       id="path8634"
       cx="-15.331264"
       cy="130.23634"
       r="8.3311996" />
    <g
       transform="matrix(1.5154643,0,0,-1.5156168,-496.47209,1238.1669)"
       id="g4605">
      <g
         id="g4607">
        <g
           id="g4613">
          <g
             id="g4615">
            <g
               id="g4617"
               clip-path="url(#clipPath4621)">
              <path
                 d="m 315.638,734.854 c -2.124,-1.022 -3.016,-3.571 -1.994,-5.693 v 0 c 1.021,-2.125 3.57,-3.017 5.692,-1.996 v 0 c 2.124,1.021 3.017,3.57 1.995,5.694 v 0 c -0.734,1.527 -2.258,2.418 -3.846,2.418 v 0 c -0.621,0 -1.251,-0.135 -1.847,-0.423"
                 style="fill:url(#linearGradient4635);stroke:none"
                 id="path4637"
                 inkscape:connector-curvature="0" />
            </g>
          </g>
        </g>
      </g>
    </g>
    <g
       transform="matrix(1.5154643,0,0,-1.5156168,-496.47209,1238.1669)"
       id="g4639">
      <g
         id="g4641">
        <g
           id="g4647">
          <g
             id="g4649">
            <g
               id="g4651"
               clip-path="url(#clipPath4655)">
              <path
                 d="m 312.48,731.03 c 0,-2.74 2.228,-4.968 4.968,-4.968 v 0 c 2.741,0 4.971,2.228 4.971,4.968 v 0 c 0,2.741 -2.23,4.97 -4.971,4.97 v 0 c -2.74,0 -4.968,-2.229 -4.968,-4.97 m 1.05,0 c 0,2.162 1.758,3.921 3.918,3.921 v 0 c 2.161,0 3.919,-1.759 3.919,-3.921 v 0 c 0,-2.16 -1.758,-3.917 -3.919,-3.917 v 0 c -2.16,0 -3.918,1.757 -3.918,3.917"
                 style="fill:url(#linearGradient4669);stroke:none"
                 id="path4671"
                 inkscape:connector-curvature="0" />
            </g>
          </g>
        </g>
      </g>
    </g>
    <g
       transform="matrix(1.5154643,0,0,-1.5156168,-496.47209,1238.1669)"
       id="g4673">
      <g
         id="g4675"
         clip-path="url(#clipPath4679)">
        <g
           id="g4681"
           transform="translate(316.3421,731.3037)">
          <path
             d="M 0,0 C 0.008,-0.013 0.012,-0.026 0.019,-0.039 L 0.023,-0.052 C 0.031,-0.062 0.034,-0.073 0.038,-0.084 0.079,-0.083 0.118,-0.09 0.16,-0.091 0.155,-0.083 0.15,-0.074 0.146,-0.065 0.101,0.026 0.043,0.125 -0.016,0.21 -0.038,0.244 -0.062,0.275 -0.079,0.3 L -0.135,0.371 -0.214,0.351 C -0.205,0.338 -0.198,0.329 -0.189,0.316 -0.122,0.217 -0.053,0.103 0,0"
             style="fill:#fbbd97;fill-opacity:1;fill-rule:nonzero;stroke:none"
             id="path4683"
             inkscape:connector-curvature="0" />
        </g>
        <g
           id="g4685"
           transform="translate(315.0925,730.5543)">
          <path
             d="M 0,0 C 0.01,-0.003 0.023,-0.007 0.035,-0.009 0.053,0.018 0.078,0.041 0.099,0.067 0.046,0.074 -0.005,0.085 -0.054,0.089 -0.091,0.091 -0.126,0.093 -0.163,0.094 L -0.255,0.095 -0.278,0.044 C -0.203,0.034 -0.125,0.026 -0.056,0.012 -0.038,0.009 -0.019,0.003 0,0"
             style="fill:#fbbd97;fill-opacity:1;fill-rule:nonzero;stroke:none"
             id="path4687"
             inkscape:connector-curvature="0" />
        </g>
        <g
           id="g4689"
           transform="translate(317.8452,728.6448)">
          <path
             d="m 0,0 0.008,-0.013 c 0.008,-0.01 0.015,-0.021 0.021,-0.034 0.036,-0.053 0.069,-0.11 0.099,-0.17 0.01,-0.019 0.018,-0.038 0.028,-0.057 0.002,0.002 0.004,0.003 0.005,0.005 l 0.042,0.049 -0.017,0.047 c 0,0.001 -0.022,0.058 -0.057,0.136 C 0.107,0.008 0.085,0.053 0.062,0.097 0.054,0.111 0.045,0.125 0.037,0.14 0.016,0.103 0.003,0.065 -0.02,0.03 -0.015,0.02 -0.007,0.01 0,0"
             style="fill:#fbbd97;fill-opacity:1;fill-rule:nonzero;stroke:none"
             id="path4691"
             inkscape:connector-curvature="0" />
        </g>
        <g
           id="g4693"
           transform="translate(318.0532,730.082)">
          <path
             d="m 0,0 h 0.016 c 0.013,-0.001 0.025,-0.004 0.036,-0.004 0.066,-0.006 0.131,-0.016 0.196,-0.028 0.055,-0.01 0.108,-0.021 0.168,-0.036 0.029,-0.008 0.047,-0.012 0.069,-0.019 0,0.007 -0.003,0.021 -0.003,0.022 l -0.007,0.046 -0.049,0.015 c 0,0.001 -0.057,0.02 -0.142,0.041 -0.051,0.011 -0.099,0.022 -0.146,0.032 -0.055,0.01 -0.112,0.019 -0.17,0.025 -0.009,0 -0.021,0.001 -0.033,0.001 l -0.013,0.002 c 0.012,-0.031 0.03,-0.06 0.04,-0.093 C -0.025,0.003 -0.014,0.001 0,0"
             style="fill:#fbbd97;fill-opacity:1;fill-rule:nonzero;stroke:none"
             id="path4695"
             inkscape:connector-curvature="0" />
        </g>
        <g
           id="g4697"
           transform="translate(316.159,727.442)">
          <path
             d="m 0,0 -0.017,0.003 -0.132,0.031 -0.15,0.035 c 0.006,-0.038 0.012,-0.066 0.012,-0.067 l 0.015,-0.056 0.152,-0.037 0.278,-0.037 0.031,0.053 c 0.001,0.002 0.011,0.018 0.025,0.046 l -0.197,0.026 z"
             style="fill:#fbbd97;fill-opacity:1;fill-rule:nonzero;stroke:none"
             id="path4699"
             inkscape:connector-curvature="0" />
        </g>
        <g
           id="g4701"
           transform="translate(315.469,728.335)">
          <path
             d="M 0,0 C -0.019,-0.005 -0.038,-0.01 -0.057,-0.014 0.023,-0.081 0.109,-0.14 0.199,-0.188 0.198,-0.169 0.195,-0.154 0.194,-0.134 0.126,-0.094 0.06,-0.049 0,0"
             style="fill:#fbbd97;fill-opacity:1;fill-rule:nonzero;stroke:none"
             id="path4703"
             inkscape:connector-curvature="0" />
        </g>
        <g
           id="g4705"
           transform="translate(316.4945,727.8186)">
          <path
             d="M 0,0 C 0.003,0.003 0.032,0.055 0.07,0.133 0.106,0.202 0.155,0.308 0.195,0.426 0.203,0.442 0.206,0.457 0.211,0.473 0.214,0.484 0.217,0.493 0.22,0.504 0.41,0.521 0.596,0.575 0.767,0.667 0.776,0.661 0.784,0.655 0.793,0.647 0.804,0.638 0.818,0.627 0.829,0.617 0.93,0.541 1.03,0.479 1.097,0.44 1.173,0.398 1.226,0.372 1.228,0.37 L 1.273,0.349 1.346,0.404 1.349,0.407 C 1.365,0.422 1.385,0.438 1.405,0.458 L 1.466,0.515 1.487,0.533 C 1.494,0.539 1.5,0.546 1.507,0.552 1.497,0.572 1.488,0.59 1.478,0.609 1.449,0.67 1.415,0.727 1.38,0.78 1.374,0.792 1.367,0.803 1.358,0.814 L 1.351,0.827 C 1.343,0.836 1.336,0.847 1.33,0.857 1.354,0.89 1.367,0.929 1.388,0.965 1.367,1.001 1.348,1.037 1.326,1.071 1.32,1.081 1.313,1.091 1.307,1.1 L 1.299,1.111 c -0.005,0.008 -0.01,0.017 -0.017,0.026 0.109,0.164 0.18,0.345 0.214,0.532 0.01,0.002 0.021,0.004 0.029,0.007 l 0.013,0.001 c 0.01,0.003 0.025,0.006 0.034,0.009 0.097,0.022 0.197,0.054 0.306,0.098 0.08,0.033 0.135,0.057 0.138,0.059 l 0.044,0.02 10e-4,0.06 c 0.002,0.009 0.002,0.024 0,0.038 L 2.057,2.051 C 2.054,2.108 2.048,2.152 2.044,2.176 2.021,2.183 2.003,2.188 1.975,2.195 1.915,2.21 1.862,2.222 1.806,2.231 1.742,2.243 1.677,2.253 1.611,2.26 1.6,2.26 1.588,2.263 1.575,2.264 H 1.559 C 1.546,2.265 1.534,2.266 1.52,2.267 1.511,2.3 1.493,2.329 1.481,2.36 1.47,2.361 1.46,2.361 1.449,2.363 1.391,2.542 1.299,2.712 1.168,2.861 1.172,2.87 1.176,2.879 1.179,2.889 1.188,2.905 1.196,2.919 1.202,2.933 1.256,3.047 1.292,3.158 1.316,3.232 1.342,3.314 1.354,3.373 1.354,3.376 L 1.364,3.421 1.334,3.452 1.316,3.466 1.203,3.548 C 1.178,3.566 1.153,3.583 1.133,3.594 L 1.052,3.641 1.011,3.615 C 1.008,3.613 0.961,3.58 0.89,3.527 0.857,3.502 0.818,3.47 0.773,3.433 0.731,3.396 0.689,3.357 0.649,3.316 0.641,3.307 0.632,3.298 0.624,3.29 L 0.617,3.281 C 0.609,3.274 0.604,3.266 0.596,3.258 0.413,3.326 0.221,3.357 0.029,3.347 0.023,3.357 0.02,3.367 0.015,3.376 L 0.01,3.389 C 0.009,3.39 0.009,3.392 0.007,3.394 -0.034,3.396 -0.074,3.403 -0.114,3.401 -0.119,3.412 -0.122,3.423 -0.129,3.434 L -0.134,3.446 C -0.14,3.459 -0.145,3.472 -0.152,3.485 -0.205,3.588 -0.274,3.702 -0.341,3.801 -0.35,3.814 -0.358,3.824 -0.366,3.836 L -0.472,3.81 C -0.497,3.803 -0.518,3.794 -0.539,3.787 -0.548,3.784 -0.555,3.781 -0.566,3.779 L -0.653,3.747 -0.656,3.695 c 0,-0.002 -0.008,-0.061 -0.011,-0.148 0,-0.103 0.006,-0.219 0.017,-0.319 0.004,-0.016 0.004,-0.032 0.007,-0.049 0.002,-0.01 0.002,-0.021 0.004,-0.032 C -0.741,3.087 -0.839,3.011 -0.927,2.922 -0.976,2.87 -1.021,2.819 -1.062,2.761 -1.071,2.765 -1.079,2.767 -1.09,2.769 -1.108,2.774 -1.125,2.777 -1.14,2.78 -1.19,2.79 -1.247,2.795 -1.303,2.803 -1.325,2.777 -1.349,2.753 -1.367,2.727 -1.379,2.729 -1.391,2.733 -1.402,2.735 -1.421,2.738 -1.44,2.745 -1.457,2.747 -1.526,2.762 -1.604,2.77 -1.68,2.779 L -1.735,2.657 C -1.743,2.633 -1.754,2.61 -1.76,2.588 L -1.796,2.477 -1.761,2.442 C -1.76,2.441 -1.715,2.398 -1.649,2.343 -1.569,2.278 -1.475,2.21 -1.391,2.156 -1.376,2.147 -1.361,2.139 -1.348,2.13 -1.339,2.126 -1.328,2.12 -1.32,2.115 -1.346,1.924 -1.333,1.73 -1.283,1.544 -1.291,1.538 -1.298,1.531 -1.307,1.523 L -1.316,1.517 C -1.325,1.511 -1.334,1.503 -1.345,1.494 -1.431,1.422 -1.519,1.339 -1.578,1.274 -1.637,1.211 -1.673,1.163 -1.674,1.162 L -1.706,1.123 -1.666,1.04 c 0.012,-0.027 0.028,-0.06 0.047,-0.09 l 0.099,-0.16 0.049,0.007 c 0,0 0.017,0.001 0.044,0.006 0.025,0.005 0.063,0.013 0.105,0.022 0.102,0.02 0.213,0.05 0.308,0.085 0.012,0.003 0.024,0.009 0.034,0.012 l 0.012,0.004 c 0.01,0.004 0.018,0.009 0.03,0.012 C -0.929,0.926 -0.917,0.916 -0.907,0.905 -0.781,0.781 -0.638,0.687 -0.486,0.62 -0.479,0.617 -0.473,0.614 -0.467,0.611 -0.469,0.602 -0.469,0.591 -0.469,0.58 V 0.567 0.533 c 0.003,-0.111 0.012,-0.231 0.028,-0.321 0.015,-0.084 0.026,-0.143 0.028,-0.146 l 0.012,-0.049 0.132,-0.031 0.241,-0.032 z"
             style="fill:#fbbd97;fill-opacity:1;fill-rule:nonzero;stroke:none"
             id="path4707"
             inkscape:connector-curvature="0" />
        </g>
        <g
           id="g4709"
           transform="translate(314.5592,728.576)">
          <path
             d="M 0,0 C -0.026,0.043 -0.048,0.086 -0.066,0.123 L -0.094,0.181 C -0.118,0.151 -0.138,0.128 -0.139,0.128 l -0.035,-0.046 0.046,-0.095 c 0.014,-0.031 0.031,-0.067 0.053,-0.103 l 0.113,-0.183 0.059,0.006 c 0,0 0.017,0.001 0.049,0.009 0.006,0 0.018,0.003 0.026,0.004 l -0.074,0.119 z"
             style="fill:#fbbd97;fill-opacity:1;fill-rule:nonzero;stroke:none"
             id="path4711"
             inkscape:connector-curvature="0" />
        </g>
        <g
           id="g4713"
           transform="translate(316.1564,727.2905)">
          <path
             d="M 0,0 -0.422,0.095 -0.515,0.202 -0.569,0.424 C -0.584,0.463 -0.613,0.635 -0.616,0.653 -0.623,0.702 -0.63,0.762 -0.636,0.822 -0.672,0.846 -0.708,0.871 -0.743,0.897 L -0.737,0.878 C -0.785,0.864 -0.833,0.851 -0.881,0.842 -0.927,0.83 -0.976,0.823 -0.998,0.82 L -1.449,0.761 -1.725,1.207 c -0.029,0.047 -0.054,0.096 -0.073,0.136 l -0.178,0.375 0.21,0.267 0.14,0.164 c 0.031,0.037 0.072,0.079 0.118,0.122 -0.003,0.034 -0.005,0.067 -0.006,0.1 -0.045,0.033 -0.088,0.067 -0.13,0.101 -0.085,0.071 -0.14,0.125 -0.14,0.125 L -2.054,2.855 -1.115,6.172 -0.06,5.085 1.396,7.473 1.464,5.13 3.962,6.913 2.981,4.171 4.902,4.263 3.112,2.579 4.191,1.745 1.664,0.273 1.385,0.41 c 0,0 -0.107,0.051 -0.205,0.105 C 1.141,0.538 1.091,0.566 1.037,0.602 1.006,0.591 0.974,0.581 0.941,0.573 0.92,0.526 0.852,0.387 0.842,0.368 L 0.845,0.366 0.584,-0.078 Z"
             style="fill:#ffde2f;fill-opacity:1;fill-rule:nonzero;stroke:none"
             id="path4715"
             inkscape:connector-curvature="0" />
        </g>
        <g
           id="g4717"
           transform="translate(317.688,735.2737)">
          <path
             d="m 0,0 -0.527,-0.864 -1.092,-1.791 -0.739,0.762 -0.362,0.373 -0.142,-0.501 -0.844,-2.98 -0.05,-0.174 0.132,-0.124 0.205,-0.196 c 0,-0.001 0.058,-0.056 0.145,-0.13 0.02,-0.016 0.04,-0.032 0.06,-0.048 -0.022,-0.024 -0.043,-0.046 -0.062,-0.067 -0.026,-0.029 -0.052,-0.059 -0.072,-0.083 l -0.011,-0.009 -0.029,-0.038 -0.031,-0.04 -0.149,-0.189 -0.116,-0.147 0.081,-0.168 0.098,-0.206 0.04,-0.085 c 0.021,-0.045 0.048,-0.099 0.082,-0.151 l 0.096,-0.159 0.075,-0.12 0.054,-0.086 0.101,-0.163 0.19,0.024 0.236,0.031 0.046,0.005 c 0,0 0,0 10e-4,0 0.008,0 0.05,0.006 0.093,0.015 0.008,0 0.062,0.009 0.122,0.024 0.017,0.003 0.039,0.008 0.063,0.014 0.003,-0.03 0.006,-0.058 0.01,-0.083 0.017,-0.1 0.031,-0.163 0.041,-0.204 h 10e-4 l 0.007,-0.036 0.055,-0.224 0.043,-0.181 0.182,-0.041 0.073,-0.016 0.147,-0.034 0.132,-0.031 0.01,-0.002 0.044,-0.008 0.206,-0.027 0.047,-0.006 0.242,-0.033 0.196,-0.026 0.101,0.171 0.125,0.209 0.027,0.047 0.12,0.201 -0.009,0.01 c 0.004,0.008 0.008,0.017 0.012,0.026 0.027,-0.016 0.051,-0.029 0.073,-0.041 0.097,-0.055 0.208,-0.108 0.208,-0.108 L -0.004,-7.81 0.14,-7.88 0.278,-7.799 2.542,-6.48 2.927,-6.256 2.575,-5.984 1.811,-5.392 3.177,-4.108 3.77,-3.551 2.957,-3.59 1.666,-3.652 2.41,-1.571 2.732,-0.67 1.953,-1.226 0.074,-2.567 0.029,-1.012 Z M -0.271,-1.02 -0.209,-3.138 2.127,-1.47 1.232,-3.973 2.971,-3.89 1.349,-5.415 2.391,-6.221 0.126,-7.54 -0.082,-7.439 c 0,0 -0.103,0.049 -0.196,0.103 -0.053,0.028 -0.122,0.069 -0.195,0.12 -0.073,-0.027 -0.148,-0.05 -0.227,-0.067 -0.026,-0.067 -0.058,-0.136 -0.092,-0.206 -0.037,-0.07 -0.066,-0.124 -0.083,-0.153 v 0 l -0.027,-0.048 -0.125,-0.209 -0.243,0.032 -0.045,0.006 -0.196,0.027 -0.018,0.003 -0.018,0.002 -0.132,0.031 -0.15,0.035 -0.072,0.016 -0.054,0.224 -0.006,0.029 c -0.002,0.003 -0.021,0.08 -0.039,0.188 -0.007,0.051 -0.014,0.115 -0.02,0.179 -10e-4,0.019 -0.004,0.034 -0.006,0.054 -0.067,0.04 -0.133,0.085 -0.193,0.134 -0.019,-0.005 -0.038,-0.01 -0.057,-0.014 -0.055,-0.014 -0.111,-0.031 -0.164,-0.041 -0.049,-0.011 -0.092,-0.019 -0.112,-0.022 -0.042,-0.008 -0.069,-0.01 -0.07,-0.01 l -0.047,-0.006 -0.236,-0.03 -0.052,0.084 -0.074,0.119 -0.097,0.161 c -0.027,0.043 -0.049,0.087 -0.066,0.123 l -0.028,0.059 -0.012,0.025 -0.098,0.206 0.142,0.181 0.032,0.038 0.018,0.026 0.004,0.004 c 0.019,0.022 0.05,0.059 0.088,0.1 0.044,0.051 0.103,0.107 0.167,0.167 -0.012,0.078 -0.016,0.156 -0.016,0.235 -0.062,0.044 -0.125,0.09 -0.183,0.139 -0.079,0.067 -0.132,0.117 -0.132,0.117 l -0.205,0.196 0.844,2.98 1.009,-1.04 1.293,2.122"
             style="fill:#000000;fill-opacity:1;fill-rule:nonzero;stroke:none"
             id="path4719"
             inkscape:connector-curvature="0" />
        </g>
        <g
           id="g4721"
           transform="translate(316.4424,729.3084)">
          <path
             d="M 0,0 C -0.245,0.116 -0.352,0.41 -0.235,0.658 -0.119,0.905 0.174,1.013 0.422,0.895 0.671,0.78 0.776,0.485 0.66,0.237 0.544,-0.01 0.25,-0.117 0,0 m 1.607,-0.844 c 0,0 -0.003,0.006 -0.003,0.008 -0.005,0.009 -0.022,0.058 -0.053,0.129 -0.021,0.045 -0.041,0.089 -0.064,0.132 -0.025,0.052 -0.052,0.102 -0.081,0.149 -0.007,0.009 -0.012,0.02 -0.017,0.029 l -0.008,0.011 c -0.005,0.008 -0.011,0.017 -0.017,0.026 0.112,0.159 0.184,0.335 0.223,0.518 0.009,0.003 0.021,0.006 0.03,0.007 L 1.629,0.169 C 1.641,0.17 1.653,0.172 1.663,0.176 1.756,0.197 1.857,0.225 1.965,0.264 2.047,0.296 2.099,0.32 2.102,0.32 L 2.147,0.341 2.15,0.4 c 0,0.009 0,0.022 0,0.037 L 2.147,0.526 C 2.145,0.598 2.135,0.667 2.136,0.671 L 2.126,0.717 2.083,0.734 C 2.081,0.734 2.027,0.753 1.942,0.776 1.891,0.791 1.845,0.801 1.8,0.81 1.745,0.821 1.688,0.83 1.632,0.838 1.621,0.839 1.61,0.84 1.598,0.842 H 1.586 C 1.577,0.843 1.564,0.845 1.554,0.845 1.501,1.025 1.413,1.194 1.286,1.344 1.292,1.352 1.296,1.362 1.3,1.37 1.309,1.386 1.314,1.4 1.322,1.414 1.376,1.525 1.418,1.634 1.441,1.705 1.468,1.787 1.482,1.846 1.484,1.847 l 0.009,0.044 -0.03,0.031 c 0,0 -0.006,0.006 -0.016,0.015 L 1.335,2.02 C 1.31,2.038 1.287,2.057 1.266,2.068 L 1.19,2.115 1.149,2.089 C 1.146,2.088 1.098,2.056 1.028,2.006 0.995,1.982 0.955,1.952 0.911,1.916 0.869,1.88 0.827,1.841 0.785,1.803 0.776,1.793 0.767,1.785 0.759,1.777 L 0.754,1.77 C 0.746,1.762 0.739,1.754 0.731,1.746 0.554,1.818 0.363,1.851 0.175,1.847 0.17,1.856 0.168,1.866 0.163,1.875 L 0.157,1.886 C 0.152,1.898 0.146,1.908 0.141,1.919 0.099,2.009 0.042,2.108 -0.014,2.194 -0.035,2.227 -0.056,2.259 -0.075,2.282 L -0.128,2.356 -0.309,2.313 C -0.335,2.307 -0.359,2.299 -0.378,2.293 -0.388,2.289 -0.394,2.286 -0.404,2.285 L -0.491,2.255 -0.496,2.205 C -0.497,2.203 -0.504,2.144 -0.507,2.059 -0.512,1.957 -0.508,1.841 -0.498,1.743 -0.496,1.727 -0.494,1.712 -0.494,1.695 -0.493,1.685 -0.489,1.673 -0.488,1.664 -0.592,1.604 -0.689,1.533 -0.778,1.446 -0.806,1.42 -0.83,1.39 -0.854,1.36 -0.874,1.337 -0.896,1.316 -0.914,1.292 -0.923,1.296 -0.934,1.298 -0.945,1.301 -0.96,1.304 -0.977,1.308 -0.989,1.312 -1.087,1.334 -1.201,1.352 -1.301,1.362 -1.337,1.365 -1.375,1.368 -1.411,1.37 L -1.5,1.373 -1.579,1.203 C -1.591,1.181 -1.599,1.157 -1.607,1.136 L -1.644,1.026 -1.611,0.992 C -1.61,0.989 -1.568,0.948 -1.502,0.892 -1.427,0.825 -1.335,0.756 -1.25,0.701 -1.235,0.693 -1.224,0.683 -1.21,0.676 -1.202,0.671 -1.191,0.665 -1.182,0.659 -1.211,0.472 -1.203,0.28 -1.157,0.095 -1.165,0.089 -1.172,0.084 -1.181,0.077 L -1.19,0.07 C -1.202,0.063 -1.21,0.055 -1.22,0.048 -1.307,-0.02 -1.394,-0.101 -1.454,-0.164 -1.514,-0.227 -1.55,-0.272 -1.553,-0.274 l -0.031,-0.038 0.037,-0.082 c 0.014,-0.028 0.029,-0.06 0.045,-0.091 l 0.093,-0.157 0.05,0.004 c 0,0 0.016,0.002 0.042,0.006 0.027,0.002 0.063,0.01 0.106,0.017 0.099,0.019 0.211,0.048 0.304,0.079 0.011,0.003 0.024,0.007 0.035,0.012 l 0.01,0.004 c 0.011,0.005 0.02,0.007 0.032,0.008 0.009,-0.009 0.018,-0.021 0.031,-0.033 0.119,-0.123 0.258,-0.219 0.407,-0.288 0.006,-0.003 0.012,-0.007 0.017,-0.009 -0.002,-0.009 0.001,-0.02 0,-0.031 l -0.001,-0.014 c -0.001,-0.009 -0.001,-0.022 -0.001,-0.033 0,-0.111 0.009,-0.23 0.023,-0.315 0.01,-0.087 0.022,-0.142 0.023,-0.145 l 0.011,-0.049 0.13,-0.033 0.237,-0.038 0.03,0.046 c 0,0.002 0.03,0.052 0.07,0.129 0.035,0.067 0.087,0.171 0.131,0.286 0.005,0.016 0.01,0.031 0.017,0.046 0.001,0.009 0.006,0.019 0.007,0.03 0.188,0.012 0.374,0.062 0.546,0.15 0.008,-0.006 0.013,-0.014 0.024,-0.019 0.012,-0.011 0.025,-0.022 0.036,-0.031 0.097,-0.078 0.194,-0.142 0.261,-0.18 0.072,-0.044 0.126,-0.072 0.126,-0.072 l 0.045,-0.023 0.07,0.054 0.006,0.003 c 0.015,0.013 0.036,0.029 0.055,0.047 l 0.084,0.073 c 0.007,0.008 0.016,0.016 0.023,0.023 l 0.043,0.048 z"
             style="fill:#000000;fill-opacity:1;fill-rule:nonzero;stroke:none"
             id="path4723"
             inkscape:connector-curvature="0" />
        </g>
      </g>
    </g>
  </g>
</svg>
