<?xml version="1.0" encoding="UTF-8" standalone="no"?>
<!-- Generator: Adobe Illustrator 21.0.0, SVG Export Plug-In . SVG Version: 6.00 Build 0)  -->

<svg
   xmlns:dc="http://purl.org/dc/elements/1.1/"
   xmlns:cc="http://creativecommons.org/ns#"
   xmlns:rdf="http://www.w3.org/1999/02/22-rdf-syntax-ns#"
   xmlns:svg="http://www.w3.org/2000/svg"
   xmlns="http://www.w3.org/2000/svg"
   xmlns:sodipodi="http://sodipodi.sourceforge.net/DTD/sodipodi-0.dtd"
   xmlns:inkscape="http://www.inkscape.org/namespaces/inkscape"
   version="1.1"
   id="svg6419"
   inkscape:version="0.92.1 r15371"
   sodipodi:docname="Fire.svg"
   x="0px"
   y="0px"
   width="66"
   height="66"
   viewBox="0 0 65.999999 65.999999"
   xml:space="preserve"><metadata
     id="metadata8555"><rdf:RDF><cc:Work
         rdf:about=""><dc:format>image/svg+xml</dc:format><dc:type
           rdf:resource="http://purl.org/dc/dcmitype/StillImage" /></cc:Work></rdf:RDF></metadata><defs
     id="defs8553" /><style
     type="text/css"
     id="style8511">
	.st0{fill:#FAA61A;}
	.st1{opacity:0.35;}
	.st2{fill:#FFFFFF;}
	.st3{fill:#333333;}
	.st4{fill:#FF9700;}
</style><sodipodi:namedview
     bordercolor="#666666"
     borderopacity="1.0"
     id="base"
     inkscape:current-layer="layer1"
     inkscape:cx="58.502934"
     inkscape:cy="11.870593"
     inkscape:document-units="mm"
     inkscape:pageopacity="0.0"
     inkscape:pageshadow="2"
     inkscape:snap-bbox="true"
     inkscape:snap-bbox-midpoints="true"
     inkscape:window-height="1089"
     inkscape:window-maximized="1"
     inkscape:window-width="2048"
     inkscape:window-x="-8"
     inkscape:window-y="-8"
     inkscape:zoom="5.6"
     pagecolor="#ffffff"
     showgrid="false"
     inkscape:snap-nodes="false" /><g
     inkscape:groupmode="layer"
     id="layer1"
     inkscape:label="Layer 1"
     style="display:inline"
     transform="translate(0,18.799998)"><circle
       id="path7048_3_"
       class="st0"
       cx="33"
       cy="14.200002"
       style="fill:#faa61a;stroke-width:1.39830506"
       r="33" /><g
       id="g5614_3_"
       transform="matrix(1.3981032,0,0,1.3981032,47.330558,574.24616)"
       class="st1"
       style="opacity:0.35"><path
         id="path5616_3_"
         inkscape:connector-curvature="0"
         class="st2"
         d="m -17.9,-388.1 c -2.1,-2.2 -3.2,-4.5 -3.3,-7.3 1.2,0.4 1.6,1.8 2.8,2.3 -0.6,-2.4 0.6,-5.9 2.1,-8 0.1,2.1 -0.7,4.2 -0.4,6.3 0,0 1.5,3.6 3.1,0 0,-1.2 -0.1,-2.7 0.3,-3.6 0,0.7 0.6,2.7 1.4,3 1.3,0.4 1.5,-0.6 1.7,-1.2 0.5,-1.6 1.1,-3.5 0.7,-5.2 -0.3,-1.2 -1,-2.3 -1.4,-3.4 0.5,0.1 1.3,1 1.7,1.4 0.8,0.9 1.8,2.3 2.2,3.4 0.5,1.4 0.7,3.4 0.6,4.9 1.3,-0.5 2.1,-1.4 2.5,-2.5 0.4,1.7 1.4,3.2 0.5,4.8 0.7,0.1 1.5,0.2 1.7,-0.4 0.1,1.1 0,2.4 -0.4,3.4 -0.3,1 -1.6339286,3.3875 -2.5,4.4 -0.3,0.3 -0.6,0.6 -1,0.9 -1.8,1.2 -5,2.2 -8.2,0.6 -2,-0.9 -3.4,-3.1 -4.1,-3.8 m 22.7,-9.4 c -1.1,-0.4 -1.9,1.8 -2.8,2 -0.1,-0.8 0.2,-1.7 0.2,-2.6 0.1,-1.3 -0.2,-2.6 -0.6,-3.9 -0.4,-1.3 -1,-2.4 -1.5,-3.7 -0.4,0.5 -0.2,2 -1.1,2.2 -1,0.1 -1,-1.9 -1.2,-2.4 -0.5,-2.3 -2.4,-4.7 -4.3,-6.3 0.1,0.6 0.5,3.7 -0.9,2.2 -0.2,-0.2 -0.2,-0.7 -0.4,-1 -0.3,-0.4 -0.8,-0.8 -1.1,-1.2 -0.6,-0.7 -1.1,-1.4 -1.7,-2 -1.1,-1 -2.6,-2.2 -2.9,-3.6 -0.1,-0.6 0.4,-1.9 0.8,-2.4 -2.2,0.8 -2.1,4.4 -1.5,6 0.5,1.4 0.4,2.2 1.1,3.7 0.4,0.9 1.7,2.2 0.3,3 -0.3,-0.6 -0.2,-1.3 -0.5,-1.8 -0.4,-0.6 -1.4,-1.2 -2,-1.6 -1.5,-1 -2.9,-2.1 -3.3,-3.9 -1.9,2.6 2.4,5.9 1.7,8.7 -0.3,1.1 -0.5,3 -2.2,2.1 -0.8,-0.4 -1.4,-1.1 -1.7,-1.9 -0.3,-0.8 0.1,-1.5 -0.2,-2.5 -1.2,2.8 -1.4,6.1 -0.8,9 0.3,1.3 -0.1,1.4 -1.1,0.5 -0.8,-0.8 -1.7,-1.5 -2.4,-2.6 0.2,2 0.3,3.8 0.7,5.8 0.6,2.9 1.2,5.3 3.1,7.8 0.5,0.7 4.1,5 7.5,6.2 3.1,1.1 9.8,2.2 14.4,-6.2 l 1.5,-1.5 c 1.4,-1.4 1.9,-3 2.1,-4.8 0.1,-0.9 -0.5,-2.6 0.8,-3.3"
         style="fill:#ffffff"
         sodipodi:nodetypes="cccccccccccccccccccccccccsccccccccccccccscccsccccccccssc" /></g><text
       xml:space="preserve"
       style="font-style:normal;font-variant:normal;font-weight:normal;font-stretch:normal;font-size:21.33333206px;line-height:125%;font-family:Impact;-inkscape-font-specification:Impact;letter-spacing:0px;word-spacing:0px;fill:#000000;fill-opacity:1;stroke:none;stroke-width:1px;stroke-linecap:butt;stroke-linejoin:miter;stroke-opacity:1"
       x="15.260418"
       y="22.632292"
       id="text9114"><tspan
         sodipodi:role="line"
         id="tspan9112"
         x="15.260418"
         y="22.632292">FIRE</tspan></text>
</g><g
     inkscape:groupmode="layer"
     id="layer2"
     inkscape:label="Layer 2"
     style="display:none"
     transform="translate(0,18.799998)"><circle
       style="opacity:1;fill:none;fill-opacity:1;stroke:#000000;stroke-width:0.37795275;stroke-linecap:square;stroke-linejoin:miter;stroke-miterlimit:4;stroke-dasharray:none;stroke-opacity:1;paint-order:markers stroke fill"
       id="path9110"
       cx="33"
       cy="14.200001"
       r="29.228662" /></g></svg>