<?xml version="1.0" encoding="UTF-8" standalone="no"?>
<!-- Created with Inkscape (http://www.inkscape.org/) -->

<svg
   xmlns:dc="http://purl.org/dc/elements/1.1/"
   xmlns:cc="http://creativecommons.org/ns#"
   xmlns:rdf="http://www.w3.org/1999/02/22-rdf-syntax-ns#"
   xmlns:svg="http://www.w3.org/2000/svg"
   xmlns="http://www.w3.org/2000/svg"
   xmlns:sodipodi="http://sodipodi.sourceforge.net/DTD/sodipodi-0.dtd"
   xmlns:inkscape="http://www.inkscape.org/namespaces/inkscape"
   width="16.662399mm"
   height="16.662399mm"
   viewBox="0 0 16.662399 16.662399"
   version="1.1"
   id="svg6419"
   inkscape:version="0.92.1 r15371"
   sodipodi:docname="Fire.svg">
  <defs
     id="defs6413">
    <clipPath
       clipPathUnits="userSpaceOnUse"
       id="clipPath5604">
      <path
         d="m 90.504,486.49 h 9.939 v 9.937 h -9.939 z"
         id="path5602"
         inkscape:connector-curvature="0" />
    </clipPath>
    <clipPath
       clipPathUnits="userSpaceOnUse"
       id="clipPath5580">
      <path
         d="m 97.099588,501.12263 8.038392,-11.29066 -11.290925,-8.03859 -8.038397,11.29066 z"
         id="path5578"
         inkscape:connector-curvature="0" />
    </clipPath>
    <linearGradient
       x1="0"
       y1="0"
       x2="1"
       y2="0"
       gradientUnits="userSpaceOnUse"
       gradientTransform="matrix(7.0831947,-9.9489899,-9.9489899,-7.0831947,91.984581,496.35638)"
       spreadMethod="pad"
       id="linearGradient5594">
      <stop
         style="stop-opacity:1;stop-color:#000000"
         offset="0"
         id="stop5582" />
      <stop
         style="stop-opacity:1;stop-color:#000000"
         offset="0.0467682"
         id="stop5584" />
      <stop
         style="stop-opacity:1;stop-color:#e1e2e3"
         offset="0.390869"
         id="stop5586" />
      <stop
         style="stop-opacity:1;stop-color:#ffffff"
         offset="0.630707"
         id="stop5588" />
      <stop
         style="stop-opacity:1;stop-color:#000000"
         offset="0.943604"
         id="stop5590" />
      <stop
         style="stop-opacity:1;stop-color:#000000"
         offset="1"
         id="stop5592" />
    </linearGradient>
    <clipPath
       clipPathUnits="userSpaceOnUse"
       id="clipPath5546">
      <path
         d="m 104.22168,493.57611 -6.127523,-11.11841 -11.324218,6.24095 6.127522,11.11841 z"
         id="path5544"
         inkscape:connector-curvature="0" />
    </clipPath>
    <linearGradient
       x1="0"
       y1="0"
       x2="1"
       y2="0"
       gradientUnits="userSpaceOnUse"
       gradientTransform="matrix(-5.0626488,-9.1861954,-9.1861954,5.0626488,97.988975,495.96014)"
       spreadMethod="pad"
       id="linearGradient5560">
      <stop
         style="stop-opacity:1;stop-color:#000000"
         offset="0"
         id="stop5548" />
      <stop
         style="stop-opacity:1;stop-color:#000000"
         offset="0.0467682"
         id="stop5550" />
      <stop
         style="stop-opacity:1;stop-color:#e1e2e3"
         offset="0.390869"
         id="stop5552" />
      <stop
         style="stop-opacity:1;stop-color:#ffffff"
         offset="0.630707"
         id="stop5554" />
      <stop
         style="stop-opacity:1;stop-color:#000000"
         offset="0.943604"
         id="stop5556" />
      <stop
         style="stop-opacity:1;stop-color:#000000"
         offset="1"
         id="stop5558" />
    </linearGradient>
  </defs>
  <sodipodi:namedview
     id="base"
     pagecolor="#ffffff"
     bordercolor="#666666"
     borderopacity="1.0"
     inkscape:pageopacity="0.0"
     inkscape:pageshadow="2"
     inkscape:zoom="11.2"
     inkscape:cx="30.744903"
     inkscape:cy="27.40276"
     inkscape:document-units="mm"
     inkscape:current-layer="layer1"
     showgrid="false"
     inkscape:snap-bbox="true"
     inkscape:snap-bbox-midpoints="true"
     inkscape:window-width="2048"
     inkscape:window-height="1089"
     inkscape:window-x="1912"
     inkscape:window-y="411"
     inkscape:window-maximized="1" />
  <metadata
     id="metadata6416">
    <rdf:RDF>
      <cc:Work
         rdf:about="">
        <dc:format>image/svg+xml</dc:format>
        <dc:type
           rdf:resource="http://purl.org/dc/dcmitype/StillImage" />
        <dc:title></dc:title>
      </cc:Work>
    </rdf:RDF>
  </metadata>
  <g
     inkscape:label="Layer 1"
     inkscape:groupmode="layer"
     id="layer1"
     transform="translate(103.09491,-189.90815)">
    <circle
       style="opacity:1;fill:#000000;fill-opacity:1;stroke:none;stroke-width:3.39763188;stroke-linejoin:miter;stroke-miterlimit:4;stroke-dasharray:none;stroke-opacity:1"
       id="path7048"
       cx="-94.76371"
       cy="198.23935"
       r="8.3311996" />
    <g
       transform="matrix(1.5154644,0,0,-1.5159219,-239.4504,943.2513)"
       id="g5530">
      <g
         id="g5532">
        <g
           id="g5538">
          <g
             id="g5540">
            <g
               id="g5542"
               clip-path="url(#clipPath5546)">
              <path
                 d="m 93.646,495.281 c -2.122,-1.022 -3.015,-3.57 -1.994,-5.695 v 0 c 1.022,-2.122 3.57,-3.015 5.693,-1.993 v 0 c 2.123,1.021 3.016,3.569 1.994,5.693 v 0 c -0.734,1.527 -2.259,2.418 -3.846,2.418 v 0 c -0.62,0 -1.25,-0.136 -1.847,-0.423"
                 style="fill:url(#linearGradient5560);stroke:none"
                 id="path5562"
                 inkscape:connector-curvature="0" />
            </g>
          </g>
        </g>
      </g>
    </g>
    <g
       transform="matrix(1.5154644,0,0,-1.5159219,-239.4504,943.2513)"
       id="g5564">
      <g
         id="g5566">
        <g
           id="g5572">
          <g
             id="g5574">
            <g
               id="g5576"
               clip-path="url(#clipPath5580)">
              <path
                 d="m 90.504,491.457 c 0,-2.74 2.228,-4.967 4.967,-4.967 v 0 c 2.741,0 4.972,2.227 4.972,4.967 v 0 c 0,2.741 -2.231,4.969 -4.972,4.969 v 0 c -2.739,0 -4.967,-2.228 -4.967,-4.969 m 1.05,0 c 0,2.161 1.758,3.92 3.917,3.92 v 0 c 2.161,0 3.921,-1.759 3.921,-3.92 v 0 c 0,-2.159 -1.76,-3.916 -3.921,-3.916 v 0 c -2.159,0 -3.917,1.757 -3.917,3.916"
                 style="fill:url(#linearGradient5594);stroke:none"
                 id="path5596"
                 inkscape:connector-curvature="0" />
            </g>
          </g>
        </g>
      </g>
    </g>
    <g
       transform="matrix(1.5154644,0,0,-1.5159219,-239.4504,943.2513)"
       id="g5598">
      <g
         id="g5600"
         clip-path="url(#clipPath5604)">
        <g
           id="g5606"
           transform="translate(98.7844,490.8515)">
          <path
             d="m 0,0 c -0.235,0.09 -0.413,-0.394 -0.601,-0.433 -0.03,0.176 0.039,0.377 0.045,0.56 0.01,0.292 -0.042,0.559 -0.134,0.845 C -0.778,1.248 -0.9,1.507 -1.019,1.771 -1.103,1.662 -1.059,1.324 -1.255,1.296 -1.486,1.264 -1.486,1.711 -1.513,1.829 -1.633,2.323 -2.035,2.859 -2.461,3.203 -2.447,3.071 -2.347,2.397 -2.658,2.722 -2.707,2.775 -2.708,2.875 -2.749,2.934 -2.813,3.026 -2.914,3.116 -2.988,3.205 -3.111,3.355 -3.22,3.515 -3.367,3.65 -3.608,3.871 -3.944,4.123 -3.997,4.428 -4.019,4.561 -3.901,4.84 -3.822,4.941 -4.301,4.774 -4.31,3.96 -4.141,3.631 -4.011,3.377 -3.96,3.122 -3.905,2.825 -3.862,2.607 -3.785,2.398 -3.835,2.177 -3.893,2.303 -3.884,2.461 -3.953,2.575 -4.036,2.709 -4.259,2.845 -4.399,2.934 -4.738,3.148 -5.039,3.396 -5.11,3.773 -5.524,3.204 -4.587,2.487 -4.731,1.877 -4.789,1.635 -4.85,1.231 -5.208,1.422 -5.384,1.516 -5.508,1.666 -5.581,1.834 -5.656,2.008 -5.561,2.155 -5.623,2.371 -5.887,1.754 -5.932,1.044 -5.8,0.403 -5.744,0.13 -5.828,0.089 -6.052,0.302 -6.234,0.477 -6.413,0.636 -6.58,0.875 c 0.053,-0.443 0.071,-0.831 0.161,-1.27 0.13,-0.636 0.266,-1.155 0.67,-1.707 0.109,-0.147 0.83,-0.855 1.26,-1.179 l 10e-4,-0.014 c 0,0 0.026,-0.015 0.067,-0.036 0.079,-0.055 0.149,-0.1 0.193,-0.112 0.034,-0.009 0.072,-0.012 0.109,-0.019 0.677,-0.244 2.132,-0.486 3.148,1.35 0.124,0.121 0.237,0.238 0.322,0.325 0.298,0.307 0.41,0.663 0.459,1.046 C -0.162,-0.512 -0.278,-0.149 0,0"
             style="fill:#000000;fill-opacity:1;fill-rule:nonzero;stroke:none"
             id="path5608"
             inkscape:connector-curvature="0" />
        </g>
        <g
           id="g5610"
           transform="translate(94.6246,487.9255)">
          <path
             d="m 0,0 c 0.011,-0.005 0.018,-0.01 0.022,-0.013 0.033,-0.022 0.061,-0.043 0.085,-0.055 0.028,-0.005 0.077,-0.006 0.104,-0.016 0.172,-0.062 0.443,-0.136 0.748,-0.136 0.729,0 1.335,0.424 1.8,1.265 0.022,0.038 0.05,0.076 0.084,0.109 L 3.156,1.473 C 3.301,1.62 3.389,1.789 3.445,2.025 3.385,2.039 3.331,2.062 3.281,2.097 3.17,2.172 3.095,2.288 3.074,2.418 3.044,2.603 3.071,2.773 3.094,2.911 3.102,2.966 3.112,3.019 3.113,3.07 3.121,3.277 3.089,3.488 3.004,3.75 2.994,3.749 2.985,3.748 2.975,3.746 2.548,3.688 2.248,3.995 2.173,4.602 2.132,4.781 2.044,4.976 1.921,5.161 1.835,5.111 1.727,5.079 1.639,5.079 1.375,5.079 1.202,5.259 1.145,5.318 1.036,5.436 1,5.561 0.98,5.627 0.978,5.627 0.943,5.662 0.91,5.696 0.868,5.74 0.828,5.784 0.792,5.828 L 0.723,5.913 C 0.728,5.888 0.733,5.862 0.737,5.837 L 0.764,5.712 C 0.81,5.517 0.866,5.276 0.802,4.998 0.755,4.796 0.583,4.645 0.372,4.625 0.192,4.608 0.029,4.684 -0.073,4.82 -0.077,4.779 -0.083,4.736 -0.094,4.694 -0.157,4.418 -0.294,3.817 -0.881,3.817 -0.992,3.817 -1.105,3.842 -1.219,3.894 -1.211,3.737 -1.193,3.579 -1.161,3.425 -1.139,3.32 -1.079,3.031 -1.265,2.806 -1.377,2.669 -1.608,2.591 -1.777,2.617 -1.663,2.058 -1.547,1.592 -1.192,1.105 -1.105,0.994 -0.439,0.334 -0.032,0.027 -0.02,0.017 -0.01,0.01 0,0 m 0.959,-1.183 v 0 c -0.45,0 -0.839,0.107 -1.087,0.195 0.011,-0.01 -0.036,-0.003 -0.081,0.012 -0.088,0.024 -0.189,0.077 -0.336,0.179 -0.025,0.016 -0.054,0.039 -0.081,0.064 l -0.003,-0.003 c -0.45,0.339 -1.205,1.073 -1.355,1.275 -0.474,0.647 -0.627,1.266 -0.755,1.897 -0.067,0.322 -0.097,0.615 -0.127,0.921 l -0.04,0.388 c -0.027,0.22 0.103,0.429 0.314,0.507 0.134,0.047 0.276,0.037 0.396,-0.023 0.021,0.444 0.116,0.868 0.282,1.254 0.081,0.189 0.269,0.299 0.483,0.295 0.009,-10e-4 0.018,-0.002 0.025,-0.003 -0.149,0.357 -0.244,0.79 0.056,1.204 0.115,0.157 0.315,0.232 0.505,0.191 0.11,-0.024 0.205,-0.084 0.273,-0.166 -0.005,0.241 0.034,0.486 0.118,0.695 0.126,0.307 0.344,0.522 0.629,0.622 C 0.38,8.393 0.609,8.322 0.736,8.148 0.864,7.975 0.859,7.739 0.725,7.57 0.701,7.535 0.655,7.422 0.65,7.379 0.663,7.341 0.886,7.142 1.007,7.036 L 1.128,6.928 C 1.252,6.814 1.355,6.686 1.457,6.556 L 1.476,6.53 C 1.651,6.62 1.861,6.623 2.012,6.5 2.377,6.203 2.808,5.716 3.028,5.166 3.082,5.177 3.138,5.182 3.193,5.176 3.367,5.156 3.518,5.05 3.587,4.893 3.733,4.573 3.85,4.315 3.938,4.043 4.01,3.818 4.057,3.614 4.078,3.418 4.148,3.418 4.274,3.399 4.339,3.374 4.517,3.306 4.637,3.143 4.649,2.956 4.66,2.795 4.588,2.642 4.461,2.546 4.459,2.506 4.461,2.449 4.463,2.408 4.466,2.309 4.468,2.212 4.459,2.131 4.406,1.742 4.295,1.247 3.865,0.806 L 3.587,0.525 C 2.781,-0.886 1.717,-1.183 0.959,-1.183"
             style="fill:#000000;fill-opacity:1;fill-rule:nonzero;stroke:none"
             id="path5612"
             inkscape:connector-curvature="0" />
        </g>
        <g
           id="g5614"
           transform="translate(93.8867,488.9062)">
          <path
             d="M 0,0 C -0.444,0.456 -0.682,0.952 -0.703,1.547 -0.453,1.459 -0.375,1.163 -0.11,1.069 -0.245,1.573 0.02,2.321 0.336,2.75 0.364,2.309 0.187,1.865 0.255,1.423 c 0,0 0.325,-0.764 0.644,-0.009 C 0.89,1.66 0.872,1.981 0.968,2.164 0.978,2.011 1.103,1.586 1.261,1.528 1.526,1.435 1.568,1.654 1.612,1.786 1.727,2.131 1.844,2.521 1.76,2.889 1.706,3.137 1.543,3.375 1.465,3.604 1.564,3.582 1.749,3.4 1.823,3.311 1.983,3.116 2.204,2.822 2.283,2.593 2.393,2.29 2.422,1.882 2.419,1.563 2.695,1.673 2.859,1.854 2.942,2.091 3.036,1.729 3.232,1.41 3.04,1.074 3.19,1.051 3.36,1.025 3.404,1.167 3.417,0.931 3.398,0.667 3.32,0.441 3.247,0.228 2.995,-0.334 2.792,-0.489 2.72,-0.543 2.654,-0.608 2.587,-0.676 2.166,-0.861 1.594,-0.971 0.861,-0.812 0.504,-0.504 0.152,-0.155 0,0 M 4.782,1.969 C 4.555,2.056 4.385,1.589 4.202,1.551 4.173,1.723 4.24,1.918 4.245,2.091 4.256,2.374 4.204,2.63 4.118,2.907 4.031,3.171 3.913,3.422 3.798,3.676 3.719,3.571 3.76,3.247 3.571,3.219 3.35,3.188 3.35,3.62 3.321,3.733 3.208,4.21 2.819,4.727 2.408,5.059 2.419,4.932 2.519,4.281 2.217,4.594 2.17,4.645 2.169,4.744 2.129,4.799 2.067,4.889 1.969,4.975 1.9,5.061 1.778,5.206 1.676,5.359 1.532,5.491 1.301,5.704 0.977,5.947 0.926,6.241 0.904,6.368 1.017,6.638 1.094,6.736 0.631,6.574 0.624,5.789 0.786,5.472 0.912,5.227 0.962,4.981 1.014,4.694 1.055,4.483 1.377,4.239 1.081,4.069 1.026,4.191 1.034,4.344 0.967,4.453 0.887,4.582 0.673,4.714 0.537,4.799 0.211,5.006 -0.079,5.246 -0.148,5.61 -0.548,5.059 0.357,4.368 0.217,3.779 0.161,3.545 0.102,3.156 -0.243,3.34 -0.412,3.431 -0.532,3.576 -0.603,3.739 -0.675,3.906 -0.583,4.048 -0.642,4.255 -0.898,3.661 -0.941,2.975 -0.815,2.358 -0.759,2.094 -0.842,2.054 -1.057,2.261 c -0.176,0.169 -0.349,0.322 -0.51,0.551 0.051,-0.426 0.068,-0.8 0.156,-1.226 0.123,-0.614 0.257,-1.113 0.646,-1.645 0.106,-0.14 0.801,-0.827 1.215,-1.139 l 0.002,-0.013 c 0,0 0.026,-0.014 0.064,-0.035 C 0.592,-1.3 0.66,-1.342 0.703,-1.353 0.735,-1.361 0.772,-1.367 0.809,-1.372 1.46,-1.607 2.863,-1.84 3.846,-0.07 3.964,0.047 4.072,0.162 4.155,0.246 4.446,0.542 4.551,0.886 4.6,1.256 4.626,1.474 4.514,1.826 4.782,1.969"
             style="fill:#faa61a;fill-opacity:1;fill-rule:nonzero;stroke:none"
             id="path5616"
             inkscape:connector-curvature="0" />
        </g>
      </g>
    </g>
  </g>
</svg>
