<?xml version="1.0" encoding="utf-8"?>
<!-- Generator: Adobe Illustrator 21.0.0, SVG Export Plug-In . SVG Version: 6.00 Build 0)  -->
<svg version="1.1"
	 id="svg6419" inkscape:version="0.92.1 r15371" sodipodi:docname="Fire.svg" xmlns:cc="http://creativecommons.org/ns#" xmlns:dc="http://purl.org/dc/elements/1.1/" xmlns:inkscape="http://www.inkscape.org/namespaces/inkscape" xmlns:rdf="http://www.w3.org/1999/02/22-rdf-syntax-ns#" xmlns:sodipodi="http://sodipodi.sourceforge.net/DTD/sodipodi-0.dtd" xmlns:svg="http://www.w3.org/2000/svg"
	 xmlns="http://www.w3.org/2000/svg" xmlns:xlink="http://www.w3.org/1999/xlink" x="0px" y="0px" width="47.2px" height="47.2px"
	 viewBox="0 0 47.2 47.2" style="enable-background:new 0 0 47.2 47.2;" xml:space="preserve">
<style type="text/css">
	.st0{fill:#FAA61A;}
	.st1{opacity:0.35;}
	.st2{fill:#FFFFFF;}
	.st3{fill:#333333;}
	.st4{fill:#FF9700;}
</style>
<sodipodi:namedview  bordercolor="#666666" borderopacity="1.0" id="base" inkscape:current-layer="layer1" inkscape:cx="30.744903" inkscape:cy="27.40276" inkscape:document-units="mm" inkscape:pageopacity="0.0" inkscape:pageshadow="2" inkscape:snap-bbox="true" inkscape:snap-bbox-midpoints="true" inkscape:window-height="1089" inkscape:window-maximized="1" inkscape:window-width="2048" inkscape:window-x="1912" inkscape:window-y="411" inkscape:zoom="11.2" pagecolor="#ffffff" showgrid="false">
	</sodipodi:namedview>
<circle id="path7048" class="st0" cx="23.6" cy="23.6" r="23.6"/>
<g id="g5614" transform="translate(93.8867,488.9062)">
	<path id="path5616" inkscape:connector-curvature="0" d="M-77.2-454.1c-1.9-2-2.9-4.1-3-6.6c1.1,0.4,1.4,1.7,2.5,2.1
		c-0.6-2.2,0.6-5.4,1.9-7.2c0.1,1.9-0.6,3.8-0.3,5.7c0,0,1.4,3.3,2.8,0c0-1.1-0.1-2.4,0.3-3.2c0,0.7,0.6,2.5,1.3,2.7
		c1.1,0.4,1.3-0.5,1.5-1.1c0.5-1.5,1-3.2,0.6-4.7c-0.2-1.1-0.9-2.1-1.3-3.1c0.4,0.1,1.2,0.9,1.5,1.3c0.7,0.8,1.6,2.1,2,3.1
		c0.5,1.3,0.6,3.1,0.6,4.4c1.2-0.5,1.9-1.3,2.2-2.3c0.4,1.6,1.2,2.9,0.4,4.4c0.6,0.1,1.4,0.2,1.6-0.4c0.1,1,0,2.1-0.4,3.1
		c-0.3,0.9-1.4,3.3-2.3,4c-0.3,0.2-0.6,0.5-0.9,0.8c-1.8,0.8-4.3,1.3-7.4,0.6C-75-451.9-76.5-453.4-77.2-454.1 M-56.6-462.6
		c-1-0.4-1.7,1.6-2.5,1.8c-0.1-0.7,0.2-1.6,0.2-2.3c0-1.2-0.2-2.3-0.5-3.5c-0.4-1.1-0.9-2.2-1.4-3.3c-0.3,0.5-0.2,1.8-1,2
		c-0.9,0.1-0.9-1.7-1.1-2.2c-0.5-2-2.2-4.3-3.9-5.7c0,0.5,0.5,3.3-0.8,2c-0.2-0.2-0.2-0.6-0.4-0.9c-0.3-0.4-0.7-0.8-1-1.1
		c-0.5-0.6-1-1.3-1.6-1.8c-1-0.9-2.4-2-2.6-3.2c-0.1-0.5,0.4-1.7,0.7-2.1c-2,0.7-2,4.1-1.3,5.4c0.5,1.1,0.8,2.1,1,3.3
		c0.2,0.9,1.6,2,0.3,2.7c-0.2-0.5-0.2-1.2-0.5-1.7c-0.3-0.6-1.3-1.1-1.8-1.5c-1.4-0.9-2.6-1.9-2.9-3.5c-1.7,2.4,2.2,5.3,1.6,7.9
		c-0.2,1-0.5,2.7-2,1.9c-0.7-0.4-1.2-1-1.5-1.7c-0.3-0.7,0.1-1.3-0.2-2.2c-1.1,2.6-1.3,5.5-0.7,8.2c0.2,1.1-0.1,1.3-1,0.4
		c-0.8-0.7-1.5-1.4-2.2-2.4c0.2,1.8,0.3,3.4,0.7,5.3c0.5,2.6,1.1,4.8,2.8,7.1c0.5,0.6,3.4,3.6,5.2,4.9l0,0.1c0,0,0.1,0.1,0.3,0.2
		c0.3,0.2,0.6,0.4,0.8,0.5c0.1,0,0.3,0.1,0.5,0.1c2.8,1,8.8,2,13-5.6c0.5-0.5,1-1,1.3-1.4c1.3-1.3,1.7-2.8,1.9-4.3
		C-57.3-460.4-57.8-462-56.6-462.6"/>
</g>
<circle id="path7048_1_" class="st0" cx="83.6" cy="23.6" r="23.6"/>
<g id="g5614_1_" transform="translate(93.8867,488.9062)" class="st1">
	<path id="path5616_1_" inkscape:connector-curvature="0" class="st2" d="M-15.7-461.4c-1.5-1.6-2.4-3.3-2.5-5.4
		c0.9,0.3,1.1,1.3,2.1,1.7c-0.5-1.8,0.5-4.4,1.6-5.9c0.1,1.5-0.5,3.1-0.3,4.6c0,0,1.1,2.7,2.2,0c0-0.9-0.1-2,0.2-2.6
		c0,0.5,0.5,2,1,2.2c0.9,0.3,1.1-0.4,1.2-0.9c0.4-1.2,0.8-2.6,0.5-3.8c-0.2-0.9-0.8-1.7-1-2.5c0.3,0.1,1,0.7,1.2,1
		c0.6,0.7,1.3,1.7,1.6,2.5c0.4,1.1,0.5,2.5,0.5,3.6c1-0.4,1.5-1,1.8-1.8c0.3,1.3,1,2.4,0.3,3.5c0.5,0.1,1.1,0.2,1.3-0.3
		c0,0.8,0,1.7-0.3,2.5c-0.3,0.7-1.1,2.7-1.8,3.2c-0.3,0.2-0.5,0.4-0.7,0.7c-1.5,0.6-3.5,1-6,0.5C-14-459.7-15.2-460.9-15.7-461.4
		 M0.9-468.3c-0.8-0.3-1.4,1.3-2,1.5c-0.1-0.6,0.1-1.3,0.1-1.9c0-1-0.1-1.9-0.4-2.8c-0.3-0.9-0.7-1.8-1.1-2.7
		c-0.3,0.4-0.1,1.5-0.8,1.6c-0.8,0.1-0.8-1.4-0.9-1.8c-0.4-1.7-1.8-3.5-3.2-4.6c0,0.4,0.4,2.7-0.7,1.6c-0.2-0.2-0.2-0.5-0.3-0.7
		c-0.2-0.3-0.6-0.6-0.8-0.9c-0.4-0.5-0.8-1-1.3-1.5c-0.8-0.7-1.9-1.6-2.1-2.6c-0.1-0.4,0.3-1.4,0.6-1.7c-1.6,0.6-1.6,3.3-1.1,4.4
		c0.4,0.9,0.6,1.7,0.8,2.7c0.1,0.7,1.3,1.6,0.2,2.2c-0.2-0.4-0.2-1-0.4-1.3c-0.3-0.4-1-0.9-1.5-1.2c-1.1-0.7-2.1-1.6-2.4-2.8
		c-1.4,1.9,1.8,4.3,1.3,6.4c-0.2,0.8-0.4,2.2-1.6,1.5c-0.6-0.3-1-0.8-1.3-1.4c-0.3-0.6,0.1-1.1-0.1-1.8c-0.9,2.1-1,4.5-0.6,6.6
		c0.2,0.9-0.1,1.1-0.8,0.3c-0.6-0.6-1.2-1.1-1.8-1.9c0.2,1.5,0.2,2.8,0.5,4.3c0.4,2.1,0.9,3.9,2.3,5.7c0.4,0.5,2.8,2.9,4.2,4l0,0
		c0,0,0.1,0,0.2,0.1c0.3,0.2,0.5,0.3,0.7,0.4c0.1,0,0.2,0,0.4,0.1c2.3,0.8,7.2,1.6,10.6-4.5c0.4-0.4,0.8-0.8,1.1-1.1
		c1-1,1.4-2.2,1.6-3.5C0.4-466.6,0-467.8,0.9-468.3"/>
</g>
<g>
	<path d="M76.7,36.2h3v1.4h-1.2v1.3h1.1v1.3h-1.1v2.9h-1.8V36.2z"/>
	<path d="M82,36.2v6.9h-1.8v-6.9H82z"/>
	<path d="M82.7,36.2H84c0.8,0,1.4,0,1.7,0.1c0.3,0.1,0.5,0.2,0.7,0.5c0.2,0.3,0.3,0.7,0.3,1.3c0,0.5-0.1,0.9-0.2,1.1
		c-0.1,0.2-0.4,0.3-0.8,0.3c0.4,0.1,0.6,0.2,0.7,0.4c0.1,0.1,0.2,0.3,0.2,0.4s0,0.5,0,1v1.8H85v-2.3c0-0.4,0-0.6-0.1-0.7
		C84.9,40,84.7,40,84.5,40v3.1h-1.8V36.2z M84.5,37.3v1.5c0.2,0,0.3,0,0.4-0.1s0.1-0.2,0.1-0.5v-0.4c0-0.2,0-0.4-0.1-0.4
		C84.8,37.4,84.7,37.3,84.5,37.3z"/>
	<path d="M87.4,36.2h3v1.4h-1.2v1.3h1.1v1.3h-1.1v1.5h1.3v1.4h-3.1V36.2z"/>
</g>
<circle id="path7048_3_" class="st0" cx="83.6" cy="88.4" r="23.6"/>
<g id="g5614_3_" transform="translate(93.8867,488.9062)" class="st1">
	<path id="path5616_3_" inkscape:connector-curvature="0" class="st2" d="M-17.9-388.1c-2.1-2.2-3.2-4.5-3.3-7.3
		c1.2,0.4,1.6,1.8,2.8,2.3c-0.6-2.4,0.6-5.9,2.1-8c0.1,2.1-0.7,4.2-0.4,6.3c0,0,1.5,3.6,3.1,0c0-1.2-0.1-2.7,0.3-3.6
		c0,0.7,0.6,2.7,1.4,3c1.3,0.4,1.5-0.6,1.7-1.2c0.5-1.6,1.1-3.5,0.7-5.2c-0.3-1.2-1-2.3-1.4-3.4c0.5,0.1,1.3,1,1.7,1.4
		c0.8,0.9,1.8,2.3,2.2,3.4c0.5,1.4,0.7,3.4,0.6,4.9c1.3-0.5,2.1-1.4,2.5-2.5c0.4,1.7,1.4,3.2,0.5,4.8c0.7,0.1,1.5,0.2,1.7-0.4
		c0.1,1.1,0,2.4-0.4,3.4c-0.3,1-1.5,3.7-2.5,4.4c-0.3,0.3-0.6,0.6-1,0.9c-1.8,1.2-5,2.2-8.2,0.6C-15.8-385.2-17.2-387.4-17.9-388.1
		 M4.8-397.5c-1.1-0.4-1.9,1.8-2.8,2c-0.1-0.8,0.2-1.7,0.2-2.6c0.1-1.3-0.2-2.6-0.6-3.9c-0.4-1.3-1-2.4-1.5-3.7
		c-0.4,0.5-0.2,2-1.1,2.2c-1,0.1-1-1.9-1.2-2.4c-0.5-2.3-2.4-4.7-4.3-6.3c0.1,0.6,0.5,3.7-0.9,2.2c-0.2-0.2-0.2-0.7-0.4-1
		c-0.3-0.4-0.8-0.8-1.1-1.2c-0.6-0.7-1.1-1.4-1.7-2c-1.1-1-2.6-2.2-2.9-3.6c-0.1-0.6,0.4-1.9,0.8-2.4c-2.2,0.8-2.1,4.4-1.5,6
		c0.5,1.4,0.4,2.2,1.1,3.7c0.4,0.9,1.7,2.2,0.3,3c-0.3-0.6-0.2-1.3-0.5-1.8c-0.4-0.6-1.4-1.2-2-1.6c-1.5-1-2.9-2.1-3.3-3.9
		c-1.9,2.6,2.4,5.9,1.7,8.7c-0.3,1.1-0.5,3-2.2,2.1c-0.8-0.4-1.4-1.1-1.7-1.9c-0.3-0.8,0.1-1.5-0.2-2.5c-1.2,2.8-1.4,6.1-0.8,9
		c0.3,1.3-0.1,1.4-1.1,0.5c-0.8-0.8-1.7-1.5-2.4-2.6c0.2,2,0.3,3.8,0.7,5.8c0.6,2.9,1.2,5.3,3.1,7.8c0.5,0.7,4.1,5,7.5,6.2
		c3.1,1.1,9.8,2.2,14.4-6.2c0.6-0.6,1.1-1.1,1.5-1.5c1.4-1.4,1.9-3,2.1-4.8C4.1-395.1,3.5-396.8,4.8-397.5"/>
</g>
<g>
	<path d="M71.3,82.3h5.4v2.5h-2.2v2.3h2v2.3h-2v5.2h-3.2V82.3z"/>
	<path d="M80.7,82.3v12.3h-3.2V82.3H80.7z"/>
	<path d="M82,82.3h2.3c1.5,0,2.5,0.1,3.1,0.2c0.5,0.1,1,0.4,1.3,0.9c0.3,0.5,0.5,1.2,0.5,2.3c0,1-0.1,1.6-0.4,1.9
		c-0.2,0.3-0.7,0.5-1.4,0.6c0.6,0.2,1.1,0.4,1.3,0.6c0.2,0.3,0.4,0.5,0.4,0.7c0.1,0.2,0.1,0.8,0.1,1.8v3.2h-3v-4.1
		c0-0.7-0.1-1.1-0.2-1.2c-0.1-0.2-0.4-0.2-0.8-0.2v5.5H82V82.3z M85.2,84.4v2.7c0.4,0,0.6,0,0.8-0.1c0.1-0.1,0.2-0.4,0.2-1v-0.7
		c0-0.4-0.1-0.6-0.2-0.8C85.8,84.5,85.6,84.4,85.2,84.4z"/>
	<path d="M90.4,82.3h5.3v2.5h-2.1v2.3h2v2.3h-2v2.7h2.3v2.5h-5.5V82.3z"/>
</g>
<g>
	<g id="path7048_2_">
		<path class="st3" d="M158.9,45.7c-12.2,0-22.1-9.9-22.1-22.1c0-12.2,9.9-22.1,22.1-22.1S181,11.4,181,23.6
			C181,35.8,171.1,45.7,158.9,45.7z"/>
		<path class="st4" d="M158.9,3c11.4,0,20.6,9.2,20.6,20.6s-9.2,20.6-20.6,20.6s-20.6-9.2-20.6-20.6S147.5,3,158.9,3 M158.9,0
			c-13,0-23.6,10.6-23.6,23.6s10.6,23.6,23.6,23.6c13,0,23.6-10.6,23.6-23.6S171.9,0,158.9,0L158.9,0z"/>
	</g>
	<g id="g5614_2_" transform="translate(93.8867,488.9062)">
		<path id="path5616_2_" inkscape:connector-curvature="0" class="st0" d="M58.8-455.3c-1.7-1.7-2.6-3.6-2.7-5.9
			c1,0.3,1.3,1.5,2.3,1.8c-0.5-1.9,0.5-4.8,1.7-6.4c0.1,1.7-0.6,3.4-0.3,5.1c0,0,1.2,2.9,2.5,0c0-0.9-0.1-2.2,0.3-2.9
			c0,0.6,0.5,2.2,1.1,2.4c1,0.4,1.2-0.5,1.3-1c0.4-1.3,0.9-2.8,0.6-4.2c-0.2-0.9-0.8-1.9-1.1-2.7c0.4,0.1,1.1,0.8,1.4,1.1
			c0.6,0.7,1.5,1.9,1.8,2.7c0.4,1.2,0.5,2.7,0.5,3.9c1.1-0.4,1.7-1.1,2-2c0.4,1.4,1.1,2.6,0.4,3.9c0.6,0.1,1.2,0.2,1.4-0.4
			c0,0.9,0,1.9-0.3,2.8c-0.3,0.8-1.2,3-2,3.6c-0.3,0.2-0.5,0.5-0.8,0.7c-1.6,0.7-3.8,1.1-6.6,0.5C60.8-453.4,59.4-454.7,58.8-455.3
			 M77.1-462.9c-0.9-0.3-1.5,1.5-2.2,1.6c-0.1-0.7,0.1-1.4,0.2-2.1c0-1.1-0.2-2.1-0.5-3.1c-0.3-1-0.8-2-1.2-2.9
			c-0.3,0.4-0.1,1.6-0.9,1.7c-0.8,0.1-0.8-1.5-1-2c-0.4-1.8-1.9-3.8-3.5-5.1c0,0.5,0.4,3-0.7,1.8c-0.2-0.2-0.2-0.6-0.3-0.8
			c-0.2-0.3-0.6-0.7-0.9-1c-0.5-0.6-0.9-1.1-1.4-1.6c-0.9-0.8-2.1-1.7-2.3-2.9c-0.1-0.5,0.3-1.5,0.6-1.9c-1.8,0.6-1.8,3.6-1.2,4.8
			c0.5,0.9,0.7,1.9,0.9,3c0.2,0.8,1.4,1.7,0.3,2.4c-0.2-0.5-0.2-1.1-0.4-1.5c-0.3-0.5-1.1-1-1.6-1.3c-1.2-0.8-2.4-1.7-2.6-3.1
			c-1.5,2.1,1.9,4.7,1.4,7c-0.2,0.9-0.4,2.4-1.8,1.7c-0.6-0.3-1.1-0.9-1.4-1.5c-0.3-0.6,0.1-1.2-0.1-2c-1,2.3-1.1,4.9-0.7,7.3
			c0.2,1-0.1,1.2-0.9,0.4c-0.7-0.6-1.3-1.2-1.9-2.1c0.2,1.6,0.3,3.1,0.6,4.7c0.5,2.3,1,4.3,2.5,6.3c0.4,0.5,3.1,3.2,4.6,4.4l0,0
			c0,0,0.1,0.1,0.2,0.1c0.3,0.2,0.6,0.4,0.7,0.4c0.1,0,0.3,0.1,0.4,0.1c2.5,0.9,7.9,1.8,11.6-5c0.5-0.4,0.9-0.9,1.2-1.2
			c1.1-1.1,1.5-2.4,1.7-3.9C76.5-461,76.1-462.3,77.1-462.9"/>
	</g>
</g>
</svg>
