<?xml version="1.0" encoding="UTF-8" standalone="no"?>
<!-- Created with Inkscape (http://www.inkscape.org/) -->

<svg
   xmlns:dc="http://purl.org/dc/elements/1.1/"
   xmlns:cc="http://creativecommons.org/ns#"
   xmlns:rdf="http://www.w3.org/1999/02/22-rdf-syntax-ns#"
   xmlns:svg="http://www.w3.org/2000/svg"
   xmlns="http://www.w3.org/2000/svg"
   xmlns:sodipodi="http://sodipodi.sourceforge.net/DTD/sodipodi-0.dtd"
   xmlns:inkscape="http://www.inkscape.org/namespaces/inkscape"
   width="16.662399mm"
   height="16.636999mm"
   viewBox="0 0 16.662399 16.636999"
   version="1.1"
   id="svg9364"
   inkscape:version="0.92.1 r15371"
   sodipodi:docname="Magical.svg">
  <defs
     id="defs9358">
    <clipPath
       clipPathUnits="userSpaceOnUse"
       id="clipPath6549">
      <path
         d="m 54,101.757 h 9.939 v 9.938 H 54 Z"
         id="path6547"
         inkscape:connector-curvature="0" />
    </clipPath>
    <clipPath
       clipPathUnits="userSpaceOnUse"
       id="clipPath6525">
      <path
         d="m 60.595791,116.38993 8.039061,-11.2916 -11.291629,-8.039084 -8.039061,11.291594 z"
         id="path6523"
         inkscape:connector-curvature="0" />
    </clipPath>
    <linearGradient
       x1="0"
       y1="0"
       x2="1"
       y2="0"
       gradientUnits="userSpaceOnUse"
       gradientTransform="matrix(7.0842422,-9.950465,-9.950465,-7.0842422,55.480369,111.62403)"
       spreadMethod="pad"
       id="linearGradient6539">
      <stop
         style="stop-opacity:1;stop-color:#000000"
         offset="0"
         id="stop6527" />
      <stop
         style="stop-opacity:1;stop-color:#000000"
         offset="0.0467615"
         id="stop6529" />
      <stop
         style="stop-opacity:1;stop-color:#e1e2e3"
         offset="0.390871"
         id="stop6531" />
      <stop
         style="stop-opacity:1;stop-color:#ffffff"
         offset="0.630703"
         id="stop6533" />
      <stop
         style="stop-opacity:1;stop-color:#000000"
         offset="0.943597"
         id="stop6535" />
      <stop
         style="stop-opacity:1;stop-color:#000000"
         offset="1"
         id="stop6537" />
    </linearGradient>
    <clipPath
       clipPathUnits="userSpaceOnUse"
       id="clipPath6491">
      <path
         d="M 67.718922,108.84246 61.59076,97.722877 50.26511,103.9646 l 6.128163,11.11959 z"
         id="path6489"
         inkscape:connector-curvature="0" />
    </clipPath>
    <linearGradient
       x1="0"
       y1="0"
       x2="1"
       y2="0"
       gradientUnits="userSpaceOnUse"
       gradientTransform="matrix(-5.0634598,-9.1876771,-9.1876771,5.0634598,61.484847,111.2274)"
       spreadMethod="pad"
       id="linearGradient6505">
      <stop
         style="stop-opacity:1;stop-color:#000000"
         offset="0"
         id="stop6493" />
      <stop
         style="stop-opacity:1;stop-color:#000000"
         offset="0.0467615"
         id="stop6495" />
      <stop
         style="stop-opacity:1;stop-color:#e1e2e3"
         offset="0.390871"
         id="stop6497" />
      <stop
         style="stop-opacity:1;stop-color:#ffffff"
         offset="0.630703"
         id="stop6499" />
      <stop
         style="stop-opacity:1;stop-color:#000000"
         offset="0.943597"
         id="stop6501" />
      <stop
         style="stop-opacity:1;stop-color:#000000"
         offset="1"
         id="stop6503" />
    </linearGradient>
  </defs>
  <sodipodi:namedview
     id="base"
     pagecolor="#ffffff"
     bordercolor="#666666"
     borderopacity="1.0"
     inkscape:pageopacity="0.0"
     inkscape:pageshadow="2"
     inkscape:zoom="5.6"
     inkscape:cx="-12.394176"
     inkscape:cy="21.622156"
     inkscape:document-units="mm"
     inkscape:current-layer="layer1"
     showgrid="false"
     inkscape:snap-bbox="true"
     inkscape:snap-bbox-midpoints="true"
     inkscape:window-width="2048"
     inkscape:window-height="1089"
     inkscape:window-x="1912"
     inkscape:window-y="411"
     inkscape:window-maximized="1" />
  <metadata
     id="metadata9361">
    <rdf:RDF>
      <cc:Work
         rdf:about="">
        <dc:format>image/svg+xml</dc:format>
        <dc:type
           rdf:resource="http://purl.org/dc/dcmitype/StillImage" />
        <dc:title></dc:title>
      </cc:Work>
    </rdf:RDF>
  </metadata>
  <g
     inkscape:label="Layer 1"
     inkscape:groupmode="layer"
     id="layer1"
     transform="translate(-102.55798,-140.81897)">
    <ellipse
       style="opacity:1;fill:#000000;fill-opacity:1;stroke:none;stroke-width:0;stroke-linejoin:miter;stroke-miterlimit:4;stroke-dasharray:none;stroke-opacity:1"
       id="path10013"
       cx="110.88918"
       cy="149.13747"
       rx="8.3311996"
       ry="8.3184996" />
    <g
       transform="matrix(1.5154643,0,0,-1.5156168,21.489178,310.85852)"
       id="g6475">
      <g
         id="g6477">
        <g
           id="g6483">
          <g
             id="g6485">
            <g
               id="g6487"
               clip-path="url(#clipPath6491)">
              <path
                 d="m 57.143,110.548 c -2.124,-1.022 -3.017,-3.57 -1.995,-5.695 v 0 c 1.022,-2.123 3.569,-3.016 5.694,-1.993 v 0 c 2.123,1.021 3.016,3.57 1.993,5.693 v 0 c -0.733,1.527 -2.259,2.417 -3.846,2.417 v 0 c -0.62,0 -1.249,-0.136 -1.846,-0.422"
                 style="fill:url(#linearGradient6505);stroke:none"
                 id="path6507"
                 inkscape:connector-curvature="0" />
            </g>
          </g>
        </g>
      </g>
    </g>
    <g
       transform="matrix(1.5154643,0,0,-1.5156168,21.489178,310.85852)"
       id="g6509">
      <g
         id="g6511">
        <g
           id="g6517">
          <g
             id="g6519">
            <g
               id="g6521"
               clip-path="url(#clipPath6525)">
              <path
                 d="m 54,106.723 c 0,-2.696 2.156,-4.895 4.832,-4.966 v 0 H 59.1 c 2.68,0.071 4.839,2.27 4.839,4.966 v 0 c 0,2.741 -2.231,4.972 -4.973,4.972 v 0 c -2.738,0 -4.966,-2.231 -4.966,-4.972 m 1.05,0 c 0,2.162 1.757,3.922 3.916,3.922 v 0 c 2.163,0 3.922,-1.76 3.922,-3.922 v 0 c 0,-2.16 -1.759,-3.916 -3.922,-3.916 v 0 c -2.159,0 -3.916,1.756 -3.916,3.916"
                 style="fill:url(#linearGradient6539);stroke:none"
                 id="path6541"
                 inkscape:connector-curvature="0" />
            </g>
          </g>
        </g>
      </g>
    </g>
    <g
       transform="matrix(1.5154643,0,0,-1.5156168,21.489178,310.85852)"
       id="g6543">
      <g
         id="g6545"
         clip-path="url(#clipPath6549)">
        <g
           id="g6551"
           transform="translate(58.2407,106.7036)">
          <path
             d="m 0,0 c -0.091,0.152 -0.412,0.677 -0.747,1.039 -0.314,0.339 -0.9,0.631 -1.073,0.712 l -0.447,0.211 0.44,0.226 c 0.007,0.004 0.707,0.364 1.037,0.671 0.353,0.326 0.693,0.903 0.789,1.072 L 0.22,4.321 0.427,3.924 C 0.482,3.818 0.775,3.272 1.119,2.901 1.424,2.571 2.145,2.192 2.153,2.189 L 2.552,1.979 2.157,1.76 C 2.15,1.756 1.493,1.391 1.163,1.082 0.793,0.74 0.486,0.135 0.428,0.017 L 0.23,-0.388 Z"
             style="fill:#f6f194;fill-opacity:1;fill-rule:nonzero;stroke:none"
             id="path6553"
             inkscape:connector-curvature="0" />
        </g>
        <g
           id="g6555"
           transform="translate(58.4692,111.5351)">
          <path
             d="M 0,0 -0.442,-0.78 C -0.533,-0.941 -0.857,-1.492 -1.184,-1.793 -1.437,-2.029 -1.979,-2.33 -2.167,-2.426 l -0.88,-0.453 0.895,-0.422 c 0.335,-0.158 0.772,-0.413 0.997,-0.656 0.254,-0.274 0.537,-0.696 0.717,-0.999 l 0.46,-0.776 0.397,0.81 c 0.054,0.111 0.342,0.681 0.68,0.992 0.257,0.24 0.771,0.546 0.948,0.645 l 0.791,0.438 -0.801,0.42 c -0.266,0.139 -0.763,0.442 -0.967,0.662 -0.324,0.349 -0.603,0.869 -0.655,0.97 z m -0.017,-1.02 c 0.07,-0.137 0.37,-0.689 0.729,-1.076 0.338,-0.365 1.099,-0.763 1.099,-0.763 0,0 -0.686,-0.379 -1.044,-0.713 -0.396,-0.367 -0.713,-0.985 -0.786,-1.135 -0.079,0.133 -0.418,0.693 -0.778,1.08 -0.339,0.367 -0.939,0.669 -1.147,0.767 0,0 0.733,0.375 1.091,0.709 0.393,0.362 0.754,0.987 0.836,1.131"
             style="fill:#000000;fill-opacity:1;fill-rule:nonzero;stroke:none"
             id="path6557"
             inkscape:connector-curvature="0" />
        </g>
        <g
           id="g6559"
           transform="translate(56.3557,104.8761)">
          <path
             d="m 0,0 c -0.047,0.079 -0.172,0.28 -0.299,0.418 -0.084,0.089 -0.318,0.231 -0.419,0.286 l -0.39,0.215 0.391,0.214 c 0.079,0.042 0.306,0.174 0.405,0.266 C -0.22,1.484 -0.11,1.634 0,1.819 L 0.234,2.218 0.431,1.799 C 0.506,1.64 0.593,1.502 0.677,1.412 0.797,1.281 0.999,1.164 1.058,1.131 L 1.412,0.935 1.073,0.713 C 1.069,0.712 0.821,0.551 0.69,0.429 0.56,0.31 0.461,0.093 0.433,0.029 L 0.245,-0.407 Z"
             style="fill:#f6f194;fill-opacity:1;fill-rule:nonzero;stroke:none"
             id="path6561"
             inkscape:connector-curvature="0" />
        </g>
        <g
           id="g6563"
           transform="translate(56.6135,107.6167)">
          <path
             d="m 0,0 -0.469,-0.798 c -0.095,-0.164 -0.193,-0.296 -0.268,-0.366 -0.059,-0.054 -0.231,-0.163 -0.355,-0.23 l -0.779,-0.427 0.778,-0.429 c 0.143,-0.079 0.314,-0.193 0.358,-0.24 0.077,-0.083 0.175,-0.221 0.268,-0.376 l 0.49,-0.816 0.376,0.874 c 0.058,0.133 0.137,0.261 0.197,0.315 0.084,0.079 0.26,0.202 0.351,0.262 l 0.679,0.442 -0.708,0.393 c -0.133,0.074 -0.256,0.163 -0.32,0.232 -0.067,0.072 -0.141,0.19 -0.205,0.325 z m -0.048,-1.046 c 0.045,-0.095 0.147,-0.297 0.288,-0.45 0.137,-0.147 0.341,-0.27 0.442,-0.326 0,0 -0.273,-0.178 -0.416,-0.31 -0.156,-0.144 -0.269,-0.377 -0.315,-0.483 -0.057,0.096 -0.188,0.303 -0.329,0.458 -0.138,0.148 -0.48,0.335 -0.48,0.335 0,0 0.31,0.168 0.453,0.3 0.157,0.146 0.298,0.376 0.357,0.476"
             style="fill:#000000;fill-opacity:1;fill-rule:nonzero;stroke:none"
             id="path6565"
             inkscape:connector-curvature="0" />
        </g>
        <g
           id="g6567"
           transform="translate(61.1376,106.0993)">
          <path
             d="m 0,0 c -0.054,0.128 -0.119,0.232 -0.184,0.291 -0.1,0.095 -0.283,0.211 -0.286,0.213 l -0.312,0.202 0.309,0.206 c 0.058,0.038 0.204,0.14 0.299,0.242 0.089,0.097 0.153,0.251 0.169,0.296 L 0.171,1.906 0.43,1.492 C 0.557,1.289 0.643,1.192 0.693,1.146 0.762,1.082 0.935,0.974 1.028,0.92 L 1.421,0.692 1.014,0.491 C 0.892,0.431 0.732,0.333 0.686,0.284 0.58,0.17 0.474,0.025 0.423,-0.047 L 0.171,-0.401 Z"
             style="fill:#f6f194;fill-opacity:1;fill-rule:nonzero;stroke:none"
             id="path6569"
             inkscape:connector-curvature="0" />
        </g>
        <g
           id="g6571"
           transform="translate(61.2549,108.548)">
          <path
             d="M 0,0 -0.349,-0.912 C -0.383,-1 -0.431,-1.086 -0.47,-1.127 -0.524,-1.187 -0.62,-1.264 -0.725,-1.334 l -0.618,-0.412 0.624,-0.403 c 0.07,-0.046 0.195,-0.133 0.25,-0.185 0.031,-0.029 0.08,-0.098 0.128,-0.21 l 0.34,-0.803 0.507,0.711 c 0.049,0.072 0.149,0.206 0.24,0.304 0.031,0.029 0.158,0.106 0.258,0.155 l 0.813,0.404 -0.784,0.455 c -0.103,0.059 -0.248,0.154 -0.292,0.194 -0.032,0.03 -0.103,0.108 -0.222,0.297 z m 0.107,-1.086 c 0.057,-0.092 0.18,-0.281 0.304,-0.396 0.114,-0.105 0.377,-0.257 0.377,-0.257 0,0 -0.291,-0.144 -0.398,-0.261 -0.114,-0.121 -0.228,-0.277 -0.282,-0.354 -0.037,0.087 -0.119,0.261 -0.244,0.375 -0.112,0.106 -0.319,0.24 -0.319,0.24 0.079,0.052 0.233,0.161 0.342,0.279 0.111,0.119 0.186,0.286 0.22,0.374"
             style="fill:#000000;fill-opacity:1;fill-rule:nonzero;stroke:none"
             id="path6573"
             inkscape:connector-curvature="0" />
        </g>
        <g
           id="g6575"
           transform="translate(59.3255,103.0318)">
          <path
             d="m 0,0 c -0.046,0.075 -0.285,0.466 -0.53,0.73 -0.174,0.187 -0.499,0.378 -0.745,0.493 l -0.454,0.213 0.016,0.009 -0.008,0.003 0.444,0.218 c 0.109,0.052 0.48,0.241 0.72,0.463 0.252,0.232 0.489,0.631 0.556,0.747 L 0.23,3.28 0.431,2.86 C 0.464,2.789 0.646,2.42 0.89,2.156 1.062,1.97 1.454,1.733 1.592,1.658 L 1.967,1.451 1.598,1.235 C 1.593,1.232 1.145,0.968 0.919,0.758 0.722,0.576 0.538,0.26 0.431,0.024 L 0.239,-0.397 Z"
             style="fill:#f6f194;fill-opacity:1;fill-rule:nonzero;stroke:none"
             id="path6577"
             inkscape:connector-curvature="0" />
        </g>
        <g
           id="g6579"
           transform="translate(59.5756,106.8366)">
          <path
             d="m 0,0 -0.463,-0.808 c -0.129,-0.223 -0.33,-0.523 -0.51,-0.691 -0.17,-0.157 -0.453,-0.321 -0.66,-0.422 l -0.892,-0.433 0.016,-0.008 -0.025,-0.013 0.906,-0.428 c 0.214,-0.1 0.519,-0.276 0.669,-0.439 0.228,-0.246 0.456,-0.617 0.5,-0.689 l 0.477,-0.792 0.384,0.841 c 0.094,0.204 0.262,0.498 0.431,0.655 0.174,0.161 0.527,0.382 0.638,0.446 l 0.74,0.433 -0.751,0.414 c -0.178,0.098 -0.507,0.307 -0.641,0.451 -0.225,0.243 -0.4,0.602 -0.418,0.643 z m -0.04,-1.05 c 0.06,-0.125 0.25,-0.493 0.501,-0.764 0.237,-0.257 0.763,-0.546 0.763,-0.546 0,0 -0.472,-0.276 -0.722,-0.51 -0.275,-0.255 -0.482,-0.675 -0.543,-0.81 -0.074,0.122 -0.31,0.501 -0.56,0.771 -0.238,0.255 -0.652,0.469 -0.82,0.548 l 0.003,0.001 -0.002,10e-4 c 0.158,0.077 0.527,0.271 0.779,0.503 0.276,0.257 0.526,0.675 0.601,0.806"
             style="fill:#000000;fill-opacity:1;fill-rule:nonzero;stroke:none"
             id="path6581"
             inkscape:connector-curvature="0" />
        </g>
      </g>
    </g>
  </g>
</svg>
