<?xml version="1.0" encoding="UTF-8" standalone="no"?>
<!-- Created with Inkscape (http://www.inkscape.org/) -->

<svg
   xmlns:dc="http://purl.org/dc/elements/1.1/"
   xmlns:cc="http://creativecommons.org/ns#"
   xmlns:rdf="http://www.w3.org/1999/02/22-rdf-syntax-ns#"
   xmlns:svg="http://www.w3.org/2000/svg"
   xmlns="http://www.w3.org/2000/svg"
   xmlns:sodipodi="http://sodipodi.sourceforge.net/DTD/sodipodi-0.dtd"
   xmlns:inkscape="http://www.inkscape.org/namespaces/inkscape"
   version="1.1"
   id="svg5048"
   width="138.55276"
   height="161.29591"
   viewBox="0 0 138.55276 161.29591"
   sodipodi:docname="CrucibleGuardLogo.svg"
   inkscape:version="0.92.1 r15371">
  <metadata
     id="metadata5054">
    <rdf:RDF>
      <cc:Work
         rdf:about="">
        <dc:format>image/svg+xml</dc:format>
        <dc:type
           rdf:resource="http://purl.org/dc/dcmitype/StillImage" />
        <dc:title></dc:title>
      </cc:Work>
    </rdf:RDF>
  </metadata>
  <defs
     id="defs5052" />
  <sodipodi:namedview
     pagecolor="#ffffff"
     bordercolor="#666666"
     borderopacity="1"
     objecttolerance="10"
     gridtolerance="10"
     guidetolerance="10"
     inkscape:pageopacity="0"
     inkscape:pageshadow="2"
     inkscape:window-width="1920"
     inkscape:window-height="1017"
     id="namedview5050"
     showgrid="false"
     inkscape:zoom="4"
     inkscape:cx="77.768277"
     inkscape:cy="69.25734"
     inkscape:window-x="-8"
     inkscape:window-y="-8"
     inkscape:window-maximized="1"
     inkscape:current-layer="svg5048" />
  <g
     id="g5658"
     style="fill:#000000;fill-opacity:1;stroke:none"
     transform="matrix(1.9248661,0,0,1.9248661,-51.508966,-59.546786)">
    <path
       id="path5601"
       d="M 62.75,30.935547 54.103516,65.90625 38.794922,59.480469 42.417969,73.736328 26.759766,75.605469 42.183594,83.435547 H 62.75 83.316406 L 98.740234,75.605469 83.082031,73.736328 86.705078,59.480469 71.396484,65.90625 Z"
       style="fill:#000000;fill-opacity:1;fill-rule:evenodd;stroke:none;stroke-width:0.1;stroke-linecap:butt;stroke-linejoin:miter;stroke-miterlimit:4;stroke-dasharray:none;stroke-opacity:1"
       inkscape:connector-curvature="0" />
    <path
       id="path5603"
       d="m 33.390625,86.355469 v 1.460937 h 0.847656 L 34.5,90.416016 h 1.111328 c 0,6.537713 4.092026,13.643184 10.556641,18.410154 0,0 -0.420882,5.18552 0.457031,5.86719 0.534927,0.41031 5.138672,-2.62891 5.138672,-2.62891 3.422483,1.58422 6.729217,2.29676 10.78125,2.33008 v 0.006 c 0.04997,0 0.09674,-0.004 0.146484,-0.004 0.04974,2.1e-4 0.09651,0.004 0.146485,0.004 v -0.006 c 4.052032,-0.0333 7.358766,-0.74586 10.78125,-2.33008 0,0 4.603745,3.03922 5.138671,2.62891 0.877914,-0.68167 0.457032,-5.86719 0.457032,-5.86719 6.464615,-4.76697 10.55664,-11.872441 10.55664,-18.410154 h 1.111328 l 0.261719,-2.59961 h 0.847657 v -1.460937 c 0,0 -4.5e-5,0.117187 -29.300782,0.117187 -29.300737,0 -29.300781,-0.117187 -29.300781,-0.117187 z"
       style="fill:#000000;fill-opacity:1;fill-rule:evenodd;stroke:none;stroke-width:0.1;stroke-linecap:butt;stroke-linejoin:miter;stroke-miterlimit:4;stroke-dasharray:none;stroke-opacity:1"
       inkscape:connector-curvature="0" />
  </g>
</svg>
