<?xml version="1.0" encoding="UTF-8" standalone="no"?>
<!-- Created with Inkscape (http://www.inkscape.org/) -->

<svg
   xmlns:dc="http://purl.org/dc/elements/1.1/"
   xmlns:cc="http://creativecommons.org/ns#"
   xmlns:rdf="http://www.w3.org/1999/02/22-rdf-syntax-ns#"
   xmlns:svg="http://www.w3.org/2000/svg"
   xmlns="http://www.w3.org/2000/svg"
   xmlns:sodipodi="http://sodipodi.sourceforge.net/DTD/sodipodi-0.dtd"
   xmlns:inkscape="http://www.inkscape.org/namespaces/inkscape"
   width="210mm"
   height="297mm"
   viewBox="0 0 210 297"
   version="1.1"
   id="svg8"
   inkscape:version="0.92.1 r15371"
   sodipodi:docname="KhadorLogo.svg">
  <defs
     id="defs2" />
  <sodipodi:namedview
     id="base"
     pagecolor="#ffffff"
     bordercolor="#666666"
     borderopacity="1.0"
     inkscape:pageopacity="0.0"
     inkscape:pageshadow="2"
     inkscape:zoom="0.7"
     inkscape:cx="128.30747"
     inkscape:cy="547.48136"
     inkscape:document-units="mm"
     inkscape:current-layer="layer1"
     showgrid="false"
     inkscape:window-width="2048"
     inkscape:window-height="1089"
     inkscape:window-x="-8"
     inkscape:window-y="-8"
     inkscape:window-maximized="1" />
  <metadata
     id="metadata5">
    <rdf:RDF>
      <cc:Work
         rdf:about="">
        <dc:format>image/svg+xml</dc:format>
        <dc:type
           rdf:resource="http://purl.org/dc/dcmitype/StillImage" />
        <dc:title></dc:title>
      </cc:Work>
    </rdf:RDF>
  </metadata>
  <g
     inkscape:label="Layer 1"
     inkscape:groupmode="layer"
     id="layer1">
    <path
       style="fill:#000000;stroke-width:0.26458332"
       d="m 100.8955,156.37572 c -0.097,-0.097 -0.17638,-2.10834 -0.17638,-4.46961 0,-3.67078 0.0607,-4.3165 0.4185,-4.45382 0.23019,-0.0883 1.95659,-0.1606 3.83646,-0.1606 2.44022,0 3.41795,-0.0889 3.41795,-0.31066 0,-0.51205 -17.307158,-30.37106 -17.606948,-30.37623 -0.15222,-0.003 -1.02873,1.31376 -1.94781,2.9253 -0.91909,1.61154 -1.81668,2.98595 -1.99466,3.05425 -0.38525,0.14783 -7.0258,-3.61742 -7.38549,-4.18764 -0.31749,-0.50333 10.00672,-18.730014 10.60933,-18.730014 0.56375,0 7.477663,3.977884 7.477663,4.302234 0,0.14994 -0.773906,1.62045 -1.719791,3.2678 -0.945886,1.64734 -1.719792,3.11831 -1.719792,3.26882 0,0.18575 5.694053,0.27365 17.727078,0.27365 13.14184,0 17.72708,-0.0784 17.72708,-0.30306 0,-0.16668 -0.78125,-1.66367 -1.73611,-3.32665 -1.32704,-2.31116 -1.66729,-3.10654 -1.44403,-3.37555 0.4097,-0.49367 6.79892,-4.107244 7.26208,-4.107244 0.40553,0 10.73473,17.835354 10.73473,18.535584 0,0.46309 -7.02782,4.58577 -7.50071,4.40009 -0.16748,-0.0658 -1.06034,-1.44921 -1.98415,-3.07434 -0.9238,-1.62512 -1.81677,-2.90992 -1.98437,-2.85512 -0.3472,0.11354 -17.61198,29.7811 -17.62587,30.28806 -0.007,0.24681 0.80096,0.33072 3.18333,0.33072 1.75581,0 3.42269,0.12326 3.70416,0.2739 0.47078,0.25195 0.51178,0.58929 0.51178,4.21169 0,2.16579 -0.0723,4.12613 -0.1606,4.35632 -0.14277,0.37203 -1.34267,0.41851 -10.80382,0.41851 -5.85377,0 -10.7226,-0.0794 -10.81961,-0.17639 z m 16.73097,-28.69767 c 2.9247,-4.96667 5.31764,-9.19339 5.31764,-9.39271 0,-0.3009 -1.83802,-0.36239 -10.8323,-0.36239 -5.95777,0 -10.88892,0.0916 -10.95811,0.20356 -0.18923,0.30617 10.46914,18.58185 10.83693,18.58185 0.17501,0 2.71113,-4.06364 5.63584,-9.03031 z"
       id="path4496"
       inkscape:connector-curvature="0"
       sodipodi:nodetypes="cscsscsccsscsssccssccccscscsccsscsc" />
  </g>
</svg>
