<?xml version="1.0" encoding="UTF-8" standalone="no"?>
<!-- Created with Inkscape (http://www.inkscape.org/) -->

<svg
   xmlns:dc="http://purl.org/dc/elements/1.1/"
   xmlns:cc="http://creativecommons.org/ns#"
   xmlns:rdf="http://www.w3.org/1999/02/22-rdf-syntax-ns#"
   xmlns:svg="http://www.w3.org/2000/svg"
   xmlns="http://www.w3.org/2000/svg"
   xmlns:sodipodi="http://sodipodi.sourceforge.net/DTD/sodipodi-0.dtd"
   xmlns:inkscape="http://www.inkscape.org/namespaces/inkscape"
   width="32.543789mm"
   height="50.297272mm"
   viewBox="0 0 32.543789 50.297272"
   version="1.1"
   id="svg8"
   inkscape:version="0.92.1 r15371"
   sodipodi:docname="SkorneLogo.svg">
  <defs
     id="defs2" />
  <sodipodi:namedview
     id="base"
     pagecolor="#ffffff"
     bordercolor="#666666"
     borderopacity="1.0"
     inkscape:pageopacity="0.0"
     inkscape:pageshadow="2"
     inkscape:zoom="2.8284271"
     inkscape:cx="-60.926369"
     inkscape:cy="63.85906"
     inkscape:document-units="mm"
     inkscape:current-layer="layer1"
     showgrid="false"
     inkscape:window-width="2048"
     inkscape:window-height="1089"
     inkscape:window-x="-8"
     inkscape:window-y="-8"
     inkscape:window-maximized="1" />
  <metadata
     id="metadata5">
    <rdf:RDF>
      <cc:Work
         rdf:about="">
        <dc:format>image/svg+xml</dc:format>
        <dc:type
           rdf:resource="http://purl.org/dc/dcmitype/StillImage" />
        <dc:title />
      </cc:Work>
    </rdf:RDF>
  </metadata>
  <g
     inkscape:label="Layer 1"
     inkscape:groupmode="layer"
     id="layer1"
     transform="translate(-381.10405,-227.25213)">
    <path
       style="fill:#000000;stroke-width:0.26458335"
       d="m 397.99366,262.06766 c -0.22278,-5.40835 -4.25862,-9.3193 -6.53968,-11.40468 0.0556,-0.0415 1.31507,-0.24476 1.95315,-0.48372 1.9609,-0.73424 3.19218,-1.68309 2.29762,-2.90647 -0.56232,-0.76902 -1.37858,-0.42548 -1.33488,0.56181 0.0149,0.33797 0.0246,0.55931 0.16699,0.8818 -0.29027,0.0477 -0.5099,0.10145 -0.7848,0.11149 -0.7496,0.0274 -1.33492,0.0585 -3.04373,-0.70356 -1.16998,-0.52175 -1.32188,-0.44937 -1.32188,-0.44937 0,0 -1.30183,0.79386 -1.74693,1.03342 0.0427,-0.43847 0.19544,-1.66668 0.30214,-2.25018 -0.75124,-1.00501 -0.96518,-0.94044 -1.58046,-1.60878 -1.47954,-1.29897 -1.58488,-1.30286 -1.58488,-1.30286 0,0 -1.79708,0.07 -2.13828,0.13299 0.17914,-0.23519 1.64479,-1.86725 1.64479,-1.86725 0,0 -0.13261,0.12265 -0.62515,-1.81702 -0.46142,-1.81695 -0.79758,-2.45178 -0.79758,-2.45178 l -1.75605,-0.5619 1.70382,-0.48939 c 0,0 0.23955,-0.33072 0.47852,-1.2122 0.50602,-1.86653 2.57206,-3.42311 2.99214,-3.63943 -0.0937,0.40341 -0.38996,0.72618 -0.74917,1.45206 -1.27976,2.58593 -1.05122,4.99353 0.6911,7.28042 1.90652,2.5024 5.45903,4.2598 7.55008,3.73498 0.89143,-0.22373 2.17707,-1.43798 1.85192,-1.74908 -0.127,-0.12151 -0.94529,-0.50625 -1.81841,-0.85497 -1.13242,-0.45227 -2.39176,-0.81778 -2.39176,-0.81778 0,0 -0.63813,0.31912 -0.9893,0.39228 0.0347,-0.3361 0.1359,-1.03889 0.1359,-1.03889 0,0 -0.2018,-0.58249 -0.52384,-1.04576 -0.28243,-0.40627 -0.67788,-1.12007 -0.87877,-1.58622 -0.27251,-0.63232 -0.6469,-1.01699 -0.6469,-1.01699 l -1.24077,0.0125 1.0695,-1.19063 c 0,0 -0.0228,-1.55474 0.0837,-2.32184 0.11187,-0.80604 0.48884,-2.28877 0.48884,-2.28877 0,0 -0.63459,-0.67812 -0.78394,-0.85474 0.55965,-0.0547 1.42857,0.0248 1.42857,0.0248 0,0 1.75066,-1.39097 2.35645,-1.67202 1.12138,-0.52025 2.35021,-0.8478 2.35021,-0.8478 0,0 -0.96172,0.83801 -1.54827,1.24449 -1.1327,0.78496 -2.16149,2.10534 -2.64858,3.40299 -0.65072,1.73359 0.3041,4.74441 1.95003,5.8536 0.91392,0.61589 4.07463,0.72274 4.07463,0.72274 -0.0579,0.58704 -0.0367,0.018 -0.0367,0.80243 0,0.78438 0.089,1.12505 0.81781,1.37046 0.50922,0.17148 0.823,0.18608 1.32291,-0.0342 0.34366,-0.15143 0.57125,-1.6497 0.57125,-2.04622 0.87644,0.11954 0.43757,0.10114 1.49663,0.0342 1.95414,-0.14134 3.2588,-0.96853 4.0344,-2.5579 1.38404,-2.8362 0.30615,-5.89882 -2.76116,-7.84529 -0.40472,-0.25683 -1.10331,-0.79523 -1.10331,-0.79523 0,0 1.40632,0.21995 2.65077,1.07415 0.64955,0.44586 1.59521,1.28536 2.00063,1.49207 0.36137,0 1.00258,-0.0129 1.3577,-0.0327 -0.24898,0.35929 -0.63023,0.95954 -0.63023,0.95954 l 0.45903,2.21086 0.15502,2.23425 c 0,0 0.43683,0.63044 0.95525,1.30951 -0.54644,0.029 -0.83056,0.0655 -1.29734,0.0655 -0.25816,0.48613 -0.62674,1.24086 -1.03502,1.93729 -0.5817,0.98657 -0.5174,0.96276 -0.86251,1.50685 0.0845,0.33665 0.12219,0.55721 0.24798,1.10269 -0.3703,-0.14907 -0.87574,-0.40315 -1.39794,-0.48665 -0.70131,0.30459 -0.94586,0.41085 -1.99003,0.83127 -1.76632,0.71128 -1.90887,0.83449 -1.70576,1.47445 0.38416,1.21036 3.38784,1.52784 5.3712,0.56771 1.64004,-0.79393 3.80872,-2.8691 4.57059,-4.37352 0.90852,-1.79397 0.88182,-4.0203 -0.0713,-5.9462 -0.38292,-0.77376 -0.91226,-1.64683 -0.91226,-1.64683 0,0 1.56413,0.635 2.56659,2.24849 0.66614,1.07216 1.0443,2.65525 1.0443,2.65525 l 1.73959,0.49577 -1.85485,0.83385 c 0,0 -0.27372,0.50204 -0.53764,1.79532 -0.16305,0.79891 -0.37773,1.70048 -0.47707,2.00349 -0.12489,0.38091 -0.0921,0.60055 -0.0921,0.60055 0,0 0.88624,1.02197 1.18718,1.28493 -0.55265,0.0174 -1.36751,0.0537 -1.89454,0.0537 -0.52859,0.42095 -0.44313,0.28452 -1.6466,1.41245 -1.44132,1.35086 -1.29404,1.48676 -1.29404,1.48676 0,0 -0.0103,1.87647 0.0353,2.33835 -0.28184,-0.18709 -1.78624,-1.04931 -1.78624,-1.04931 0,0 -0.11346,0.0634 -1.30686,0.57677 -0.70323,0.30252 -1.81909,0.55003 -2.4797,0.55003 -0.58751,0 -1.05034,-0.0246 -1.21985,-0.0492 0.14414,-0.37685 0.16901,-0.31156 0.16722,-0.69319 -0.002,-0.5217 0.01,-0.85763 -0.30152,-1.1159 -0.39599,-0.32864 -0.50989,-0.29952 -0.94885,0.24257 -0.27436,0.33883 -0.49884,0.83684 -0.49884,1.10669 0.6803,1.78629 2.83187,2.33096 4.36623,2.99911 -0.11823,0.31618 -0.43399,0.49809 -0.51622,0.8337 -0.62057,2.71634 0.32285,5.54786 0.22311,8.05334 -0.11486,2.8851 -0.10885,2.82574 -0.95581,5.00532 -3.32495,6.93195 -7.47428,9.34865 -11.94134,12.19612 4.91526,-4.43913 8.34163,-10.07343 8.11885,-15.48178 z"
       id="path4496"
       inkscape:connector-curvature="0"
       sodipodi:nodetypes="ccscccsccccccccccccsccccccccccccccscccscccsczssccsccscccccccccccccssccsccccccccsccccscscccccscczc" />
  </g>
</svg>
