<?xml version="1.0" encoding="UTF-8" standalone="no"?>
<!-- Created with Inkscape (http://www.inkscape.org/) -->

<svg
   xmlns:dc="http://purl.org/dc/elements/1.1/"
   xmlns:cc="http://creativecommons.org/ns#"
   xmlns:rdf="http://www.w3.org/1999/02/22-rdf-syntax-ns#"
   xmlns:svg="http://www.w3.org/2000/svg"
   xmlns="http://www.w3.org/2000/svg"
   xmlns:sodipodi="http://sodipodi.sourceforge.net/DTD/sodipodi-0.dtd"
   xmlns:inkscape="http://www.inkscape.org/namespaces/inkscape"
   width="210mm"
   height="297mm"
   viewBox="0 0 210 297"
   version="1.1"
   id="svg8"
   inkscape:version="0.92.1 r15371"
   sodipodi:docname="MercsLogo.svg">
  <defs
     id="defs2" />
  <sodipodi:namedview
     id="base"
     pagecolor="#ffffff"
     bordercolor="#666666"
     borderopacity="1.0"
     inkscape:pageopacity="0.0"
     inkscape:pageshadow="2"
     inkscape:zoom="0.98994949"
     inkscape:cx="-371.32608"
     inkscape:cy="749.3978"
     inkscape:document-units="mm"
     inkscape:current-layer="layer1"
     showgrid="false"
     inkscape:window-width="2048"
     inkscape:window-height="1089"
     inkscape:window-x="-8"
     inkscape:window-y="-8"
     inkscape:window-maximized="1" />
  <metadata
     id="metadata5">
    <rdf:RDF>
      <cc:Work
         rdf:about="">
        <dc:format>image/svg+xml</dc:format>
        <dc:type
           rdf:resource="http://purl.org/dc/dcmitype/StillImage" />
        <dc:title></dc:title>
      </cc:Work>
    </rdf:RDF>
  </metadata>
  <g
     inkscape:label="Layer 1"
     inkscape:groupmode="layer"
     id="layer1">
    <path
       style="fill:#000000;stroke-width:0.26458332"
       d="m 33.707879,149.93618 c -2.96642,-1.04106 -4.23605,-4.53762 -4.22302,-11.63028 0.0136,-7.38032 1.93288,-13.31277 6.07951,-18.79124 1.15021,-1.51963 1.31152,-1.87905 1.1735,-2.61475 -0.11376,-0.60637 -0.0385,-0.95379 0.26034,-1.20181 0.32063,-0.26609 0.34913,-0.43469 0.12012,-0.71063 -0.42975,-0.51781 -1.03644,-0.44722 -1.72629,0.20087 -0.349,0.32787 -0.77477,0.49515 -1.02037,0.40091 -0.50146,-0.19243 -1.43695,-2.16753 -1.31739,-2.78143 0.0462,-0.2371 0.0931,-0.57577 0.10419,-0.7526 0.0356,-0.56546 1.70223,-2.25851 2.5873,-2.62831 1.41868,-0.59276 2.60701,-0.4551 3.58033,0.41476 l 0.86407,0.77222 -0.59531,0.6339 c -0.63001,0.67083 -0.78607,1.64128 -0.31114,1.9348 0.36868,0.22786 1.56791,-0.89833 1.56791,-1.47242 0,-0.60916 0.84347,-1.31781 1.568534,-1.31781 0.37416,0 1.2087,-0.58753 2.21214,-1.55738 1.57068,-1.51809 1.60075,-1.57316 1.1923,-2.18281 -1.07705,-1.60761 -4.755044,-5.78481 -5.093484,-5.78481 -0.20924,0 -0.82305,0.89696 -1.36707,1.9977 -0.54302,1.09873 -1.08176,2.05607 -1.1972,2.12741 -0.32818,0.20283 -2.95151,-0.96587 -3.46502,-1.54369 -0.79682,-0.8966 0.0136,-3.30489 2.08229,-6.188298 l 1.44057,-2.00785 -0.53225,-1.09524 c -1.4256,-2.93351 -5.01579,-7.50806 -6.06767,-7.7313 -2.88663,-0.61263 -4.13434,-1.77052 -3.90776,-3.62644 0.23102,-1.8923 2.15632,-3.62812 4.02415,-3.62812 1.06637,0 2.47589,0.78136 2.90442,1.61004 0.21187,0.40971 0.38522,1.20923 0.38522,1.77671 0,0.71391 0.23177,1.35173 0.75234,2.07035 1.01997,1.40804 6.572604,6.56142 7.178984,6.6628 0.26763,0.0447 1.45131,-0.4037 2.63041,-0.99654 2.49242,-1.25316 4.95328,-1.68947 5.5402,-0.98226 0.37153,0.44766 0.84278,3.2738 0.63625,3.81567 -0.0693,0.1819 -0.2703,0.33073 -0.4466,0.33073 -0.87591,0 -3.06242,0.85203 -3.06242,1.19335 0,0.36106 4.866,6.590668 5.6678,7.256098 0.30371,0.25206 0.48369,0.21848 0.87634,-0.16352 1.02701,-0.99914 4.5246,-4.017718 6.81732,-5.883638 2.12569,-1.72999 2.65133,-2.32108 3.30278,-3.71403 0.0992,-0.21214 0.58729,-0.48995 1.08463,-0.61737 2.1751,-0.55725 8.44488,-6.44368 8.44488,-7.92855 0,-0.54018 0.56484,-0.99026 1.24275,-0.99026 0.96265,0 4.36585,3.40619 5.40426,5.40902 0.74201,1.43113 0.81903,1.74327 0.5193,2.10443 -0.19356,0.23323 -0.64093,0.42405 -0.99414,0.42405 -1.05053,0 -2.12043,0.70436 -5.64717,3.71774 -2.51415,2.14819 -3.41111,3.07995 -3.5993,3.73893 -0.18558,0.64985 -0.42007,0.89807 -0.90328,0.95616 -1.96973,0.23678 -3.43075,1.899128 -3.43075,3.903508 0,0.96809 -0.18694,1.20364 -3.36426,4.23904 -3.18063,3.03856 -3.3431,3.24342 -2.97656,3.7532 0.21323,0.29656 3.19373,4.09353 6.62334,8.43771 11.18866,14.17234 12.90887,16.48492 14.14135,19.011 1.17724,2.41289 2.50946,6.51955 2.50946,7.73559 0,0.60872 -0.0727,0.65054 -0.85989,0.49466 -1.19841,-0.23731 -4.69023,-2.30108 -7.21339,-4.26332 -2.5293,-1.96703 -3.22369,-2.7499 -11.38046,-12.83047 -9.68317,-11.96697 -10.75483,-13.22916 -11.23219,-13.22916 -0.2954,0 -1.65194,1.09308 -3.24688,2.61631 -1.52087,1.45248 -1.58863,2.10634 -0.45472,4.38841 1.27468,2.56538 0.96843,4.99986 -0.9604,7.63437 -1.03967,1.42004 -2.57889,2.27913 -4.10012,2.28843 -0.62746,0.004 -1.12273,0.19612 -1.45521,0.56499 -0.72147,0.80042 -0.61317,3.83424 0.26338,7.37832 1.04345,4.21886 0.94875,4.97398 -0.87413,6.96998 -1.774084,1.94257 -5.997874,2.85042 -8.756824,1.88217 z m 12.152454,-18.49994 c 0.88127,-0.45572 2.08014,-1.81546 2.44467,-2.77271 0.55198,-1.44946 0.75832,-3.28515 0.46811,-4.16448 -0.31968,-0.96867 -1.42254,-1.9764 -1.94397,-1.77631 -0.4916,0.18865 -2.27334,3.29954 -2.27334,3.96923 0,0.67718 0.40378,1.05494 1.39304,1.30323 1.72422,0.43275 0.98431,1.28294 -0.91678,1.05342 -1.05471,-0.12734 -1.28571,-0.0713 -1.52135,0.36899 -0.94871,1.77269 0.46933,2.99097 2.34962,2.01863 z"
       id="path4496"
       inkscape:connector-curvature="0"
       sodipodi:nodetypes="sccccccccccccccssccsccccccssscscccccsscccccsscsscccsscscsscsscssccccsccccscccc" />
  </g>
</svg>
