<?xml version="1.0" encoding="UTF-8" standalone="no"?>
<!-- Created with Inkscape (http://www.inkscape.org/) -->

<svg
   xmlns:dc="http://purl.org/dc/elements/1.1/"
   xmlns:cc="http://creativecommons.org/ns#"
   xmlns:rdf="http://www.w3.org/1999/02/22-rdf-syntax-ns#"
   xmlns:svg="http://www.w3.org/2000/svg"
   xmlns="http://www.w3.org/2000/svg"
   xmlns:sodipodi="http://sodipodi.sourceforge.net/DTD/sodipodi-0.dtd"
   xmlns:inkscape="http://www.inkscape.org/namespaces/inkscape"
   width="61.000637mm"
   height="84.927666mm"
   viewBox="0 0 61.000637 84.927666"
   version="1.1"
   id="svg8"
   inkscape:version="0.92.1 r15371"
   sodipodi:docname="LegionLogo.svg">
  <defs
     id="defs2" />
  <sodipodi:namedview
     id="base"
     pagecolor="#ffffff"
     bordercolor="#666666"
     borderopacity="1.0"
     inkscape:pageopacity="0.0"
     inkscape:pageshadow="2"
     inkscape:zoom="1.979899"
     inkscape:cx="-41.430882"
     inkscape:cy="172.17207"
     inkscape:document-units="mm"
     inkscape:current-layer="layer1"
     showgrid="false"
     inkscape:window-width="2048"
     inkscape:window-height="1089"
     inkscape:window-x="1912"
     inkscape:window-y="411"
     inkscape:window-maximized="1" />
  <metadata
     id="metadata5">
    <rdf:RDF>
      <cc:Work
         rdf:about="">
        <dc:format>image/svg+xml</dc:format>
        <dc:type
           rdf:resource="http://purl.org/dc/dcmitype/StillImage" />
        <dc:title></dc:title>
      </cc:Work>
    </rdf:RDF>
  </metadata>
  <g
     inkscape:label="Layer 1"
     inkscape:groupmode="layer"
     id="layer1"
     transform="translate(-130.41554,-142.46344)">
    <path
       style="fill:#000000;stroke-width:0.17638889"
       d="m 158.80887,227.08478 c -0.0886,-0.23408 -0.37468,-2.76716 -0.63571,-5.62907 -0.74781,-8.19862 -1.20862,-11.1927 -2.23927,-14.54933 -1.14321,-3.7232 -2.4372,-5.38262 -4.19728,-5.38262 -1.53377,0 -2.01405,0.73044 -2.02965,3.08681 -0.006,0.87313 0.0518,2.00422 0.12786,2.51354 0.0795,0.53229 0.071,0.92604 -0.02,0.92604 -0.25287,0 -1.02815,-1.91445 -1.33558,-3.29801 -0.19542,-0.87951 -0.28208,-2.15788 -0.28208,-4.16102 0,-2.32467 -0.0699,-3.16487 -0.35669,-4.28611 -0.78022,-3.05064 -2.95361,-4.94131 -5.90512,-5.13698 -1.99191,-0.13205 -3.08681,0.5861 -3.08681,2.02468 0,0.68457 0.47394,2.23526 1.00167,3.27741 0.78844,1.55698 0.16427,1.2641 -1.10916,-0.52044 -0.90274,-1.26509 -1.69174,-2.92378 -2.05809,-4.32666 -0.25478,-0.97566 -0.2522,-0.99348 0.53622,-3.69781 0.67392,-2.3116 0.79547,-2.96766 0.81392,-4.39311 0.0195,-1.50265 -0.0293,-1.77955 -0.47215,-2.68135 -0.58807,-1.19754 -1.68737,-2.08237 -3.11004,-2.50327 -1.37846,-0.40781 -1.85034,-0.36224 -2.54261,0.24558 -0.69972,0.61436 -0.99725,1.55867 -0.99725,3.16506 0,1.374 -0.2817,1.38238 -0.44063,0.0131 -0.27263,-2.34908 0.48065,-5.06267 2.03487,-7.33027 l 0.48846,-0.71265 -0.0922,-2.55054 c -0.24073,-6.65962 1.45667,-13.27951 4.67733,-18.2417 1.09696,-1.69013 4.37408,-4.94979 6.12035,-6.08775 1.8419,-1.20027 4.1766,-2.30786 6.26181,-2.97062 1.65506,-0.52604 5.12119,-1.27173 5.87388,-1.26368 0.2255,0.002 -0.42449,0.42968 -1.55235,1.02046 -5.84524,3.06171 -9.81588,6.83968 -12.01979,11.43653 -1.02751,2.14315 -1.47514,3.93991 -1.59756,6.41247 -0.15829,3.19715 0.6135,5.78473 2.16699,7.26531 0.6006,0.5724 0.77883,0.87008 0.77883,1.3008 0,0.3072 0.16753,0.77152 0.3723,1.03184 0.33043,0.42008 0.47404,0.46738 1.27716,0.42066 1.07208,-0.0624 1.23146,-0.36631 0.62338,-1.18878 -0.21764,-0.29437 -0.3495,-0.58141 -0.29303,-0.63788 0.19748,-0.19748 1.48964,0.60837 2.15314,1.34278 0.98069,1.08551 1.35862,2.06995 1.3714,3.57231 0.012,1.41427 -0.30997,2.39348 -1.03651,3.15202 -0.46933,0.48999 -1.40958,0.96911 -1.57575,0.80294 -0.0524,-0.0524 0.0296,-0.4627 0.18204,-0.91186 0.15249,-0.44915 0.27726,-1.20948 0.27726,-1.68963 0,-0.70571 -0.093,-0.97502 -0.48507,-1.40539 -0.68744,-0.75449 -1.482,-0.87353 -2.04862,-0.30691 -1.33545,1.33545 -0.99634,5.64804 0.77958,9.91397 1.37593,3.30514 5.08542,7.64002 7.66648,8.959 0.81735,0.41768 2.34688,2.01013 3.20538,3.33725 1.52031,2.35015 2.47113,5.34115 2.8491,8.96241 0.52508,5.03056 0.71584,21.43216 0.25463,21.89252 -0.16751,0.1672 -0.24889,0.12118 -0.37503,-0.21206 z m 3.78602,-0.35945 c -0.18869,-0.94343 -0.10943,-9.30939 0.14852,-15.67656 0.19086,-4.71121 0.33147,-6.51954 0.62267,-8.00784 0.95412,-4.8764 2.92779,-8.13885 6.21847,-10.27906 1.5384,-1.00056 4.20839,-3.61736 5.20815,-5.1044 2.66805,-3.96846 4.09162,-9.13022 3.37549,-12.23926 -0.3136,-1.36146 -1.2712,-1.94993 -2.28776,-1.40589 -0.8331,0.44587 -1.11548,2.08303 -0.60759,3.52255 0.35719,1.01239 0.34043,1.07826 -0.22049,0.86636 -1.93161,-0.72971 -2.83035,-3.62734 -1.82793,-5.89344 0.4615,-1.04328 1.42992,-2.09764 2.37419,-2.58489 0.82465,-0.42552 0.98473,-0.32504 0.48809,0.30633 -0.68776,0.87435 -0.4328,1.30842 0.76852,1.30842 0.79916,0 1.31648,-0.47278 1.44753,-1.32291 0.0713,-0.46262 0.32912,-0.9485 0.74872,-1.41112 1.34402,-1.48178 2.07597,-3.37434 2.25123,-5.82083 0.53781,-7.50779 -4.74992,-15.01468 -13.80645,-19.60075 -0.90956,-0.46059 -1.6232,-0.86798 -1.58585,-0.90533 0.10725,-0.10725 3.23103,0.45907 4.68813,0.84994 8.36171,2.243 14.10104,7.65396 16.82649,15.86378 1.20954,3.64346 1.81534,8.12361 1.63798,12.11357 -0.0928,2.0872 -0.0701,2.36619 0.22249,2.73818 0.64848,0.8244 1.58628,2.72173 1.85364,3.75024 0.29422,1.1318 0.38551,4.85773 0.11902,4.85773 -0.0849,0 -0.18995,-0.65484 -0.23356,-1.45521 -0.0912,-1.67304 -0.41874,-2.44973 -1.25233,-2.96932 -0.70522,-0.43959 -1.74135,-0.33866 -3.07197,0.29924 -1.31086,0.62842 -2.23306,1.74564 -2.61957,3.17354 -0.40088,1.48093 -0.21514,3.02501 0.77773,6.4655 0.7652,2.65158 0.76508,2.66322 -0.0485,4.88767 -0.58111,1.58888 -2.69556,4.52464 -3.023,4.19721 -0.0573,-0.0573 0.0174,-0.28961 0.1659,-0.51631 0.48957,-0.74732 1.16927,-2.78871 1.16927,-3.51177 0,-1.56849 -0.837,-2.19688 -2.91041,-2.18501 -1.47234,0.008 -2.87973,0.60234 -4.10605,1.73273 -1.78097,1.64164 -2.33531,3.53073 -2.30137,7.84262 0.0198,2.52142 -0.0326,3.153 -0.3677,4.42521 -0.21497,0.81621 -0.54621,1.78855 -0.7361,2.16076 -0.37719,0.73935 -0.80038,0.92903 -0.62444,0.27988 0.25197,-0.92967 0.3224,-3.27551 0.12586,-4.19196 -0.28022,-1.30664 -0.89073,-1.93755 -1.87489,-1.93755 -3.34091,0 -5.41839,6.47888 -6.61264,20.62229 -0.36762,4.35376 -0.52038,5.30687 -0.85056,5.30687 -0.0873,0 -0.20832,-0.24804 -0.26895,-0.55121 z M 155.2527,213.8431 c -0.43656,-0.0916 -1.54781,-0.40894 -2.46944,-0.70526 -11.0149,-3.54154 -18.51422,-13.7927 -18.51979,-25.31555 -0.002,-3.28107 0.76843,-7.89459 1.35523,-8.11976 0.155,-0.0595 0.48492,0.1213 0.80439,0.44076 l 0.5416,0.5416 -0.29255,1.37951 c -0.48511,2.28748 -0.62944,3.71982 -0.65448,6.49478 -0.0235,2.60633 -0.013,2.68335 0.70122,5.15829 1.43178,4.96106 3.16765,8.07525 6.35762,11.40571 3.26155,3.40519 7.37558,5.78868 11.90823,6.89911 1.67086,0.40933 1.78851,0.51356 1.83789,1.62821 0.0198,0.44632 -0.22005,0.47575 -1.56992,0.1926 z m 9.89018,-0.28079 c 0.0257,-1.00644 0.18355,-1.13312 1.93945,-1.55671 3.07413,-0.74161 6.38144,-2.33534 9.12301,-4.39622 1.51146,-1.13618 4.40546,-4.2099 5.48897,-5.82984 1.73595,-2.59539 2.75171,-5.03932 4.02849,-9.69258 0.30434,-1.10918 0.32555,-1.5755 0.20864,-4.58611 -0.081,-2.08471 -0.2448,-3.8514 -0.43349,-4.67431 -0.531,-2.31578 -0.53361,-2.23629 0.0924,-2.8211 0.31222,-0.29166 0.63558,-0.53029 0.71857,-0.53029 0.17976,0 0.54049,1.16921 0.98619,3.19644 0.257,1.16896 0.32491,2.23368 0.32491,5.09384 0,3.1413 -0.0538,3.85633 -0.40996,5.44698 -1.19506,5.33748 -3.47223,9.47594 -7.34328,13.34546 -3.61286,3.61141 -7.48204,5.84037 -12.24417,7.05359 -2.25017,0.57327 -2.49556,0.5684 -2.47977,-0.0491 z m -4.38702,-12.85465 c -0.45581,-2.40282 -2.08794,-5.6144 -3.89278,-7.65991 l -0.94727,-1.07357 0.43466,-0.47278 c 0.23907,-0.26003 0.94315,-1.33794 1.56463,-2.39536 0.92928,-1.58113 1.41669,-2.18763 2.74443,-3.41497 1.70178,-1.5731 3.2978,-3.3913 3.8021,-4.33136 0.43891,-0.81818 0.39416,-2.15043 -0.10849,-3.22996 -0.23162,-0.49743 -0.50764,-0.9579 -0.61338,-1.02325 -0.10575,-0.0653 -0.66102,-0.0658 -1.23395,-8.8e-4 -0.86584,0.098 -1.07396,0.18869 -1.23288,0.53748 -0.26317,0.5776 -0.0163,1.13746 0.79746,1.8082 0.51992,0.42856 0.59502,0.55311 0.33352,0.55311 -0.18562,0 -0.50136,0.1478 -0.70165,0.32844 -0.20028,0.18065 -0.75076,0.42233 -1.22329,0.53707 -2.15754,0.52391 -4.58368,1.9981 -6.61794,4.02123 -0.71691,0.713 -1.33792,1.26191 -1.38002,1.21981 -0.0421,-0.0421 0.0526,-0.32632 0.21048,-0.63159 0.4485,-0.86731 0.54832,-2.20351 0.20388,-2.72919 -0.15868,-0.24226 -0.2885,-0.47139 -0.2885,-0.50929 0,-0.0379 0.49609,-0.11659 1.10243,-0.17489 0.60634,-0.0583 1.479,-0.23584 1.93925,-0.39452 1.18605,-0.40892 2.5479,-1.69625 3.15897,-2.98613 l 0.50325,-1.06228 -0.98229,-0.0532 c -1.12536,-0.061 -2.64412,0.32975 -3.71037,0.95462 -1.01803,0.35122 -2.729,2.45242 -3.26535,3.22508 -0.14969,-0.53454 -0.0608,-1.09435 0.29683,-2.14382 0.30948,-0.90826 0.25625,-0.94635 0.54482,-1.44244 0.0501,0.50113 0.8959,0.38043 0.96995,-0.12942 0.0421,-0.29005 -0.34985,-1.00831 -0.73356,-1.01235 0.68541,-0.60355 1.31506,-0.94553 2.77411,-1.67342 1.76078,-0.87841 3.75529,-1.66457 5.42766,-2.13936 0.77611,-0.22034 1.54617,-0.45536 1.71126,-0.52227 0.46876,-0.18999 0.72606,-1.23226 0.59349,-2.40405 -0.0722,-0.63801 -0.051,-1.03779 0.0549,-1.03779 0.54733,0 2.13827,3.00856 2.13827,4.04359 0,0.39265 1.24894,1.24807 1.82222,1.24807 0.71389,0 1.58637,-0.72871 2.05833,-1.71916 0.24254,-0.50898 0.49691,-0.9257 0.56528,-0.92604 0.22006,-0.001 0.36519,1.23929 0.26905,2.29958 -0.0514,0.56677 -0.2928,1.46596 -0.53646,1.99818 l -0.44302,0.96768 0.3267,0.93884 c 0.17969,0.51636 0.3747,1.2365 0.43335,1.6003 0.0996,0.61749 0.14753,0.66146 0.72168,0.66146 0.33827,0 0.89999,-0.11907 1.24827,-0.26459 0.88442,-0.36953 0.99997,-0.33991 0.86013,0.22049 -0.27876,1.11703 -1.47053,2.17739 -2.84593,2.53213 -0.58045,0.14971 -0.78397,0.31489 -1.02715,0.83371 -0.16681,0.35585 -0.50924,0.94833 -0.76098,1.31662 -0.42829,0.6266 -0.4387,0.68862 -0.16192,0.96539 0.1639,0.1639 0.70795,0.34033 1.22026,0.39572 l 0.92449,0.0999 -0.74832,0.71434 c -0.83729,0.79925 -1.83784,1.17414 -2.92435,1.09569 -0.63188,-0.0456 -0.76261,0.01 -0.99209,0.41835 -0.21855,0.38938 -0.22699,0.57409 -0.0487,1.06706 0.11857,0.32789 0.21558,0.7274 0.21558,0.88779 0,0.1604 0.24359,0.4176 0.54132,0.57156 l 0.54132,0.27992 -1.26918,1.33611 c -0.99765,1.05027 -1.45138,1.71776 -2.12092,3.12009 -0.7838,1.64166 -1.40883,3.6212 -1.66326,5.26766 -0.0562,0.36381 -0.15989,0.66146 -0.23038,0.66146 -0.0705,0 -0.22795,-0.52599 -0.34991,-1.16888 z m -2.98428,-25.21045 c 0,0 0.70526,0.0452 1.04914,0.0944 0.31335,0.0448 0.9155,0.1779 0.9155,0.1779 m 0,0 c 0.69245,-0.77796 1.40709,-1.13141 2.38586,-1.59923 0,0 -1.84777,0.2179 -2.43482,0.45104 -1.11936,0.44455 -1.91568,0.87591 -1.91568,0.87591 m -14.40309,-6.93516 -0.48493,-0.50617 0.937,-0.7974 c 6.65374,-5.66238 16.15122,-7.64437 24.72506,-5.15977 3.26763,0.94692 7.33977,3.13623 9.69085,5.2101 l 0.84697,0.7471 -0.3898,0.41492 c -0.66857,0.71167 -0.93991,0.68267 -2.04508,-0.21853 -4.19742,-3.42274 -9.1925,-5.27236 -14.78128,-5.47333 -6.06705,-0.21817 -11.78237,1.64683 -16.35065,5.33547 -0.64967,0.52457 -1.28966,0.95377 -1.42221,0.95377 -0.13255,0 -0.45921,-0.22778 -0.72593,-0.50616 z"
       id="path4511"
       inkscape:connector-curvature="0"
       sodipodi:nodetypes="cssscsscsccsccsscccsssccccsccccscsccccccccsscccsccccccssccccsssccsccccccccccsccccccccscccccssssscccccccccscsccccccsccscscscccccccccscsccccssccccccssccccccccsccsccssscccccccscccccccccccssccsccscccscccsccccscccsscsc" />
  </g>
</svg>
