<?xml version="1.0" encoding="UTF-8" standalone="no"?>
<!-- Created with Inkscape (http://www.inkscape.org/) -->

<svg
   xmlns:dc="http://purl.org/dc/elements/1.1/"
   xmlns:cc="http://creativecommons.org/ns#"
   xmlns:rdf="http://www.w3.org/1999/02/22-rdf-syntax-ns#"
   xmlns:svg="http://www.w3.org/2000/svg"
   xmlns="http://www.w3.org/2000/svg"
   xmlns:sodipodi="http://sodipodi.sourceforge.net/DTD/sodipodi-0.dtd"
   xmlns:inkscape="http://www.inkscape.org/namespaces/inkscape"
   width="134.85881mm"
   height="113.01981mm"
   viewBox="0 0 134.85881 113.01981"
   version="1.1"
   id="svg8"
   inkscape:version="0.92.1 r15371"
   sodipodi:docname="MinionsLogo.svg">
  <defs
     id="defs2" />
  <sodipodi:namedview
     id="base"
     pagecolor="#ffffff"
     bordercolor="#666666"
     borderopacity="1.0"
     inkscape:pageopacity="0.0"
     inkscape:pageshadow="2"
     inkscape:zoom="0.98994949"
     inkscape:cx="607.73357"
     inkscape:cy="351.62635"
     inkscape:document-units="mm"
     inkscape:current-layer="layer1"
     showgrid="false"
     inkscape:window-width="2048"
     inkscape:window-height="1089"
     inkscape:window-x="1912"
     inkscape:window-y="411"
     inkscape:window-maximized="1" />
  <metadata
     id="metadata5">
    <rdf:RDF>
      <cc:Work
         rdf:about="">
        <dc:format>image/svg+xml</dc:format>
        <dc:type
           rdf:resource="http://purl.org/dc/dcmitype/StillImage" />
        <dc:title></dc:title>
      </cc:Work>
    </rdf:RDF>
  </metadata>
  <g
     inkscape:label="Layer 1"
     inkscape:groupmode="layer"
     id="layer1"
     transform="translate(-199.86198,-311.26832)">
    <path
       style="fill:#000000;stroke-width:0.26458332"
       d="m 214.88959,423.22624 c -0.36096,-0.43492 -0.27359,-1.15776 0.9819,-8.12364 l 0.41923,-2.32597 2.68249,-2.15922 c 4.68643,-4.12753 10.05409,-7.19399 12.8958,-10.10624 6.97091,-7.15452 12.51043,-12.95359 14.1092,-14.77027 1.36134,-1.54689 1.68781,-1.78211 2.47355,-1.78211 1.77424,0 3.49873,1.39442 3.49873,2.82907 0,0.27415 -1.16601,1.69084 -2.59113,3.1482 -1.42512,1.45736 -3.80912,4.19124 -5.29778,6.0753 -1.48866,1.88406 -3.18955,3.96134 -3.77976,4.61618 -4.92231,4.82694 -7.64006,11.74091 -10.77319,16.40325 -1.52186,2.25608 -2.8568,4.20232 -2.96653,4.32497 -0.23765,0.26566 -9.6079,2.2878 -10.60869,2.28941 -0.38236,5.3e-4 -0.85208,-0.1879 -1.04382,-0.41893 z m 93.25387,-1.6871 c -0.18297,-0.0562 -1.80966,-2.81354 -2.924,-4.95637 -0.77165,-1.48384 -1.94174,-3.60914 -2.6002,-4.72288 -1.61955,-2.73936 -6.33813,-9.20553 -7.80627,-10.69743 -0.65484,-0.66545 -2.44078,-2.80645 -3.96875,-4.75779 -1.52797,-1.95134 -3.99851,-4.80353 -5.4901,-6.33819 -1.49159,-1.53466 -2.71198,-3.01232 -2.71198,-3.28369 0,-1.42464 1.73189,-2.82813 3.47957,-2.81975 0.80011,0.004 1.24534,0.39108 4.59022,3.99232 2.03729,2.19343 4.06135,4.39955 4.49792,4.90247 0.43656,0.50293 2.77535,2.91857 5.1973,5.3681 3.55062,3.59105 5.34429,5.15029 9.26042,8.05017 2.67127,1.97807 5.70579,4.24444 6.74338,5.03638 l 1.88651,1.43991 c 0.84169,7.48692 1.36278,11.18325 1.36278,11.18325 -0.31838,0.88665 -4.07278,0.10519 -11.5168,-2.3965 z m -45.30163,-0.14467 c -0.73293,-0.80194 -1.7487,-2.28979 -2.25725,-3.30634 -1.07704,-2.15288 -1.88404,-5.44458 -1.64594,-6.71373 0.19849,-1.05807 -0.44396,-7.44335 -1.16903,-11.61893 -1.5784,-9.08971 -3.7426,-14.12518 -7.18214,-16.71073 -2.15047,-1.61654 -3.193,-1.64772 -4.82404,-0.14428 -1.38093,1.2729 -2.13581,1.34191 -4.08015,0.373 -2.50924,-1.2504 -3.86486,-3.77144 -3.70375,-6.88785 l 0.0803,-1.5541 1.45521,-0.72263 c 2.97861,-1.47912 4.46979,-4.17084 4.09578,-7.39329 -0.13034,-1.123 -0.34351,-1.72667 -0.71783,-2.03281 -1.908,-1.56042 -1.95489,-2.15122 -0.28537,-3.59558 4.1607,-3.59956 5.13919,-5.09229 6.2749,-9.57263 1.46552,-5.78146 3.52718,-10.75267 4.84562,-11.68409 1.15307,-0.81461 4.32983,-2.34927 5.91208,-2.85608 1.92227,-0.71075 4.02751,-1.74697 5.1934,-3.28581 1.07863,-1.44478 1.54258,-1.67224 3.14199,-1.5404 0.92461,0.0762 1.13932,0.24764 2.17722,1.73821 1.26666,1.82854 3.51109,2.55503 5.38215,3.23887 1.21679,0.44156 3.09609,1.30731 4.17623,1.92391 1.79349,1.0238 2.04047,1.27029 2.84651,2.84086 0.9586,1.86785 2.63596,6.78696 3.48995,10.23481 0.93575,3.77795 2.2751,5.8505 5.25682,8.1346 1.5151,1.16061 1.80208,1.50937 1.87637,2.28031 0.0747,0.77562 -0.0563,1.03107 -0.88686,1.72834 -0.90227,0.7575 -0.98505,0.94866 -1.11571,2.57643 -0.0853,1.06308 -0.007,2.2365 0.19756,2.96793 0.45447,1.62321 2.25859,3.5969 3.9549,4.32663 1.54154,0.66315 1.75721,1.15486 1.49291,3.40366 -0.41196,3.50513 -2.52196,5.90527 -5.55713,6.32129 -1.11637,0.15301 -1.22552,0.10711 -2.21256,-0.93048 -0.87748,-0.92243 -1.20145,-1.09143 -2.09219,-1.09143 -1.26022,0 -3.05205,1.09305 -4.48838,2.73802 -1.32672,1.51942 -3.08502,5.31377 -4.03778,8.7134 -1.43918,5.13526 -2.73008,14.24021 -2.61534,18.44649 0.10046,3.68281 -1.22934,6.59054 -4.824,10.54818 -0.80638,0.88779 -1.31091,0.3721 -0.8105,-0.82844 0.19629,-0.4709 0.41286,-1.30268 0.48128,-1.84838 0.10323,-0.82343 0.0438,-0.99219 -0.34937,-0.99219 -0.26057,0 -0.74518,-0.25499 -1.07692,-0.56664 l -0.60316,-0.56664 -0.47223,0.82955 c -0.59244,1.04075 -1.00712,1.05136 -1.53055,0.0391 -0.47948,-0.92722 -0.79811,-0.99802 -1.19063,-0.26459 -0.15576,0.29105 -0.5044,0.52917 -0.77475,0.52917 -0.94925,0 -1.10628,1.67214 -0.25826,2.75022 0.5289,0.67239 0.53411,1.48311 0.01,1.48311 -0.13549,0 -0.84601,-0.65613 -1.57894,-1.45807 z m 6.35136,-14.44914 c 0.25864,-0.78265 0.97284,-2.46207 1.58712,-3.73206 l 1.11687,-2.30907 -0.51449,-1.24085 c -0.28297,-0.68247 -0.65147,-1.28647 -0.81888,-1.34222 -0.185,-0.0616 -0.74225,1.22701 -1.4207,3.28533 -1.15041,3.4902 -1.62918,4.3716 -2.11223,3.88856 -0.14807,-0.14807 -0.78209,-1.80262 -1.40893,-3.67677 -0.62683,-1.87415 -1.26273,-3.44856 -1.4131,-3.49868 -0.29375,-0.0979 -1.14586,1.88505 -1.14586,2.66658 0,0.26026 0.31476,1.01031 0.69947,1.66677 0.38471,0.65645 1.01739,2.11167 1.40596,3.23382 0.38856,1.12215 0.77668,2.15406 0.86248,2.29314 0.0858,0.13908 0.72661,0.23838 1.42402,0.22066 l 1.26802,-0.0322 z m -12.21561,-32.00525 c 0,-0.6098 -3.88765,-5.92183 -4.84185,-6.61583 -1.47415,-1.07217 -4.94513,-2.46556 -5.28791,-2.12278 -0.35234,0.35233 0.74764,2.99641 2.27736,5.47426 1.09616,1.77556 1.11896,1.79348 2.69302,2.11687 0.87313,0.17939 2.18281,0.56346 2.91042,0.85349 1.52609,0.60831 2.24896,0.7028 2.24896,0.29399 z m 23.00295,-0.3503 c 0.97241,-0.35076 2.33107,-0.72219 3.01924,-0.82539 1.49566,-0.22429 1.96538,-0.75531 3.73384,-4.2211 1.78772,-3.50354 1.63665,-3.97279 -0.94173,-2.92511 -2.98221,1.21179 -3.97639,2.04007 -6.02049,5.01587 -2.7648,4.02499 -2.76456,4.0284 0.20914,2.95573 z m -61.71116,21.73828 c -0.65207,-0.48488 -1.9154,-4.19218 -2.40516,-7.05808 -0.23442,-1.37171 -0.4264,-3.93155 -0.42663,-5.68854 -0.0313,-2.25827 0.58322,-3.49913 1.16447,-5.70806 0.81755,-3.11754 2.82011,-5.89049 4.38319,-8.33438 1.64882,-2.63506 4.49609,-5.45711 7.21384,-7.14995 1.27052,-0.79138 2.52067,-1.62883 2.77812,-1.86099 0.25745,-0.23216 1.87064,-1.2167 3.58487,-2.18787 4.01998,-2.27746 7.43799,-4.71418 10.02082,-7.14391 1.22378,-1.15123 2.18484,-1.86182 2.36636,-1.74964 0.56231,0.34753 0.095,3.06632 -0.88753,5.16356 -1.1761,2.51043 -2.33899,4.07905 -3.43257,4.63018 -1.11302,0.56092 -2.52107,1.88836 -3.02589,2.85264 -0.53108,1.01446 -0.27881,1.85655 0.98699,3.29457 2.76417,3.14026 1.67334,5.82677 -2.97221,7.32 -1.2122,0.38964 -3.3351,1.31369 -4.71755,2.05343 -1.38245,0.73975 -3.00654,1.60678 -3.6091,1.92675 -1.65688,0.87982 -3.38226,2.41084 -5.37648,4.7708 -3.21256,3.80175 -3.99531,6.10425 -3.77469,11.10346 0.12225,2.7702 0.0934,3.00531 -0.43355,3.53225 -0.65477,0.65478 -0.83232,0.68366 -1.4373,0.23378 z m 97.47874,-2.63658 c -0.5548,-4.89607 -1.38749,-7.3913 -3.61636,-10.83678 -1.39221,-2.15213 -4.08048,-4.93583 -5.28022,-5.46765 -0.98147,-0.43507 -2.22632,-1.07097 -5.29166,-2.70312 -1.30969,-0.69734 -3.33668,-1.57492 -4.50442,-1.95017 -4.69811,-1.50971 -5.81818,-4.20481 -3.05305,-7.34617 1.2658,-1.43802 1.51807,-2.28011 0.98699,-3.29457 -0.50482,-0.96428 -1.91287,-2.29172 -3.02589,-2.85264 -1.09358,-0.55113 -2.25647,-2.11975 -3.43257,-4.63018 -0.98253,-2.09724 -1.44984,-4.81603 -0.88753,-5.16356 0.18149,-0.11217 1.14387,0.5986 2.36901,1.74964 2.40764,2.26201 5.75981,4.70129 9.2985,6.76626 1.38245,0.80671 2.75166,1.67335 3.04271,1.92586 0.29104,0.25251 1.54119,1.08503 2.77812,1.85005 6.35199,3.92858 8.96693,7.37922 12.68169,16.73457 1.2739,3.20822 1.2243,3.51809 1.34123,5.84036 0.0681,1.35271 -0.19082,3.58489 -0.42403,4.9566 -0.44693,2.62867 -1.8864,6.88837 -2.38184,7.04833 -0.18794,0.0607 -0.40243,-0.8773 -0.60068,-2.62683 z m -82.53544,-38.8773 c -0.62867,-0.28874 -1.99414,-0.70244 -3.03438,-0.91933 -2.43813,-0.50837 -2.67996,-0.70496 -2.14343,-1.74249 1.84021,-5.29905 -1.31478,-8.03285 -5.90085,-6.63963 -1.37198,0.43248 -1.43711,0.43023 -1.9151,-0.0661 -0.55223,-0.57347 -19.43096,-30.97245 -20.08208,-32.33662 -0.39112,-0.81947 -0.38334,-0.89678 0.14334,-1.42346 0.46989,-0.46989 0.67445,-0.51375 1.30894,-0.28066 0.4136,0.15194 8.25295,4.24851 17.42076,9.10347 15.19592,8.04725 16.67599,8.88932 16.75077,9.53014 0.0451,0.38662 -0.095,1.04521 -0.31129,1.46354 -0.8693,2.52493 -0.67313,5.18215 1.68537,6.41874 0.93411,0.47654 1.26725,0.51658 2.45806,0.29537 1.96624,-0.36525 2.63404,-0.66703 3.58881,-1.62179 1.36016,-1.36017 1.62515,-0.99971 1.62515,2.21063 0,1.51434 0.0744,3.12542 0.16537,3.58018 l 0.16536,0.82682 h -1.70674 c -1.48299,0 -1.78904,0.0876 -2.33444,0.66815 l -0.6277,0.66815 2.16908,2.018 c 1.27253,1.18389 2.16907,2.22952 2.16907,2.52975 0,0.65799 -3.1074,3.90553 -3.737,3.90553 -0.26297,0 -1.48274,-0.65484 -2.71061,-1.45521 -1.22787,-0.80036 -2.39878,-1.4552 -2.60202,-1.4552 -1.02529,0 -1.27828,1.38755 -0.6398,3.50905 0.26085,0.86675 0.28346,1.29317 0.0794,1.49726 -0.37581,0.37581 -0.62452,0.34018 -1.98401,-0.28421 z m 66.19205,0.16781 c -0.0848,-0.22097 -0.0215,-0.92854 0.14059,-1.57237 0.53571,-2.12749 0.2811,-3.31754 -0.70977,-3.31754 -0.20324,0 -1.37415,0.65484 -2.60202,1.4552 -1.22787,0.80037 -2.44764,1.45521 -2.71061,1.45521 -0.6296,0 -3.737,-3.24754 -3.737,-3.90553 0,-0.30023 0.89654,-1.34586 2.16907,-2.52975 l 2.16908,-2.018 -0.6277,-0.66815 c -0.54518,-0.58032 -0.85166,-0.66815 -2.33139,-0.66815 h -1.70371 l 0.18003,-0.8599 c 0.099,-0.47294 0.16157,-2.07999 0.139,-3.57123 0.0724,-5.76848 4.03053,0.34732 7.67659,-1.02292 2.13453,-0.85407 2.66511,-2.55319 1.83366,-5.87206 -0.3351,-1.33757 -0.46131,-2.32097 -0.31647,-2.4658 0.36914,-0.36914 33.70416,-17.95549 34.33469,-18.11375 0.35573,-0.0893 0.73121,0.0576 1.05111,0.41104 0.4615,0.50995 0.46807,0.61205 0.0903,1.40405 -0.52901,1.10901 -18.67031,30.37941 -19.10929,30.83223 -0.21001,0.21662 -1.58782,0.43968 -3.70648,0.60004 -4.02476,0.30465 -4.6982,0.58611 -5.32416,2.22514 -0.54337,1.42281 -0.42718,4.06778 0.23494,5.34819 0.55142,1.06632 0.22554,1.35844 -1.85858,1.66603 -1.71443,0.25302 -3.1265,0.69841 -3.91319,1.23428 -0.68531,0.46681 -1.17818,0.45015 -1.36867,-0.0463 z"
       id="path4524"
       inkscape:connector-curvature="0"
       sodipodi:nodetypes="cccccssssscccccccscssscscscccscccccsccccsscscccccccccscccccscccscsscccscccccscscccscscccccsccscccsccccssccscscccccccssccccccsccssccscccccccccccccssccsccccccscscccccsccscccsscsccccccscsscccsccccccccccccccccc" />
  </g>
</svg>
